<svg width="142" height="107" fill="none" xmlns="http://www.w3.org/2000/svg"><g opacity=".2"><path d="M22.335 99.536l.534-.845-.534.845zM6.927 81.68l-.908.42.004.007.003.007.9-.434zm0-56.016l-.903-.43-.003.005.906.425zm15.408-18l.534.845-.534-.845zm44.64 0l-.535.845.535-.845zm15.264 18l-.908.42.004.007.003.007.9-.434zm0 56.016l-.903-.43-.003.005.906.425zM66.975 99.536l-.535-.845.535.845zm-7.92-21.456l-.83-.558-.007.01.837.548zm0-48.96l-.837.548.007.01.83-.558zm-28.8 0l-.83-.558-.007.01.837.548zm0 48.96l-.837.548.007.01.83-.558zm14.4 26.648c-8.18 0-15.43-2.019-21.786-6.037l-1.069 1.69c6.701 4.238 14.33 6.347 22.855 6.347v-2zm-21.786-6.037C16.518 94.674 11.5 88.874 7.828 81.246l-1.802.868c3.815 7.924 9.07 14.028 15.774 18.267l1.07-1.69zM7.834 81.26c-3.574-7.712-5.38-16.922-5.38-27.66h-2c0 10.958 1.843 20.468 5.565 28.5l1.815-.84zM2.454 53.6c0-10.739 1.807-19.898 5.378-27.511l-1.81-.85C2.296 33.18.454 42.643.454 53.6h2zM7.83 26.093c3.673-7.724 8.69-13.57 15.04-17.584L21.8 6.82C15.093 11.06 9.838 17.214 6.024 25.235l1.806.858zM22.87 8.51c6.354-4.018 13.606-6.037 21.785-6.037v-2C36.13.472 28.5 2.582 21.8 6.819l1.07 1.69zm21.785-6.037c8.179 0 15.43 2.019 21.785 6.037l1.07-1.69C60.807 2.58 53.18.472 44.654.472v2zM66.44 8.509c6.346 4.013 11.314 9.856 14.891 17.575l1.815-.84C79.427 17.218 74.22 11.062 67.51 6.819l-1.069 1.69zm14.898 17.589c3.664 7.61 5.517 16.767 5.517 27.502h2c0-10.96-1.892-20.428-5.715-28.37l-1.802.868zM86.855 53.6c0 10.735-1.853 19.941-5.52 27.65l1.807.86c3.821-8.035 5.713-17.549 5.713-28.51h-2zm-5.522 27.655c-3.576 7.624-8.544 13.42-14.893 17.436l1.07 1.69c6.706-4.24 11.914-10.348 15.634-18.276l-1.81-.85zM66.44 98.691c-6.355 4.018-13.606 6.037-21.785 6.037v2c8.525 0 16.153-2.109 22.854-6.347l-1.069-1.69zM44.655 87c6.492 0 11.602-2.82 15.236-8.372l-1.673-1.096C54.941 82.54 50.45 85 44.655 85v2zm15.23-8.362c3.718-5.527 5.498-13.928 5.498-25.038h-2c0 10.97-1.772 18.889-5.158 23.922l1.66 1.116zM65.383 53.6c0-11.11-1.78-19.511-5.498-25.038l-1.66 1.116c3.386 5.033 5.158 12.952 5.158 23.922h2zM59.89 28.572C56.257 23.02 51.147 20.2 44.655 20.2v2c5.795 0 10.286 2.46 13.563 7.468l1.673-1.096zM44.655 20.2c-6.401 0-11.504 2.823-15.23 8.362l1.66 1.116c3.377-5.02 7.875-7.478 13.57-7.478v-2zm-15.237 8.372c-3.616 5.525-5.347 13.921-5.347 25.028h2c0-10.974 1.724-18.897 5.02-23.932l-1.673-1.096zM24.071 53.6c0 11.107 1.731 19.503 5.347 25.028l1.673-1.096c-3.296-5.035-5.02-12.959-5.02-23.932h-2zm5.354 25.038C33.151 84.178 38.254 87 44.655 87v-2c-5.695 0-10.193-2.457-13.57-7.478l-1.66 1.116zM140.105 3.2h1v-1h-1v1zm0 100.8v1h1v-1h-1zm-23.328 0h-1v1h1v-1zm0-82.08h1v-1h-1v1zm-20.16 0h-1v1h1v-1zm0-18.72v-1h-1v1h1zm42.488 0V104h2V3.2h-2zm1 99.8h-23.328v2h23.328v-2zm-22.328 1V21.92h-2V104h2zm-1-83.08h-20.16v2h20.16v-2zm-19.16 1V3.2h-2v18.72h2zm-1-17.72h43.488v-2H96.617v2z" fill="#2737A7"/><path d="M22.335 99.536l.534-.845-.534.845zM6.927 81.68l-.908.42.004.007.003.007.9-.434zm0-56.016l-.903-.43-.003.005.906.425zm15.408-18l.534.845-.534-.845zm44.64 0l-.535.845.535-.845zm15.264 18l-.908.42.004.007.003.007.9-.434zm0 56.016l-.903-.43-.003.005.906.425zM66.975 99.536l-.535-.845.535.845zm-7.92-21.456l-.83-.558-.007.01.837.548zm0-48.96l-.837.548.007.01.83-.558zm-28.8 0l-.83-.558-.007.01.837.548zm0 48.96l-.837.548.007.01.83-.558zm14.4 26.648c-8.18 0-15.43-2.019-21.786-6.037l-1.069 1.69c6.701 4.238 14.33 6.347 22.855 6.347v-2zm-21.786-6.037C16.518 94.674 11.5 88.874 7.828 81.246l-1.802.868c3.815 7.924 9.07 14.028 15.774 18.267l1.07-1.69zM7.834 81.26c-3.574-7.712-5.38-16.922-5.38-27.66h-2c0 10.958 1.843 20.468 5.565 28.5l1.815-.84zM2.454 53.6c0-10.739 1.807-19.898 5.378-27.511l-1.81-.85C2.296 33.18.454 42.643.454 53.6h2zM7.83 26.093c3.673-7.724 8.69-13.57 15.04-17.584L21.8 6.82C15.093 11.06 9.838 17.214 6.024 25.235l1.806.858zM22.87 8.51c6.354-4.018 13.606-6.037 21.785-6.037v-2C36.13.472 28.5 2.582 21.8 6.819l1.07 1.69zm21.785-6.037c8.179 0 15.43 2.019 21.785 6.037l1.07-1.69C60.807 2.58 53.18.472 44.654.472v2zM66.44 8.509c6.346 4.013 11.314 9.856 14.891 17.575l1.815-.84C79.427 17.218 74.22 11.062 67.51 6.819l-1.069 1.69zm14.898 17.589c3.664 7.61 5.517 16.767 5.517 27.502h2c0-10.96-1.892-20.428-5.715-28.37l-1.802.868zM86.855 53.6c0 10.735-1.853 19.941-5.52 27.65l1.807.86c3.821-8.035 5.713-17.549 5.713-28.51h-2zm-5.522 27.655c-3.576 7.624-8.544 13.42-14.893 17.436l1.07 1.69c6.706-4.24 11.914-10.348 15.634-18.276l-1.81-.85zM66.44 98.691c-6.355 4.018-13.606 6.037-21.785 6.037v2c8.525 0 16.153-2.109 22.854-6.347l-1.069-1.69zM44.655 87c6.492 0 11.602-2.82 15.236-8.372l-1.673-1.096C54.941 82.54 50.45 85 44.655 85v2zm15.23-8.362c3.718-5.527 5.498-13.928 5.498-25.038h-2c0 10.97-1.772 18.889-5.158 23.922l1.66 1.116zM65.383 53.6c0-11.11-1.78-19.511-5.498-25.038l-1.66 1.116c3.386 5.033 5.158 12.952 5.158 23.922h2zM59.89 28.572C56.257 23.02 51.147 20.2 44.655 20.2v2c5.795 0 10.286 2.46 13.563 7.468l1.673-1.096zM44.655 20.2c-6.401 0-11.504 2.823-15.23 8.362l1.66 1.116c3.377-5.02 7.875-7.478 13.57-7.478v-2zm-15.237 8.372c-3.616 5.525-5.347 13.921-5.347 25.028h2c0-10.974 1.724-18.897 5.02-23.932l-1.673-1.096zM24.071 53.6c0 11.107 1.731 19.503 5.347 25.028l1.673-1.096c-3.296-5.035-5.02-12.959-5.02-23.932h-2zm5.354 25.038C33.151 84.178 38.254 87 44.655 87v-2c-5.695 0-10.193-2.457-13.57-7.478l-1.66 1.116zM140.105 3.2h1v-1h-1v1zm0 100.8v1h1v-1h-1zm-23.328 0h-1v1h1v-1zm0-82.08h1v-1h-1v1zm-20.16 0h-1v1h1v-1zm0-18.72v-1h-1v1h1zm42.488 0V104h2V3.2h-2zm1 99.8h-23.328v2h23.328v-2zm-22.328 1V21.92h-2V104h2zm-1-83.08h-20.16v2h20.16v-2zm-19.16 1V3.2h-2v18.72h2zm-1-17.72h43.488v-2H96.617v2z" fill="url(#paint0_linear)"/></g><defs><linearGradient id="paint0_linear" x1="22" y1="-36" x2="22" y2="140" gradientUnits="userSpaceOnUse"><stop stop-color="#fff" stop-opacity="0"/><stop offset="1" stop-color="#fff"/></linearGradient></defs></svg>