<svg width="178" height="107" fill="none" xmlns="http://www.w3.org/2000/svg"><g opacity=".2"><path d="M22.788 99.536l.534-.845-.534.845zM7.38 81.68l-.907.42.003.007.003.007.9-.434zm0-56.016l-.903-.43-.002.005.905.425zm15.408-18l.534.845-.534-.845zm44.64 0l-.535.845.535-.845zm15.264 18l-.907.42.003.007.003.007.9-.434zm0 56.016l-.903-.43-.002.005.905.425zM67.428 99.536l-.535-.845.535.845zm-7.92-21.456l-.83-.558-.007.01.837.548zm0-48.96l-.837.548.007.01.83-.558zm-28.8 0l-.83-.558-.007.01.837.548zm0 48.96l-.837.548.007.01.83-.558zm14.4 26.648c-8.179 0-15.43-2.019-21.786-6.037l-1.069 1.69c6.701 4.238 14.33 6.347 22.855 6.347v-2zm-21.786-6.037c-6.351-4.017-11.369-9.817-15.041-17.445l-1.802.868c3.815 7.924 9.07 14.028 15.774 18.267l1.07-1.69zM8.287 81.26c-3.573-7.712-5.38-16.922-5.38-27.66h-2c0 10.958 1.843 20.468 5.566 28.5l1.814-.84zM2.907 53.6c0-10.739 1.807-19.898 5.378-27.511l-1.81-.85C2.75 33.18.908 42.643.908 53.6h2zm5.376-27.507c3.674-7.724 8.69-13.57 15.04-17.584l-1.07-1.69C15.546 11.06 10.291 17.214 6.477 25.235l1.806.858zM23.323 8.51c6.354-4.018 13.606-6.037 21.785-6.037v-2c-8.525 0-16.154 2.11-22.855 6.347l1.07 1.69zm21.785-6.037c8.179 0 15.43 2.019 21.785 6.037l1.07-1.69C61.26 2.58 53.632.472 45.107.472v2zM66.893 8.51c6.346 4.013 11.314 9.856 14.892 17.575l1.814-.84C79.881 17.22 74.672 11.063 67.962 6.82l-1.069 1.69zm14.898 17.589c3.664 7.61 5.517 16.767 5.517 27.502h2c0-10.96-1.891-20.428-5.715-28.37l-1.802.868zM87.308 53.6c0 10.735-1.853 19.941-5.52 27.65l1.807.86c3.821-8.035 5.713-17.549 5.713-28.51h-2zm-5.522 27.655c-3.576 7.624-8.543 13.42-14.893 17.436l1.07 1.69c6.706-4.24 11.915-10.348 15.634-18.276l-1.81-.85zM66.894 98.691c-6.355 4.018-13.606 6.037-21.785 6.037v2c8.525 0 16.153-2.109 22.854-6.347l-1.069-1.69zM45.108 87c6.492 0 11.602-2.82 15.237-8.372l-1.674-1.096C55.394 82.54 50.904 85 45.108 85v2zm15.23-8.362c3.718-5.527 5.498-13.928 5.498-25.038h-2c0 10.97-1.772 18.889-5.158 23.922l1.66 1.116zM65.836 53.6c0-11.11-1.78-19.511-5.498-25.038l-1.66 1.116c3.386 5.033 5.158 12.952 5.158 23.922h2zm-5.491-25.028C56.71 23.02 51.6 20.2 45.108 20.2v2c5.796 0 10.286 2.46 13.563 7.468l1.674-1.096zM45.108 20.2c-6.401 0-11.504 2.823-15.23 8.362l1.66 1.116c3.377-5.02 7.875-7.478 13.57-7.478v-2zM29.87 28.572c-3.616 5.525-5.347 13.921-5.347 25.028h2c0-10.974 1.724-18.897 5.02-23.932l-1.673-1.096zM24.524 53.6c0 11.107 1.731 19.503 5.347 25.028l1.674-1.096c-3.297-5.035-5.021-12.959-5.021-23.932h-2zm5.354 25.038C33.604 84.178 38.707 87 45.108 87v-2c-5.695 0-10.193-2.457-13.57-7.478l-1.66 1.116zm147.113 6.354h1v-1h-1v1zm0 19.008v1h1v-1h-1zm-76.177 0h-1v1h1v-1zm0-15.12l-.686-.727-.314.296v.431h1zm38.881-36.72l.686.727.004-.003-.69-.724zm8.352-10.08l.888.46.006-.013-.894-.447zm-2.016-17.712l-.635.773.015.012.015.012.605-.797zm-23.904-.72l.417.909.01-.005.01-.005-.437-.899zm-8.928 7.488l-.542.84.801.517.554-.776-.813-.581zM96.207 20.192l-.83-.558-.57.846.858.553.541-.841zm16.272-13.68l.427.904.01-.005-.437-.899zm43.344-1.296l-.41.912.01.005.009.004.391-.921zm13.104 10.368l-.827.563.007.01.007.01.813-.583zm1.296 31.104l.901.433-.901-.433zm-13.392 16.416l-.681-.733-.006.006.687.727zm-23.184 21.888l-.687-.727-1.829 1.727h2.516v-1zm42.344 0V104h2V84.992h-2zm1 18.008h-76.177v2h76.177v-2zm-75.177 1V88.88h-2V104h2zm-.313-14.393l38.88-36.72-1.373-1.454-38.88 36.72 1.373 1.454zm38.884-36.723c4.153-3.96 7.033-7.412 8.55-10.345l-1.777-.918c-1.363 2.635-4.051 5.904-8.154 9.815l1.381 1.448zm8.556-10.357c1.498-2.997 2.266-5.981 2.266-8.943h-2c0 2.606-.673 5.286-2.055 8.049l1.789.894zm2.266-8.943c0-4.29-1.498-7.68-4.572-10.013l-1.209 1.594c2.494 1.892 3.781 4.645 3.781 8.419h2zm-4.542-9.989c-2.939-2.414-7.19-3.539-12.587-3.539v2c5.164 0 8.881 1.083 11.318 3.085l1.269-1.546zm-12.587-3.539c-4.549 0-8.685.891-12.389 2.693l.875 1.798c3.4-1.654 7.232-2.491 11.514-2.491v-2zm-12.369 2.683c-3.719 1.71-6.829 4.322-9.324 7.816l1.627 1.162c2.305-3.226 5.147-5.605 8.532-7.16l-.835-1.818zm-7.969 7.556L96.748 19.351l-1.083 1.682 16.992 10.944 1.083-1.682zM97.037 20.75c3.826-5.694 9.106-10.14 15.869-13.334l-.855-1.808c-7.061 3.334-12.63 8.008-16.675 14.026l1.66 1.116zm15.879-13.34c6.755-3.283 14.522-4.939 23.323-4.939v-2c-9.056 0-17.129 1.704-24.198 5.14l.875 1.8zm23.323-4.939c7.378 0 13.761 1.23 19.174 3.656l.819-1.825c-5.723-2.564-12.396-3.83-19.993-3.83v2zm19.193 3.665c5.511 2.335 9.717 5.676 12.668 10.01l1.653-1.126c-3.193-4.69-7.723-8.26-13.54-10.726l-.781 1.842zm12.682 10.03c3.032 4.227 4.565 9.25 4.565 15.113h2c0-6.232-1.636-11.674-4.94-16.279l-1.625 1.166zm4.565 15.113c0 5.326-1.121 10.314-3.358 14.975l1.803.866c2.371-4.94 3.555-10.224 3.555-15.841h-2zm-3.358 14.975c-2.225 4.635-6.583 10.006-13.171 16.116l1.361 1.466c6.66-6.178 11.23-11.75 13.613-16.716l-1.803-.866zm-13.177 16.122L132.96 84.265l1.373 1.454 23.184-21.888-1.373-1.454zm-22.497 23.615h43.344v-2h-43.344v2z" fill="#2737A7"/><path d="M22.788 99.536l.534-.845-.534.845zM7.38 81.68l-.907.42.003.007.003.007.9-.434zm0-56.016l-.903-.43-.002.005.905.425zm15.408-18l.534.845-.534-.845zm44.64 0l-.535.845.535-.845zm15.264 18l-.907.42.003.007.003.007.9-.434zm0 56.016l-.903-.43-.002.005.905.425zM67.428 99.536l-.535-.845.535.845zm-7.92-21.456l-.83-.558-.007.01.837.548zm0-48.96l-.837.548.007.01.83-.558zm-28.8 0l-.83-.558-.007.01.837.548zm0 48.96l-.837.548.007.01.83-.558zm14.4 26.648c-8.179 0-15.43-2.019-21.786-6.037l-1.069 1.69c6.701 4.238 14.33 6.347 22.855 6.347v-2zm-21.786-6.037c-6.351-4.017-11.369-9.817-15.041-17.445l-1.802.868c3.815 7.924 9.07 14.028 15.774 18.267l1.07-1.69zM8.287 81.26c-3.573-7.712-5.38-16.922-5.38-27.66h-2c0 10.958 1.843 20.468 5.566 28.5l1.814-.84zM2.907 53.6c0-10.739 1.807-19.898 5.378-27.511l-1.81-.85C2.75 33.18.908 42.643.908 53.6h2zm5.376-27.507c3.674-7.724 8.69-13.57 15.04-17.584l-1.07-1.69C15.546 11.06 10.291 17.214 6.477 25.235l1.806.858zM23.323 8.51c6.354-4.018 13.606-6.037 21.785-6.037v-2c-8.525 0-16.154 2.11-22.855 6.347l1.07 1.69zm21.785-6.037c8.179 0 15.43 2.019 21.785 6.037l1.07-1.69C61.26 2.58 53.632.472 45.107.472v2zM66.893 8.51c6.346 4.013 11.314 9.856 14.892 17.575l1.814-.84C79.881 17.22 74.672 11.063 67.962 6.82l-1.069 1.69zm14.898 17.589c3.664 7.61 5.517 16.767 5.517 27.502h2c0-10.96-1.891-20.428-5.715-28.37l-1.802.868zM87.308 53.6c0 10.735-1.853 19.941-5.52 27.65l1.807.86c3.821-8.035 5.713-17.549 5.713-28.51h-2zm-5.522 27.655c-3.576 7.624-8.543 13.42-14.893 17.436l1.07 1.69c6.706-4.24 11.915-10.348 15.634-18.276l-1.81-.85zM66.894 98.691c-6.355 4.018-13.606 6.037-21.785 6.037v2c8.525 0 16.153-2.109 22.854-6.347l-1.069-1.69zM45.108 87c6.492 0 11.602-2.82 15.237-8.372l-1.674-1.096C55.394 82.54 50.904 85 45.108 85v2zm15.23-8.362c3.718-5.527 5.498-13.928 5.498-25.038h-2c0 10.97-1.772 18.889-5.158 23.922l1.66 1.116zM65.836 53.6c0-11.11-1.78-19.511-5.498-25.038l-1.66 1.116c3.386 5.033 5.158 12.952 5.158 23.922h2zm-5.491-25.028C56.71 23.02 51.6 20.2 45.108 20.2v2c5.796 0 10.286 2.46 13.563 7.468l1.674-1.096zM45.108 20.2c-6.401 0-11.504 2.823-15.23 8.362l1.66 1.116c3.377-5.02 7.875-7.478 13.57-7.478v-2zM29.87 28.572c-3.616 5.525-5.347 13.921-5.347 25.028h2c0-10.974 1.724-18.897 5.02-23.932l-1.673-1.096zM24.524 53.6c0 11.107 1.731 19.503 5.347 25.028l1.674-1.096c-3.297-5.035-5.021-12.959-5.021-23.932h-2zm5.354 25.038C33.604 84.178 38.707 87 45.108 87v-2c-5.695 0-10.193-2.457-13.57-7.478l-1.66 1.116zm147.113 6.354h1v-1h-1v1zm0 19.008v1h1v-1h-1zm-76.177 0h-1v1h1v-1zm0-15.12l-.686-.727-.314.296v.431h1zm38.881-36.72l.686.727.004-.003-.69-.724zm8.352-10.08l.888.46.006-.013-.894-.447zm-2.016-17.712l-.635.773.015.012.015.012.605-.797zm-23.904-.72l.417.909.01-.005.01-.005-.437-.899zm-8.928 7.488l-.542.84.801.517.554-.776-.813-.581zM96.207 20.192l-.83-.558-.57.846.858.553.541-.841zm16.272-13.68l.427.904.01-.005-.437-.899zm43.344-1.296l-.41.912.01.005.009.004.391-.921zm13.104 10.368l-.827.563.007.01.007.01.813-.583zm1.296 31.104l.901.433-.901-.433zm-13.392 16.416l-.681-.733-.006.006.687.727zm-23.184 21.888l-.687-.727-1.829 1.727h2.516v-1zm42.344 0V104h2V84.992h-2zm1 18.008h-76.177v2h76.177v-2zm-75.177 1V88.88h-2V104h2zm-.313-14.393l38.88-36.72-1.373-1.454-38.88 36.72 1.373 1.454zm38.884-36.723c4.153-3.96 7.033-7.412 8.55-10.345l-1.777-.918c-1.363 2.635-4.051 5.904-8.154 9.815l1.381 1.448zm8.556-10.357c1.498-2.997 2.266-5.981 2.266-8.943h-2c0 2.606-.673 5.286-2.055 8.049l1.789.894zm2.266-8.943c0-4.29-1.498-7.68-4.572-10.013l-1.209 1.594c2.494 1.892 3.781 4.645 3.781 8.419h2zm-4.542-9.989c-2.939-2.414-7.19-3.539-12.587-3.539v2c5.164 0 8.881 1.083 11.318 3.085l1.269-1.546zm-12.587-3.539c-4.549 0-8.685.891-12.389 2.693l.875 1.798c3.4-1.654 7.232-2.491 11.514-2.491v-2zm-12.369 2.683c-3.719 1.71-6.829 4.322-9.324 7.816l1.627 1.162c2.305-3.226 5.147-5.605 8.532-7.16l-.835-1.818zm-7.969 7.556L96.748 19.351l-1.083 1.682 16.992 10.944 1.083-1.682zM97.037 20.75c3.826-5.694 9.106-10.14 15.869-13.334l-.855-1.808c-7.061 3.334-12.63 8.008-16.675 14.026l1.66 1.116zm15.879-13.34c6.755-3.283 14.522-4.939 23.323-4.939v-2c-9.056 0-17.129 1.704-24.198 5.14l.875 1.8zm23.323-4.939c7.378 0 13.761 1.23 19.174 3.656l.819-1.825c-5.723-2.564-12.396-3.83-19.993-3.83v2zm19.193 3.665c5.511 2.335 9.717 5.676 12.668 10.01l1.653-1.126c-3.193-4.69-7.723-8.26-13.54-10.726l-.781 1.842zm12.682 10.03c3.032 4.227 4.565 9.25 4.565 15.113h2c0-6.232-1.636-11.674-4.94-16.279l-1.625 1.166zm4.565 15.113c0 5.326-1.121 10.314-3.358 14.975l1.803.866c2.371-4.94 3.555-10.224 3.555-15.841h-2zm-3.358 14.975c-2.225 4.635-6.583 10.006-13.171 16.116l1.361 1.466c6.66-6.178 11.23-11.75 13.613-16.716l-1.803-.866zm-13.177 16.122L132.96 84.265l1.373 1.454 23.184-21.888-1.373-1.454zm-22.497 23.615h43.344v-2h-43.344v2z" fill="url(#paint0_linear)"/></g><defs><linearGradient id="paint0_linear" x1="37.5" y1="-36" x2="37.5" y2="140" gradientUnits="userSpaceOnUse"><stop stop-color="#fff" stop-opacity="0"/><stop offset="1" stop-color="#fff"/></linearGradient></defs></svg>