<svg width="176" height="107" fill="none" xmlns="http://www.w3.org/2000/svg"><g opacity=".2"><path d="M22.07 99.536l.534-.845-.535.845zM6.66 81.68l-.907.42.003.007.003.007.901-.434zm0-56.016l-.903-.43-.002.005.905.425zm15.408-18l.535.845-.535-.845zm44.64 0l-.534.845.534-.845zm15.264 18l-.907.42.003.007.003.007.901-.434zm0 56.016l-.903-.43-.002.005.905.425zM66.71 99.536l-.534-.845.534.845zM58.79 78.08l-.83-.558-.007.01.837.548zm0-48.96l-.837.548.007.01.83-.558zm-28.8 0l-.83-.558-.007.01.837.548zm0 48.96l-.837.548.007.01.83-.558zm14.4 26.648c-8.179 0-15.43-2.019-21.785-6.037l-1.07 1.69c6.702 4.238 14.33 6.347 22.855 6.347v-2zm-21.785-6.037c-6.352-4.017-11.37-9.817-15.042-17.445l-1.802.868c3.816 7.924 9.07 14.028 15.775 18.267l1.069-1.69zM7.568 81.26C3.995 73.547 2.19 64.338 2.19 53.6h-2c0 10.958 1.842 20.468 5.565 28.5l1.814-.84zM2.19 53.6c0-10.739 1.806-19.898 5.377-27.511l-1.81-.85C2.03 33.18.189 42.643.189 53.6h2zm5.375-27.507c3.674-7.724 8.691-13.57 15.04-17.584l-1.07-1.69C14.828 11.06 9.573 17.214 5.759 25.235l1.806.858zM22.604 8.51c6.355-4.018 13.606-6.037 21.785-6.037v-2c-8.525 0-16.153 2.11-22.854 6.347l1.069 1.69zm21.785-6.037c8.179 0 15.43 2.019 21.786 6.037l1.069-1.69C60.543 2.58 52.914.472 44.389.472v2zM66.175 8.51c6.346 4.013 11.313 9.856 14.89 17.575l1.815-.84C79.162 17.22 73.954 11.063 67.244 6.82l-1.07 1.69zm14.897 17.589c3.664 7.61 5.517 16.767 5.517 27.502h2c0-10.96-1.891-20.428-5.715-28.37l-1.802.868zM86.59 53.6c0 10.735-1.852 19.941-5.519 27.65l1.806.86c3.822-8.035 5.713-17.549 5.713-28.51h-2zm-5.521 27.655c-3.577 7.624-8.544 13.42-14.893 17.436l1.069 1.69c6.707-4.24 11.915-10.348 15.634-18.276l-1.81-.85zM66.175 98.691c-6.355 4.018-13.607 6.037-21.786 6.037v2c8.525 0 16.154-2.109 22.855-6.347l-1.07-1.69zM44.389 87c6.492 0 11.602-2.82 15.237-8.372l-1.674-1.096C54.675 82.54 50.185 85 44.39 85v2zm15.23-8.362c3.718-5.527 5.498-13.928 5.498-25.038h-2c0 10.97-1.772 18.889-5.158 23.922l1.66 1.116zM65.117 53.6c0-11.11-1.78-19.511-5.498-25.038l-1.66 1.116c3.386 5.033 5.158 12.952 5.158 23.922h2zm-5.491-25.028C55.99 23.02 50.88 20.2 44.389 20.2v2c5.796 0 10.286 2.46 13.563 7.468l1.674-1.096zM44.389 20.2c-6.4 0-11.503 2.823-15.23 8.362l1.66 1.116c3.378-5.02 7.875-7.478 13.57-7.478v-2zm-15.237 8.372c-3.616 5.525-5.347 13.921-5.347 25.028h2c0-10.974 1.725-18.897 5.02-23.932l-1.673-1.096zM23.805 53.6c0 11.107 1.732 19.503 5.347 25.028l1.674-1.096c-3.296-5.035-5.02-12.959-5.02-23.932h-2zm5.354 25.038C32.886 84.178 37.99 87 44.39 87v-2c-5.695 0-10.192-2.457-13.57-7.478l-1.66 1.116zM147.485 44.24l-.751-.66-1.191 1.357 1.781.29.161-.987zm20.304 9.936l-.74.672.006.007.734-.679zm2.448 35.28l.847.531.005-.007-.852-.524zm-14.112 11.808l-.425-.905-.005.002.43.903zm-44.064 1.728l-.271.963.008.002.008.002.255-.967zm-17.424-8.064l-.891-.453-.388.764.695.5.584-.811zm9.072-17.856l.6-.8-.952-.714-.539 1.061.891.453zm13.248 6.768l-.31.95.01.004.011.003.289-.957zm29.376-1.008l.549.836.009-.006.008-.005-.566-.825zM121.853 60.8h-1v1h1v-1zm0-15.408l-.749-.662-.251.284v.378h1zm20.736-23.472l.75.662 1.468-1.662h-2.218v1zm-42.912 0h-1v1h1v-1zm0-18.72v-1h-1v1h1zm70.56 0h1v-1h-1v1zm0 15.12l.752.66.248-.283v-.377h-1zm-22.913 26.907c8.672 1.414 15.211 4.646 19.725 9.621l1.481-1.344c-4.894-5.393-11.892-8.785-20.884-10.251l-.322 1.974zm19.731 9.628c4.516 4.885 6.79 10.97 6.79 18.329h2c0-7.81-2.43-14.396-7.321-19.687l-1.469 1.358zm6.79 18.329c0 5.67-1.484 10.913-4.459 15.748l1.703 1.048c3.169-5.15 4.756-10.755 4.756-16.796h-2zm-4.455 15.74c-2.95 4.703-7.491 8.523-13.69 11.435l.85 1.81c6.473-3.04 11.341-7.092 14.534-12.181l-1.694-1.064zm-13.695 11.437c-6.07 2.895-13.593 4.367-22.61 4.367v2c9.224 0 17.061-1.504 23.471-4.561l-.861-1.806zm-22.61 4.367a81.076 81.076 0 01-20.769-2.703l-.51 1.934a83.058 83.058 0 0021.279 2.769v-2zm-20.753-2.699c-6.725-1.894-12.422-4.537-17.11-7.912l-1.17 1.623c4.912 3.536 10.831 6.269 17.738 8.215l.542-1.926zm-16.803-6.648l9.072-17.856-1.783-.906-9.072 17.856 1.783.906zm7.58-17.509c3.936 2.951 8.451 5.256 13.538 6.918l.621-1.9c-4.898-1.602-9.214-3.81-12.959-6.618l-1.2 1.6zm13.559 6.925a54.532 54.532 0 0015.841 2.347v-2a52.532 52.532 0 01-15.263-2.261l-.578 1.914zm15.841 2.347c5.967 0 10.792-1.123 14.373-3.476l-1.098-1.672c-3.138 2.063-7.529 3.148-13.275 3.148v2zm14.39-3.487c3.636-2.494 5.474-6.02 5.474-10.473h-2c0 3.803-1.522 6.709-4.605 8.823l1.131 1.65zm5.474-10.473c0-4.426-1.71-7.855-5.167-10.124-3.383-2.221-8.331-3.26-14.697-3.26v2c6.211 0 10.695 1.025 13.599 2.932 2.832 1.859 4.265 4.622 4.265 8.452h2zM132.509 59.8h-10.656v2h10.656v-2zm-9.656 1V45.392h-2V60.8h2zm-.25-14.746l20.736-23.472-1.499-1.324-20.736 23.472 1.499 1.324zm19.986-25.134H99.677v2h42.912v-2zm-41.912 1V3.2h-2v18.72h2zm-1-17.72h70.56v-2h-70.56v2zm69.56-1v15.12h2V3.2h-2zm.249 14.46l-22.752 25.92 1.503 1.32 22.752-25.92-1.503-1.32z" fill="#2737A7"/><path d="M22.07 99.536l.534-.845-.535.845zM6.66 81.68l-.907.42.003.007.003.007.901-.434zm0-56.016l-.903-.43-.002.005.905.425zm15.408-18l.535.845-.535-.845zm44.64 0l-.534.845.534-.845zm15.264 18l-.907.42.003.007.003.007.901-.434zm0 56.016l-.903-.43-.002.005.905.425zM66.71 99.536l-.534-.845.534.845zM58.79 78.08l-.83-.558-.007.01.837.548zm0-48.96l-.837.548.007.01.83-.558zm-28.8 0l-.83-.558-.007.01.837.548zm0 48.96l-.837.548.007.01.83-.558zm14.4 26.648c-8.179 0-15.43-2.019-21.785-6.037l-1.07 1.69c6.702 4.238 14.33 6.347 22.855 6.347v-2zm-21.785-6.037c-6.352-4.017-11.37-9.817-15.042-17.445l-1.802.868c3.816 7.924 9.07 14.028 15.775 18.267l1.069-1.69zM7.568 81.26C3.995 73.547 2.19 64.338 2.19 53.6h-2c0 10.958 1.842 20.468 5.565 28.5l1.814-.84zM2.19 53.6c0-10.739 1.806-19.898 5.377-27.511l-1.81-.85C2.03 33.18.189 42.643.189 53.6h2zm5.375-27.507c3.674-7.724 8.691-13.57 15.04-17.584l-1.07-1.69C14.828 11.06 9.573 17.214 5.759 25.235l1.806.858zM22.604 8.51c6.355-4.018 13.606-6.037 21.785-6.037v-2c-8.525 0-16.153 2.11-22.854 6.347l1.069 1.69zm21.785-6.037c8.179 0 15.43 2.019 21.786 6.037l1.069-1.69C60.543 2.58 52.914.472 44.389.472v2zM66.175 8.51c6.346 4.013 11.313 9.856 14.89 17.575l1.815-.84C79.162 17.22 73.954 11.063 67.244 6.82l-1.07 1.69zm14.897 17.589c3.664 7.61 5.517 16.767 5.517 27.502h2c0-10.96-1.891-20.428-5.715-28.37l-1.802.868zM86.59 53.6c0 10.735-1.852 19.941-5.519 27.65l1.806.86c3.822-8.035 5.713-17.549 5.713-28.51h-2zm-5.521 27.655c-3.577 7.624-8.544 13.42-14.893 17.436l1.069 1.69c6.707-4.24 11.915-10.348 15.634-18.276l-1.81-.85zM66.175 98.691c-6.355 4.018-13.607 6.037-21.786 6.037v2c8.525 0 16.154-2.109 22.855-6.347l-1.07-1.69zM44.389 87c6.492 0 11.602-2.82 15.237-8.372l-1.674-1.096C54.675 82.54 50.185 85 44.39 85v2zm15.23-8.362c3.718-5.527 5.498-13.928 5.498-25.038h-2c0 10.97-1.772 18.889-5.158 23.922l1.66 1.116zM65.117 53.6c0-11.11-1.78-19.511-5.498-25.038l-1.66 1.116c3.386 5.033 5.158 12.952 5.158 23.922h2zm-5.491-25.028C55.99 23.02 50.88 20.2 44.389 20.2v2c5.796 0 10.286 2.46 13.563 7.468l1.674-1.096zM44.389 20.2c-6.4 0-11.503 2.823-15.23 8.362l1.66 1.116c3.378-5.02 7.875-7.478 13.57-7.478v-2zm-15.237 8.372c-3.616 5.525-5.347 13.921-5.347 25.028h2c0-10.974 1.725-18.897 5.02-23.932l-1.673-1.096zM23.805 53.6c0 11.107 1.732 19.503 5.347 25.028l1.674-1.096c-3.296-5.035-5.02-12.959-5.02-23.932h-2zm5.354 25.038C32.886 84.178 37.99 87 44.39 87v-2c-5.695 0-10.192-2.457-13.57-7.478l-1.66 1.116zM147.485 44.24l-.751-.66-1.191 1.357 1.781.29.161-.987zm20.304 9.936l-.74.672.006.007.734-.679zm2.448 35.28l.847.531.005-.007-.852-.524zm-14.112 11.808l-.425-.905-.005.002.43.903zm-44.064 1.728l-.271.963.008.002.008.002.255-.967zm-17.424-8.064l-.891-.453-.388.764.695.5.584-.811zm9.072-17.856l.6-.8-.952-.714-.539 1.061.891.453zm13.248 6.768l-.31.95.01.004.011.003.289-.957zm29.376-1.008l.549.836.009-.006.008-.005-.566-.825zM121.853 60.8h-1v1h1v-1zm0-15.408l-.749-.662-.251.284v.378h1zm20.736-23.472l.75.662 1.468-1.662h-2.218v1zm-42.912 0h-1v1h1v-1zm0-18.72v-1h-1v1h1zm70.56 0h1v-1h-1v1zm0 15.12l.752.66.248-.283v-.377h-1zm-22.913 26.907c8.672 1.414 15.211 4.646 19.725 9.621l1.481-1.344c-4.894-5.393-11.892-8.785-20.884-10.251l-.322 1.974zm19.731 9.628c4.516 4.885 6.79 10.97 6.79 18.329h2c0-7.81-2.43-14.396-7.321-19.687l-1.469 1.358zm6.79 18.329c0 5.67-1.484 10.913-4.459 15.748l1.703 1.048c3.169-5.15 4.756-10.755 4.756-16.796h-2zm-4.455 15.74c-2.95 4.703-7.491 8.523-13.69 11.435l.85 1.81c6.473-3.04 11.341-7.092 14.534-12.181l-1.694-1.064zm-13.695 11.437c-6.07 2.895-13.593 4.367-22.61 4.367v2c9.224 0 17.061-1.504 23.471-4.561l-.861-1.806zm-22.61 4.367a81.076 81.076 0 01-20.769-2.703l-.51 1.934a83.058 83.058 0 0021.279 2.769v-2zm-20.753-2.699c-6.725-1.894-12.422-4.537-17.11-7.912l-1.17 1.623c4.912 3.536 10.831 6.269 17.738 8.215l.542-1.926zm-16.803-6.648l9.072-17.856-1.783-.906-9.072 17.856 1.783.906zm7.58-17.509c3.936 2.951 8.451 5.256 13.538 6.918l.621-1.9c-4.898-1.602-9.214-3.81-12.959-6.618l-1.2 1.6zm13.559 6.925a54.532 54.532 0 0015.841 2.347v-2a52.532 52.532 0 01-15.263-2.261l-.578 1.914zm15.841 2.347c5.967 0 10.792-1.123 14.373-3.476l-1.098-1.672c-3.138 2.063-7.529 3.148-13.275 3.148v2zm14.39-3.487c3.636-2.494 5.474-6.02 5.474-10.473h-2c0 3.803-1.522 6.709-4.605 8.823l1.131 1.65zm5.474-10.473c0-4.426-1.71-7.855-5.167-10.124-3.383-2.221-8.331-3.26-14.697-3.26v2c6.211 0 10.695 1.025 13.599 2.932 2.832 1.859 4.265 4.622 4.265 8.452h2zM132.509 59.8h-10.656v2h10.656v-2zm-9.656 1V45.392h-2V60.8h2zm-.25-14.746l20.736-23.472-1.499-1.324-20.736 23.472 1.499 1.324zm19.986-25.134H99.677v2h42.912v-2zm-41.912 1V3.2h-2v18.72h2zm-1-17.72h70.56v-2h-70.56v2zm69.56-1v15.12h2V3.2h-2zm.249 14.46l-22.752 25.92 1.503 1.32 22.752-25.92-1.503-1.32z" fill="url(#paint0_linear)"/></g><defs><linearGradient id="paint0_linear" x1="50" y1="-36" x2="50" y2="140" gradientUnits="userSpaceOnUse"><stop stop-color="#fff" stop-opacity="0"/><stop offset="1" stop-color="#fff"/></linearGradient></defs></svg>