<svg width="196" height="107" fill="none" xmlns="http://www.w3.org/2000/svg"><g opacity=".2"><path d="M22.6 99.536l.535-.845-.535.845zM7.192 81.68l-.907.42.003.007.003.007.901-.434zm0-56.016l-.903-.43-.002.005.905.425zm15.408-18l.535.845-.535-.845zm44.64 0l-.534.845.534-.845zm15.264 18l-.907.42.003.007.003.007.901-.434zm0 56.016l-.903-.43-.002.005.905.425zM67.24 99.536l-.534-.845.534.845zM59.32 78.08l-.83-.558-.006.01.836.548zm0-48.96l-.836.548.007.01.83-.558zm-28.8 0l-.83-.558-.006.01.836.548zm0 48.96l-.836.548.007.01.83-.558zm14.4 26.648c-8.178 0-15.43-2.019-21.785-6.037l-1.07 1.69c6.702 4.238 14.33 6.347 22.855 6.347v-2zm-21.785-6.037c-6.352-4.017-11.37-9.817-15.042-17.445l-1.802.868c3.816 7.924 9.07 14.028 15.775 18.267l1.069-1.69zM8.1 81.26C4.526 73.547 2.72 64.338 2.72 53.6h-2c0 10.958 1.843 20.468 5.565 28.5l1.815-.84zM2.72 53.6c0-10.739 1.806-19.898 5.378-27.511l-1.811-.85C2.563 33.18.72 42.643.72 53.6h2zm5.375-27.507c3.674-7.724 8.691-13.57 15.04-17.584l-1.07-1.69C15.359 11.06 10.105 17.214 6.29 25.235l1.806.858zM23.135 8.51C29.49 4.491 36.742 2.472 44.92 2.472v-2c-8.525 0-16.153 2.11-22.854 6.347l1.069 1.69zM44.92 2.472c8.18 0 15.43 2.019 21.786 6.037l1.069-1.69C61.074 2.58 53.445.472 44.92.472v2zm21.786 6.037c6.346 4.013 11.314 9.856 14.891 17.575l1.815-.84c-3.719-8.025-8.927-14.182-15.637-18.425l-1.07 1.69zm14.897 17.589c3.665 7.61 5.517 16.767 5.517 27.502h2c0-10.96-1.89-20.428-5.715-28.37l-1.802.868zM87.12 53.6c0 10.735-1.852 19.941-5.519 27.65l1.806.86c3.823-8.035 5.713-17.55 5.713-28.51h-2zM81.6 81.255c-3.576 7.624-8.544 13.42-14.893 17.436l1.069 1.69c6.707-4.24 11.915-10.348 15.635-18.276l-1.811-.85zM66.706 98.691c-6.355 4.018-13.607 6.037-21.786 6.037v2c8.526 0 16.154-2.109 22.855-6.347l-1.07-1.69zM44.92 87c6.493 0 11.602-2.82 15.237-8.372l-1.673-1.096C55.206 82.54 50.716 85 44.92 85v2zm15.23-8.362c3.718-5.527 5.498-13.928 5.498-25.038h-2c0 10.97-1.771 18.889-5.157 23.922l1.66 1.116zM65.648 53.6c0-11.11-1.78-19.511-5.498-25.038l-1.66 1.116c3.387 5.033 5.158 12.952 5.158 23.922h2zm-5.49-25.028C56.521 23.02 51.412 20.2 44.92 20.2v2c5.796 0 10.286 2.46 13.564 7.468l1.673-1.096zM44.92 20.2c-6.4 0-11.503 2.823-15.23 8.362l1.66 1.116c3.378-5.02 7.875-7.478 13.57-7.478v-2zm-15.236 8.372c-3.616 5.525-5.348 13.921-5.348 25.028h2c0-10.974 1.725-18.897 5.021-23.932l-1.673-1.096zM24.336 53.6c0 11.107 1.732 19.503 5.348 25.028l1.673-1.096c-3.296-5.035-5.02-12.959-5.02-23.932h-2zm5.355 25.038C33.417 84.178 38.519 87 44.92 87v-2c-5.696 0-10.193-2.457-13.57-7.478l-1.66 1.116zm164.948 4.194v1h1v-1h-1zm-16.416 0v-1h-1v1h1zm0 21.168v1h1v-1h-1zm-22.752 0h-1v1h1v-1zm0-21.168h1v-1h-1v1zm-54.288 0h-1v1h1v-1zm0-15.696l-.803-.596-.197.265v.331h1zM148.703 3.2v-1h-.503l-.3.403.803.597zm24.48 0l.809.588 1.154-1.588h-1.963v1zm-44.064 60.624l-.809-.588-1.154 1.588h1.963v-1zm27.072 0v1h1v-1h-1zm0-18.864v-1h-1v1h1zm22.032 0h1v-1h-1v1zm0 18.864h-1v1h1v-1zm16.416 0h1v-1h-1v1zm0 18.008h-16.416v2h16.416v-2zm-17.416 1V104h2V82.832h-2zm1 20.168h-22.752v2h22.752v-2zm-21.752 1V82.832h-2V104h2zm-1-22.168h-54.288v2h54.288v-2zm-53.288 1V67.136h-2v15.696h2zm-.198-15.1l47.52-63.935-1.605-1.194-47.52 63.937 1.605 1.192zM148.703 4.2h24.48v-2h-24.48v2zm23.671-1.588L128.31 63.236l1.618 1.176 44.064-60.624-1.618-1.176zm-43.255 62.212h27.072v-2h-27.072v2zm28.072-1V44.96h-2v18.864h2zm-1-17.864h22.032v-2h-22.032v2zm21.032-1v18.864h2V44.96h-2zm1 19.864h16.416v-2h-16.416v2zm15.416-1v19.008h2V63.824h-2z" fill="#2737A7"/><path d="M22.6 99.536l.535-.845-.535.845zM7.192 81.68l-.907.42.003.007.003.007.901-.434zm0-56.016l-.903-.43-.002.005.905.425zm15.408-18l.535.845-.535-.845zm44.64 0l-.534.845.534-.845zm15.264 18l-.907.42.003.007.003.007.901-.434zm0 56.016l-.903-.43-.002.005.905.425zM67.24 99.536l-.534-.845.534.845zM59.32 78.08l-.83-.558-.006.01.836.548zm0-48.96l-.836.548.007.01.83-.558zm-28.8 0l-.83-.558-.006.01.836.548zm0 48.96l-.836.548.007.01.83-.558zm14.4 26.648c-8.178 0-15.43-2.019-21.785-6.037l-1.07 1.69c6.702 4.238 14.33 6.347 22.855 6.347v-2zm-21.785-6.037c-6.352-4.017-11.37-9.817-15.042-17.445l-1.802.868c3.816 7.924 9.07 14.028 15.775 18.267l1.069-1.69zM8.1 81.26C4.526 73.547 2.72 64.338 2.72 53.6h-2c0 10.958 1.843 20.468 5.565 28.5l1.815-.84zM2.72 53.6c0-10.739 1.806-19.898 5.378-27.511l-1.811-.85C2.563 33.18.72 42.643.72 53.6h2zm5.375-27.507c3.674-7.724 8.691-13.57 15.04-17.584l-1.07-1.69C15.359 11.06 10.105 17.214 6.29 25.235l1.806.858zM23.135 8.51C29.49 4.491 36.742 2.472 44.92 2.472v-2c-8.525 0-16.153 2.11-22.854 6.347l1.069 1.69zM44.92 2.472c8.18 0 15.43 2.019 21.786 6.037l1.069-1.69C61.074 2.58 53.445.472 44.92.472v2zm21.786 6.037c6.346 4.013 11.314 9.856 14.891 17.575l1.815-.84c-3.719-8.025-8.927-14.182-15.637-18.425l-1.07 1.69zm14.897 17.589c3.665 7.61 5.517 16.767 5.517 27.502h2c0-10.96-1.89-20.428-5.715-28.37l-1.802.868zM87.12 53.6c0 10.735-1.852 19.941-5.519 27.65l1.806.86c3.823-8.035 5.713-17.55 5.713-28.51h-2zM81.6 81.255c-3.576 7.624-8.544 13.42-14.893 17.436l1.069 1.69c6.707-4.24 11.915-10.348 15.635-18.276l-1.811-.85zM66.706 98.691c-6.355 4.018-13.607 6.037-21.786 6.037v2c8.526 0 16.154-2.109 22.855-6.347l-1.07-1.69zM44.92 87c6.493 0 11.602-2.82 15.237-8.372l-1.673-1.096C55.206 82.54 50.716 85 44.92 85v2zm15.23-8.362c3.718-5.527 5.498-13.928 5.498-25.038h-2c0 10.97-1.771 18.889-5.157 23.922l1.66 1.116zM65.648 53.6c0-11.11-1.78-19.511-5.498-25.038l-1.66 1.116c3.387 5.033 5.158 12.952 5.158 23.922h2zm-5.49-25.028C56.521 23.02 51.412 20.2 44.92 20.2v2c5.796 0 10.286 2.46 13.564 7.468l1.673-1.096zM44.92 20.2c-6.4 0-11.503 2.823-15.23 8.362l1.66 1.116c3.378-5.02 7.875-7.478 13.57-7.478v-2zm-15.236 8.372c-3.616 5.525-5.348 13.921-5.348 25.028h2c0-10.974 1.725-18.897 5.021-23.932l-1.673-1.096zM24.336 53.6c0 11.107 1.732 19.503 5.348 25.028l1.673-1.096c-3.296-5.035-5.02-12.959-5.02-23.932h-2zm5.355 25.038C33.417 84.178 38.519 87 44.92 87v-2c-5.696 0-10.193-2.457-13.57-7.478l-1.66 1.116zm164.948 4.194v1h1v-1h-1zm-16.416 0v-1h-1v1h1zm0 21.168v1h1v-1h-1zm-22.752 0h-1v1h1v-1zm0-21.168h1v-1h-1v1zm-54.288 0h-1v1h1v-1zm0-15.696l-.803-.596-.197.265v.331h1zM148.703 3.2v-1h-.503l-.3.403.803.597zm24.48 0l.809.588 1.154-1.588h-1.963v1zm-44.064 60.624l-.809-.588-1.154 1.588h1.963v-1zm27.072 0v1h1v-1h-1zm0-18.864v-1h-1v1h1zm22.032 0h1v-1h-1v1zm0 18.864h-1v1h1v-1zm16.416 0h1v-1h-1v1zm0 18.008h-16.416v2h16.416v-2zm-17.416 1V104h2V82.832h-2zm1 20.168h-22.752v2h22.752v-2zm-21.752 1V82.832h-2V104h2zm-1-22.168h-54.288v2h54.288v-2zm-53.288 1V67.136h-2v15.696h2zm-.198-15.1l47.52-63.935-1.605-1.194-47.52 63.937 1.605 1.192zM148.703 4.2h24.48v-2h-24.48v2zm23.671-1.588L128.31 63.236l1.618 1.176 44.064-60.624-1.618-1.176zm-43.255 62.212h27.072v-2h-27.072v2zm28.072-1V44.96h-2v18.864h2zm-1-17.864h22.032v-2h-22.032v2zm21.032-1v18.864h2V44.96h-2zm1 19.864h16.416v-2h-16.416v2zm15.416-1v19.008h2V63.824h-2z" fill="url(#paint0_linear)"/></g><defs><linearGradient id="paint0_linear" x1="14" y1="-36" x2="14" y2="140" gradientUnits="userSpaceOnUse"><stop stop-color="#fff" stop-opacity="0"/><stop offset="1" stop-color="#fff"/></linearGradient></defs></svg>