<svg width="180" height="107" fill="none" xmlns="http://www.w3.org/2000/svg"><g opacity=".2"><path d="M22.241 99.536l.535-.845-.535.845zM6.833 81.68l-.907.42.003.007.003.007.901-.434zm0-56.016l-.903-.43-.002.005.905.425zm15.408-18l.535.845-.535-.845zm44.64 0l-.534.845.534-.845zm15.264 18l-.907.42.003.007.003.007.901-.434zm0 56.016l-.903-.43-.002.005.905.425zM66.881 99.536l-.534-.845.534.845zm-7.92-21.456l-.83-.558-.007.01.837.548zm0-48.96l-.837.548.007.01.83-.558zm-28.8 0l-.83-.558-.007.01.837.548zm0 48.96l-.837.548.007.01.83-.558zm14.4 26.648c-8.179 0-15.43-2.019-21.785-6.037l-1.07 1.69c6.701 4.238 14.33 6.347 22.855 6.347v-2zm-21.785-6.037c-6.352-4.017-11.37-9.817-15.042-17.445l-1.802.868c3.815 7.924 9.07 14.028 15.774 18.267l1.07-1.69zM7.74 81.26C4.167 73.547 2.361 64.338 2.361 53.6h-2c0 10.958 1.842 20.468 5.565 28.5l1.814-.84zM2.361 53.6c0-10.739 1.806-19.898 5.377-27.511l-1.81-.85C2.203 33.18.36 42.643.36 53.6h2zm5.375-27.507c3.674-7.724 8.691-13.57 15.04-17.584l-1.07-1.69C15 11.06 9.744 17.214 5.93 25.235l1.806.858zM22.776 8.51C29.13 4.491 36.382 2.472 44.56 2.472v-2c-8.525 0-16.154 2.11-22.855 6.347l1.07 1.69zM44.56 2.472c8.179 0 15.43 2.019 21.786 6.037l1.069-1.69C60.714 2.58 53.085.472 44.56.472v2zm21.786 6.037c6.346 4.013 11.313 9.856 14.89 17.575l1.815-.84c-3.718-8.025-8.927-14.182-15.637-18.425l-1.069 1.69zm14.897 17.589c3.664 7.61 5.517 16.767 5.517 27.502h2c0-10.96-1.891-20.428-5.715-28.37l-1.802.868zM86.761 53.6c0 10.735-1.852 19.941-5.52 27.65l1.807.86c3.822-8.035 5.713-17.549 5.713-28.51h-2zM81.24 81.255c-3.577 7.624-8.544 13.42-14.893 17.436l1.069 1.69c6.706-4.24 11.915-10.348 15.634-18.276l-1.81-.85zM66.347 98.691c-6.355 4.018-13.607 6.037-21.786 6.037v2c8.525 0 16.154-2.109 22.854-6.347l-1.069-1.69zM44.56 87c6.492 0 11.602-2.82 15.237-8.372l-1.674-1.096C54.847 82.54 50.357 85 44.561 85v2zm15.23-8.362c3.718-5.527 5.498-13.928 5.498-25.038h-2c0 10.97-1.772 18.889-5.158 23.922l1.66 1.116zM65.289 53.6c0-11.11-1.78-19.511-5.498-25.038l-1.66 1.116C61.517 34.711 63.29 42.63 63.29 53.6h2zm-5.491-25.028C56.163 23.02 51.053 20.2 44.56 20.2v2c5.796 0 10.286 2.46 13.563 7.468l1.674-1.096zM44.56 20.2c-6.401 0-11.504 2.823-15.23 8.362l1.66 1.116c3.377-5.02 7.875-7.478 13.57-7.478v-2zm-15.237 8.372c-3.616 5.525-5.347 13.921-5.347 25.028h2c0-10.974 1.725-18.897 5.02-23.932l-1.673-1.096zM23.977 53.6c0 11.107 1.731 19.503 5.347 25.028l1.674-1.096c-3.296-5.035-5.021-12.959-5.021-23.932h-2zm5.354 25.038C33.057 84.178 38.16 87 44.561 87v-2c-5.695 0-10.193-2.457-13.57-7.478l-1.66 1.116zm138.596-29.07l-.644.765.005.004.639-.769zm5.616 39.6l.852.524.004-.007-.856-.517zm-14.112 12.096l.431.903.006-.003-.437-.9zm-44.208 1.728l-.271.963.008.002.008.002.255-.967zm-17.424-8.064l-.888-.459-.396.767.7.504.584-.812zm9.216-17.856l.6-.8-.946-.71-.542 1.051.888.459zm13.248 6.768l-.31.95.008.003.008.003.294-.956zm29.232-1.152l.566.825-.566-.825zm-.288-19.44l-.538.843.01.006.528-.849zm-43.92-3.312l-.995-.091-.1 1.091h1.095v-1zM110.471 3.2v-1h-.912l-.083.909.995.091zm61.488 0h1v-1h-1v1zm0 18.72v1h1v-1h-1zm-42.048 0v-1h-.92l-.076.918.996.082zm-1.584 19.152l-.996-.082-.09 1.082h1.086v-1zm8.208 1c14.109 0 24.29 2.818 30.748 8.26l1.289-1.529c-6.983-5.885-17.729-8.731-32.037-8.731v2zm30.753 8.265c6.569 5.459 9.863 12.752 9.863 21.983h2c0-9.777-3.522-17.652-10.585-23.521l-1.278 1.538zm9.863 21.983c0 5.968-1.489 11.405-4.464 16.331l1.712 1.034c3.17-5.25 4.752-11.045 4.752-17.365h-2zm-4.459 16.324c-2.954 4.8-7.497 8.714-13.697 11.72l.873 1.8c6.472-3.138 11.337-7.288 14.527-12.472l-1.703-1.048zm-13.691 11.717c-6.069 2.895-13.639 4.367-22.754 4.367v2c9.318 0 17.203-1.504 23.615-4.561l-.861-1.806zm-22.754 4.367a81.063 81.063 0 01-20.768-2.703l-.511 1.934a83.058 83.058 0 0021.279 2.769v-2zm-20.752-2.699c-6.726-1.894-12.423-4.537-17.111-7.912l-1.169 1.623c4.911 3.536 10.83 6.269 17.737 8.215l.543-1.926zm-16.807-6.642l9.216-17.856-1.777-.918-9.216 17.856 1.777.918zm7.727-17.515c3.936 2.951 8.451 5.256 13.538 6.918l.621-1.9c-4.898-1.602-9.214-3.81-12.959-6.618l-1.2 1.6zm13.554 6.924a53.105 53.105 0 0015.702 2.348v-2a51.101 51.101 0 01-15.114-2.26l-.588 1.912zm15.702 2.348c5.974 0 10.805-1.173 14.39-3.631l-1.131-1.65c-3.135 2.15-7.52 3.281-13.259 3.281v2zm14.39-3.631c3.636-2.494 5.474-6.02 5.474-10.473h-2c0 3.803-1.521 6.709-4.605 8.823l1.131 1.65zm5.474-10.473c0-4.652-1.943-8.244-5.8-10.641l-1.056 1.698c3.247 2.019 4.856 4.955 4.856 8.943h2zm-5.789-10.635c-3.717-2.374-10.021-3.469-18.683-3.469v2c8.619 0 14.41 1.113 17.606 3.155l1.077-1.686zm-18.683-3.469h-25.776v2h25.776v-2zm-24.78 1.091l5.184-56.736-1.991-.182-5.184 56.736 1.991.182zM110.471 4.2h61.488v-2h-61.488v2zm60.488-1v18.72h2V3.2h-2zm1 17.72h-42.048v2h42.048v-2zm-43.044.918l-1.584 19.152 1.993.164 1.584-19.152-1.993-.164zm-.588 20.234h8.208v-2h-8.208v2z" fill="#2737A7"/><path d="M22.241 99.536l.535-.845-.535.845zM6.833 81.68l-.907.42.003.007.003.007.901-.434zm0-56.016l-.903-.43-.002.005.905.425zm15.408-18l.535.845-.535-.845zm44.64 0l-.534.845.534-.845zm15.264 18l-.907.42.003.007.003.007.901-.434zm0 56.016l-.903-.43-.002.005.905.425zM66.881 99.536l-.534-.845.534.845zm-7.92-21.456l-.83-.558-.007.01.837.548zm0-48.96l-.837.548.007.01.83-.558zm-28.8 0l-.83-.558-.007.01.837.548zm0 48.96l-.837.548.007.01.83-.558zm14.4 26.648c-8.179 0-15.43-2.019-21.785-6.037l-1.07 1.69c6.701 4.238 14.33 6.347 22.855 6.347v-2zm-21.785-6.037c-6.352-4.017-11.37-9.817-15.042-17.445l-1.802.868c3.815 7.924 9.07 14.028 15.774 18.267l1.07-1.69zM7.74 81.26C4.167 73.547 2.361 64.338 2.361 53.6h-2c0 10.958 1.842 20.468 5.565 28.5l1.814-.84zM2.361 53.6c0-10.739 1.806-19.898 5.377-27.511l-1.81-.85C2.203 33.18.36 42.643.36 53.6h2zm5.375-27.507c3.674-7.724 8.691-13.57 15.04-17.584l-1.07-1.69C15 11.06 9.744 17.214 5.93 25.235l1.806.858zM22.776 8.51C29.13 4.491 36.382 2.472 44.56 2.472v-2c-8.525 0-16.154 2.11-22.855 6.347l1.07 1.69zM44.56 2.472c8.179 0 15.43 2.019 21.786 6.037l1.069-1.69C60.714 2.58 53.085.472 44.56.472v2zm21.786 6.037c6.346 4.013 11.313 9.856 14.89 17.575l1.815-.84c-3.718-8.025-8.927-14.182-15.637-18.425l-1.069 1.69zm14.897 17.589c3.664 7.61 5.517 16.767 5.517 27.502h2c0-10.96-1.891-20.428-5.715-28.37l-1.802.868zM86.761 53.6c0 10.735-1.852 19.941-5.52 27.65l1.807.86c3.822-8.035 5.713-17.549 5.713-28.51h-2zM81.24 81.255c-3.577 7.624-8.544 13.42-14.893 17.436l1.069 1.69c6.706-4.24 11.915-10.348 15.634-18.276l-1.81-.85zM66.347 98.691c-6.355 4.018-13.607 6.037-21.786 6.037v2c8.525 0 16.154-2.109 22.854-6.347l-1.069-1.69zM44.56 87c6.492 0 11.602-2.82 15.237-8.372l-1.674-1.096C54.847 82.54 50.357 85 44.561 85v2zm15.23-8.362c3.718-5.527 5.498-13.928 5.498-25.038h-2c0 10.97-1.772 18.889-5.158 23.922l1.66 1.116zM65.289 53.6c0-11.11-1.78-19.511-5.498-25.038l-1.66 1.116C61.517 34.711 63.29 42.63 63.29 53.6h2zm-5.491-25.028C56.163 23.02 51.053 20.2 44.56 20.2v2c5.796 0 10.286 2.46 13.563 7.468l1.674-1.096zM44.56 20.2c-6.401 0-11.504 2.823-15.23 8.362l1.66 1.116c3.377-5.02 7.875-7.478 13.57-7.478v-2zm-15.237 8.372c-3.616 5.525-5.347 13.921-5.347 25.028h2c0-10.974 1.725-18.897 5.02-23.932l-1.673-1.096zM23.977 53.6c0 11.107 1.731 19.503 5.347 25.028l1.674-1.096c-3.296-5.035-5.021-12.959-5.021-23.932h-2zm5.354 25.038C33.057 84.178 38.16 87 44.561 87v-2c-5.695 0-10.193-2.457-13.57-7.478l-1.66 1.116zm138.596-29.07l-.644.765.005.004.639-.769zm5.616 39.6l.852.524.004-.007-.856-.517zm-14.112 12.096l.431.903.006-.003-.437-.9zm-44.208 1.728l-.271.963.008.002.008.002.255-.967zm-17.424-8.064l-.888-.459-.396.767.7.504.584-.812zm9.216-17.856l.6-.8-.946-.71-.542 1.051.888.459zm13.248 6.768l-.31.95.008.003.008.003.294-.956zm29.232-1.152l.566.825-.566-.825zm-.288-19.44l-.538.843.01.006.528-.849zm-43.92-3.312l-.995-.091-.1 1.091h1.095v-1zM110.471 3.2v-1h-.912l-.083.909.995.091zm61.488 0h1v-1h-1v1zm0 18.72v1h1v-1h-1zm-42.048 0v-1h-.92l-.076.918.996.082zm-1.584 19.152l-.996-.082-.09 1.082h1.086v-1zm8.208 1c14.109 0 24.29 2.818 30.748 8.26l1.289-1.529c-6.983-5.885-17.729-8.731-32.037-8.731v2zm30.753 8.265c6.569 5.459 9.863 12.752 9.863 21.983h2c0-9.777-3.522-17.652-10.585-23.521l-1.278 1.538zm9.863 21.983c0 5.968-1.489 11.405-4.464 16.331l1.712 1.034c3.17-5.25 4.752-11.045 4.752-17.365h-2zm-4.459 16.324c-2.954 4.8-7.497 8.714-13.697 11.72l.873 1.8c6.472-3.138 11.337-7.288 14.527-12.472l-1.703-1.048zm-13.691 11.717c-6.069 2.895-13.639 4.367-22.754 4.367v2c9.318 0 17.203-1.504 23.615-4.561l-.861-1.806zm-22.754 4.367a81.063 81.063 0 01-20.768-2.703l-.511 1.934a83.058 83.058 0 0021.279 2.769v-2zm-20.752-2.699c-6.726-1.894-12.423-4.537-17.111-7.912l-1.169 1.623c4.911 3.536 10.83 6.269 17.737 8.215l.543-1.926zm-16.807-6.642l9.216-17.856-1.777-.918-9.216 17.856 1.777.918zm7.727-17.515c3.936 2.951 8.451 5.256 13.538 6.918l.621-1.9c-4.898-1.602-9.214-3.81-12.959-6.618l-1.2 1.6zm13.554 6.924a53.105 53.105 0 0015.702 2.348v-2a51.101 51.101 0 01-15.114-2.26l-.588 1.912zm15.702 2.348c5.974 0 10.805-1.173 14.39-3.631l-1.131-1.65c-3.135 2.15-7.52 3.281-13.259 3.281v2zm14.39-3.631c3.636-2.494 5.474-6.02 5.474-10.473h-2c0 3.803-1.521 6.709-4.605 8.823l1.131 1.65zm5.474-10.473c0-4.652-1.943-8.244-5.8-10.641l-1.056 1.698c3.247 2.019 4.856 4.955 4.856 8.943h2zm-5.789-10.635c-3.717-2.374-10.021-3.469-18.683-3.469v2c8.619 0 14.41 1.113 17.606 3.155l1.077-1.686zm-18.683-3.469h-25.776v2h25.776v-2zm-24.78 1.091l5.184-56.736-1.991-.182-5.184 56.736 1.991.182zM110.471 4.2h61.488v-2h-61.488v2zm60.488-1v18.72h2V3.2h-2zm1 17.72h-42.048v2h42.048v-2zm-43.044.918l-1.584 19.152 1.993.164 1.584-19.152-1.993-.164zm-.588 20.234h8.208v-2h-8.208v2z" fill="url(#paint0_linear)"/></g><defs><linearGradient id="paint0_linear" x1="21" y1="-36" x2="21" y2="104" gradientUnits="userSpaceOnUse"><stop stop-color="#fff" stop-opacity="0"/><stop offset="1" stop-color="#fff"/></linearGradient></defs></svg>