<svg width="86" height="79" fill="none" xmlns="http://www.w3.org/2000/svg"><path d="M70.571 69.143H5.43A5.429 5.429 0 010 63.714V20.286a5.429 5.429 0 015.429-5.429H70.57A5.429 5.429 0 0176 20.286v43.428a5.429 5.429 0 01-5.429 5.429zM24.429 2.714v8.143h5.428V5.43h16.286v5.428h5.428V2.714c0-1.5-1.214-2.714-2.714-2.714H27.143a2.714 2.714 0 00-2.714 2.714z" fill="#202D8A"/><path d="M70.571 10.857H5.43A5.429 5.429 0 000 16.286v13.571C0 37.353 6.076 43.43 13.571 43.43H62.43C69.924 43.429 76 37.353 76 29.857V16.286a5.429 5.429 0 00-5.429-5.429z" fill="#2737A7"/><rect x="31" y="39" width="14" height="8" rx="2" fill="#3949BB"/><circle cx="66" cy="59" r="20" fill="#FF2535"/><path d="M73.639 53.738a2.519 2.519 0 00-3.563 0l-3.258 3.258-2.52 2.52-1.997-1.999a2.519 2.519 0 10-3.563 3.563l3.78 3.78a2.511 2.511 0 001.78.737c.645 0 1.29-.246 1.782-.738l.738-.738 6.82-6.82a2.518 2.518 0 000-3.563z" fill="#fff"/></svg>