<svg width="82" height="82" fill="none" xmlns="http://www.w3.org/2000/svg"><g clip-path="url(#clip0)"><path d="M65.023 4.965H7.207A7.197 7.197 0 000 12.172v38.437a7.197 7.197 0 007.207 7.207h2.402v12.012c0 .96.577 1.826 1.49 2.21a2.294 2.294 0 002.594-.528l13.902-13.694h37.428a7.197 7.197 0 007.208-7.207V12.172a7.197 7.197 0 00-7.208-7.207z" fill="#2737A7"/><path d="M74.633 33.793H45.805c-3.974 0-7.207 3.233-7.207 7.207v19.219c0 3.974 3.233 7.207 7.207 7.207h13.419l.995.994 7.91 7.911a2.402 2.402 0 004.102-1.698v-7.207h2.402c3.974 0 7.367-3.233 7.367-7.207V41c0-3.974-3.393-7.207-7.367-7.207z" fill="#FF2535"/><path d="M31.39 43.402H16.978A2.401 2.401 0 0114.574 41a2.401 2.401 0 012.403-2.403H31.39A2.401 2.401 0 0133.793 41a2.401 2.401 0 01-2.402 2.402zm7.208-12.012a2.38 2.38 0 01-2.403 2.403H16.977a2.38 2.38 0 01-2.403-2.402 2.379 2.379 0 012.403-2.403h19.218a2.379 2.379 0 012.403 2.402zm19.218-9.609a2.379 2.379 0 01-2.402 2.402H16.977a2.38 2.38 0 01-2.403-2.402 2.379 2.379 0 012.403-2.402h38.437a2.379 2.379 0 012.402 2.402zm8.906 24.727a2.402 2.402 0 00-3.397 0l-3.106 3.106-2.403 2.403-1.905-1.905a2.402 2.402 0 10-3.397 3.397l3.604 3.603c.469.47 1.084.704 1.698.704.615 0 1.23-.234 1.699-.704l.704-.703 6.503-6.503a2.401 2.401 0 000-3.398z" fill="#fff"/></g><defs><clipPath id="clip0"><path fill="#fff" d="M0 0h82v82H0z"/></clipPath></defs></svg>