<svg width="333" height="635" fill="none" xmlns="http://www.w3.org/2000/svg"><path d="M99.885 7.54c2.028 0 3.766-1.74 3.766-3.77 0-2.03-1.738-3.77-3.766-3.77-2.029 0-3.767 1.74-3.767 3.77 0 2.175 1.738 3.77 3.767 3.77zm15.357 0c2.028 0 3.767-1.74 3.767-3.77 0-2.03-1.739-3.77-3.767-3.77-2.028 0-3.767 1.74-3.767 3.77 0 2.175 1.594 3.77 3.767 3.77zm15.213 0c2.028 0 3.767-1.74 3.767-3.77 0-2.03-1.739-3.77-3.767-3.77-2.029 0-3.767 1.74-3.767 3.77 0 2.175 1.738 3.77 3.767 3.77zm15.357 0c2.029 0 3.767-1.74 3.767-3.77 0-2.03-1.738-3.77-3.767-3.77-2.028 0-3.767 1.74-3.767 3.77 0 2.175 1.594 3.77 3.767 3.77zm15.213 0c2.028 0 3.767-1.74 3.767-3.77 0-2.03-1.739-3.77-3.767-3.77-2.029 0-3.767 1.74-3.767 3.77 0 2.175 1.738 3.77 3.767 3.77zm15.357 0c2.029 0 3.767-1.74 3.767-3.77 0-2.03-1.738-3.77-3.767-3.77-2.028 0-3.767 1.74-3.767 3.77 0 2.175 1.594 3.77 3.767 3.77zm-72.645 11.59a3.77 3.77 0 00-3.757-3.78 3.769 3.769 0 00-3.777 3.76 3.769 3.769 0 003.756 3.78 3.769 3.769 0 003.778-3.76zm11.505 3.782c2.028 0 3.767-1.74 3.767-3.77 0-2.03-1.739-3.77-3.767-3.77-2.028 0-3.767 1.74-3.767 3.77 0 2.03 1.594 3.77 3.767 3.77zm15.213 0a3.769 3.769 0 003.767-3.77 3.769 3.769 0 00-3.767-3.77 3.768 3.768 0 00-3.767 3.77 3.768 3.768 0 003.767 3.77zm15.357 0c2.029 0 3.767-1.74 3.767-3.77 0-2.03-1.738-3.77-3.767-3.77-2.028 0-3.767 1.74-3.767 3.77 0 2.03 1.594 3.77 3.767 3.77zm15.213 0c2.028 0 3.767-1.74 3.767-3.77 0-2.03-1.739-3.77-3.767-3.77-2.029 0-3.767 1.74-3.767 3.77 0 2.03 1.738 3.77 3.767 3.77zm15.357 0c2.029 0 3.767-1.74 3.767-3.77 0-2.03-1.738-3.77-3.767-3.77-2.028 0-3.767 1.74-3.767 3.77 0 2.03 1.594 3.77 3.767 3.77zM103.66 34.433a3.769 3.769 0 00-3.756-3.781 3.769 3.769 0 00-3.778 3.76 3.769 3.769 0 003.757 3.78 3.769 3.769 0 003.777-3.76zm11.582 3.705c2.028 0 3.767-1.74 3.767-3.77 0-2.03-1.739-3.77-3.767-3.77-2.028 0-3.767 1.74-3.767 3.77 0 2.03 1.594 3.77 3.767 3.77zm15.213 0a3.769 3.769 0 003.767-3.77 3.769 3.769 0 00-3.767-3.77 3.768 3.768 0 00-3.767 3.77 3.768 3.768 0 003.767 3.77zm15.357 0c2.029 0 3.767-1.74 3.767-3.77 0-2.03-1.738-3.77-3.767-3.77-2.028 0-3.767 1.74-3.767 3.77 0 2.03 1.594 3.77 3.767 3.77zm15.213 0c2.028 0 3.767-1.74 3.767-3.77 0-2.03-1.739-3.77-3.767-3.77-2.029 0-3.767 1.74-3.767 3.77 0 2.03 1.738 3.77 3.767 3.77zm15.357 0c2.029 0 3.767-1.74 3.767-3.77 0-2.03-1.738-3.77-3.767-3.77-2.028 0-3.767 1.74-3.767 3.77 0 2.03 1.594 3.77 3.767 3.77zm15.213 0c2.028 0 3.767-1.74 3.767-3.77 0-2.03-1.739-3.77-3.767-3.77-2.028 0-3.767 1.74-3.767 3.77 0 2.03 1.739 3.77 3.767 3.77zm-91.71 15.371c2.028 0 3.766-1.74 3.766-3.77 0-2.03-1.738-3.77-3.766-3.77-2.029 0-3.767 1.74-3.767 3.77 0 2.03 1.738 3.77 3.767 3.77zm15.357 0c2.028 0 3.767-1.74 3.767-3.77 0-2.03-1.739-3.77-3.767-3.77-2.028 0-3.767 1.74-3.767 3.77 0 2.03 1.594 3.77 3.767 3.77zm15.213 0c2.028 0 3.767-1.74 3.767-3.77 0-2.03-1.739-3.77-3.767-3.77-2.029 0-3.767 1.74-3.767 3.77 0 2.03 1.738 3.77 3.767 3.77zm15.357 0c2.029 0 3.767-1.74 3.767-3.77 0-2.03-1.738-3.77-3.767-3.77-2.028 0-3.767 1.74-3.767 3.77 0 2.03 1.594 3.77 3.767 3.77zm15.213 0c2.028 0 3.767-1.74 3.767-3.77 0-2.03-1.739-3.77-3.767-3.77-2.029 0-3.767 1.74-3.767 3.77 0 2.03 1.738 3.77 3.767 3.77zm15.357 0c2.029 0 3.767-1.74 3.767-3.77 0-2.03-1.738-3.77-3.767-3.77-2.028 0-3.767 1.74-3.767 3.77 0 2.03 1.594 3.77 3.767 3.77zm15.213 0c2.028 0 3.767-1.74 3.767-3.77 0-2.03-1.739-3.77-3.767-3.77-2.028 0-3.767 1.74-3.767 3.77 0 2.03 1.739 3.77 3.767 3.77zm15.358 0c2.028 0 3.766-1.74 3.766-3.77 0-2.03-1.738-3.77-3.766-3.77-2.029 0-3.767 1.74-3.767 3.77 0 2.03 1.738 3.77 3.767 3.77zM99.885 68.735c2.028 0 3.766-1.74 3.766-3.77 0-2.03-1.738-3.77-3.766-3.77-2.029 0-3.767 1.74-3.767 3.77 0 2.175 1.738 3.77 3.767 3.77zm15.357 0c2.028 0 3.767-1.74 3.767-3.77 0-2.03-1.739-3.77-3.767-3.77-2.028 0-3.767 1.74-3.767 3.77 0 2.175 1.594 3.77 3.767 3.77zm15.213 0c2.028 0 3.767-1.74 3.767-3.77 0-2.03-1.739-3.77-3.767-3.77-2.029 0-3.767 1.74-3.767 3.77 0 2.175 1.738 3.77 3.767 3.77zm15.357 0c2.029 0 3.767-1.74 3.767-3.77 0-2.03-1.738-3.77-3.767-3.77-2.028 0-3.767 1.74-3.767 3.77 0 2.175 1.594 3.77 3.767 3.77zm15.213 0c2.028 0 3.767-1.74 3.767-3.77 0-2.03-1.739-3.77-3.767-3.77-2.029 0-3.767 1.74-3.767 3.77 0 2.175 1.738 3.77 3.767 3.77zm15.357 0c2.029 0 3.767-1.74 3.767-3.77 0-2.03-1.738-3.77-3.767-3.77-2.028 0-3.767 1.74-3.767 3.77 0 2.175 1.594 3.77 3.767 3.77zm15.213 0c2.028 0 3.767-1.74 3.767-3.77 0-2.03-1.739-3.77-3.767-3.77-2.028 0-3.767 1.74-3.767 3.77 0 2.175 1.739 3.77 3.767 3.77zm15.358 0c2.028 0 3.766-1.74 3.766-3.77 0-2.03-1.738-3.77-3.766-3.77-2.029 0-3.767 1.74-3.767 3.77 0 2.175 1.738 3.77 3.767 3.77zm15.212 0c2.029 0 3.767-1.74 3.767-3.77 0-2.03-1.738-3.77-3.767-3.77-2.028 0-3.767 1.74-3.767 3.77 0 2.175 1.739 3.77 3.767 3.77zM99.885 84.106c2.028 0 3.766-1.74 3.766-3.77 0-2.03-1.738-3.77-3.766-3.77-2.029 0-3.767 1.74-3.767 3.77 0 2.03 1.738 3.77 3.767 3.77zm15.357 0c2.028 0 3.767-1.74 3.767-3.77 0-2.03-1.739-3.77-3.767-3.77-2.028 0-3.767 1.74-3.767 3.77 0 2.03 1.594 3.77 3.767 3.77zm15.213 0c2.028 0 3.767-1.74 3.767-3.77 0-2.03-1.739-3.77-3.767-3.77-2.029 0-3.767 1.74-3.767 3.77 0 2.03 1.738 3.77 3.767 3.77zm15.357 0c2.029 0 3.767-1.74 3.767-3.77 0-2.03-1.738-3.77-3.767-3.77-2.028 0-3.767 1.74-3.767 3.77 0 2.03 1.594 3.77 3.767 3.77zm15.213 0c2.028 0 3.767-1.74 3.767-3.77 0-2.03-1.739-3.77-3.767-3.77-2.029 0-3.767 1.74-3.767 3.77 0 2.03 1.738 3.77 3.767 3.77zm15.357 0c2.029 0 3.767-1.74 3.767-3.77 0-2.03-1.738-3.77-3.767-3.77-2.028 0-3.767 1.74-3.767 3.77 0 2.03 1.594 3.77 3.767 3.77zm15.213 0c2.028 0 3.767-1.74 3.767-3.77 0-2.03-1.739-3.77-3.767-3.77-2.028 0-3.767 1.74-3.767 3.77 0 2.03 1.739 3.77 3.767 3.77zm15.358 0c2.028 0 3.766-1.74 3.766-3.77 0-2.03-1.738-3.77-3.766-3.77-2.029 0-3.767 1.74-3.767 3.77 0 2.03 1.738 3.77 3.767 3.77zm15.212 0c2.029 0 3.767-1.74 3.767-3.77 0-2.03-1.738-3.77-3.767-3.77-2.028 0-3.767 1.74-3.767 3.77 0 2.03 1.739 3.77 3.767 3.77zm15.358 0c2.028 0 3.767-1.74 3.767-3.77 0-2.03-1.739-3.77-3.767-3.77-2.029 0-3.767 1.74-3.767 3.77 0 2.03 1.738 3.77 3.767 3.77zm15.357 0c2.029 0 3.767-1.74 3.767-3.77 0-2.03-1.738-3.77-3.767-3.77-2.028 0-3.767 1.74-3.767 3.77-.144 2.03 1.594 3.77 3.767 3.77zM84.672 99.332c2.029 0 3.767-1.74 3.767-3.77 0-2.03-1.738-3.77-3.767-3.77-2.028 0-3.767 1.74-3.767 3.77 0 2.175 1.594 3.77 3.767 3.77zm15.213 0c2.028 0 3.766-1.74 3.766-3.77 0-2.03-1.738-3.77-3.766-3.77-2.029 0-3.767 1.74-3.767 3.77 0 2.175 1.738 3.77 3.767 3.77zm15.357 0c2.028 0 3.767-1.74 3.767-3.77 0-2.03-1.739-3.77-3.767-3.77-2.028 0-3.767 1.74-3.767 3.77 0 2.175 1.594 3.77 3.767 3.77zm15.213 0c2.028 0 3.767-1.74 3.767-3.77 0-2.03-1.739-3.77-3.767-3.77-2.029 0-3.767 1.74-3.767 3.77 0 2.175 1.738 3.77 3.767 3.77zm15.357 0c2.029 0 3.767-1.74 3.767-3.77 0-2.03-1.738-3.77-3.767-3.77-2.028 0-3.767 1.74-3.767 3.77 0 2.175 1.594 3.77 3.767 3.77zm15.213 0c2.028 0 3.767-1.74 3.767-3.77 0-2.03-1.739-3.77-3.767-3.77-2.029 0-3.767 1.74-3.767 3.77 0 2.175 1.738 3.77 3.767 3.77zm15.357 0c2.029 0 3.767-1.74 3.767-3.77 0-2.03-1.738-3.77-3.767-3.77-2.028 0-3.767 1.74-3.767 3.77 0 2.175 1.594 3.77 3.767 3.77zm15.213 0c2.028 0 3.767-1.74 3.767-3.77 0-2.03-1.739-3.77-3.767-3.77-2.028 0-3.767 1.74-3.767 3.77 0 2.175 1.739 3.77 3.767 3.77zm15.358 0c2.028 0 3.766-1.74 3.766-3.77 0-2.03-1.738-3.77-3.766-3.77-2.029 0-3.767 1.74-3.767 3.77 0 2.175 1.738 3.77 3.767 3.77zm15.212 0c2.029 0 3.767-1.74 3.767-3.77 0-2.03-1.738-3.77-3.767-3.77-2.028 0-3.767 1.74-3.767 3.77 0 2.175 1.739 3.77 3.767 3.77zm15.358 0c2.028 0 3.767-1.74 3.767-3.77 0-2.03-1.739-3.77-3.767-3.77-2.029 0-3.767 1.74-3.767 3.77 0 2.175 1.738 3.77 3.767 3.77zm15.357 0c2.029 0 3.767-1.74 3.767-3.77 0-2.03-1.738-3.77-3.767-3.77-2.028 0-3.767 1.74-3.767 3.77-.144 2.175 1.594 3.77 3.767 3.77zm15.213 0c2.028 0 3.767-1.74 3.767-3.77 0-2.03-1.739-3.77-3.767-3.77-2.029 0-3.767 1.74-3.767 3.77 0 2.175 1.738 3.77 3.767 3.77zm45.927 0c2.029 0 3.767-1.74 3.767-3.77 0-2.03-1.738-3.77-3.767-3.77-2.028 0-3.766 1.74-3.766 3.77-.145 2.175 1.593 3.77 3.766 3.77zm15.213 0c2.028 0 3.767-1.74 3.767-3.77 0-2.03-1.739-3.77-3.767-3.77-2.028 0-3.767 1.74-3.767 3.77 0 2.175 1.739 3.77 3.767 3.77zM69.315 114.703c2.028 0 3.767-1.74 3.767-3.77 0-2.03-1.74-3.77-3.767-3.77-2.029 0-3.767 1.74-3.767 3.77 0 2.03 1.738 3.77 3.767 3.77zm15.357 0c2.029 0 3.767-1.74 3.767-3.77 0-2.03-1.738-3.77-3.767-3.77-2.028 0-3.767 1.74-3.767 3.77 0 2.03 1.594 3.77 3.767 3.77zm15.213 0c2.028 0 3.766-1.74 3.766-3.77 0-2.03-1.738-3.77-3.766-3.77-2.029 0-3.767 1.74-3.767 3.77 0 2.03 1.738 3.77 3.767 3.77zm15.357 0c2.028 0 3.767-1.74 3.767-3.77 0-2.03-1.739-3.77-3.767-3.77-2.028 0-3.767 1.74-3.767 3.77 0 2.03 1.594 3.77 3.767 3.77zm15.213 0c2.028 0 3.767-1.74 3.767-3.77 0-2.03-1.739-3.77-3.767-3.77-2.029 0-3.767 1.74-3.767 3.77 0 2.03 1.738 3.77 3.767 3.77zm15.357 0c2.029 0 3.767-1.74 3.767-3.77 0-2.03-1.738-3.77-3.767-3.77-2.028 0-3.767 1.74-3.767 3.77 0 2.03 1.594 3.77 3.767 3.77zm15.213 0c2.028 0 3.767-1.74 3.767-3.77 0-2.03-1.739-3.77-3.767-3.77-2.029 0-3.767 1.74-3.767 3.77 0 2.03 1.738 3.77 3.767 3.77zm15.357 0c2.029 0 3.767-1.74 3.767-3.77 0-2.03-1.738-3.77-3.767-3.77-2.028 0-3.767 1.74-3.767 3.77 0 2.03 1.594 3.77 3.767 3.77zm15.213 0c2.028 0 3.767-1.74 3.767-3.77 0-2.03-1.739-3.77-3.767-3.77-2.028 0-3.767 1.74-3.767 3.77 0 2.03 1.739 3.77 3.767 3.77zm15.358 0c2.028 0 3.766-1.74 3.766-3.77 0-2.03-1.738-3.77-3.766-3.77-2.029 0-3.767 1.74-3.767 3.77 0 2.03 1.738 3.77 3.767 3.77zm15.212 0c2.029 0 3.767-1.74 3.767-3.77 0-2.03-1.738-3.77-3.767-3.77-2.028 0-3.767 1.74-3.767 3.77 0 2.03 1.739 3.77 3.767 3.77zm15.358 0c2.028 0 3.767-1.74 3.767-3.77 0-2.03-1.739-3.77-3.767-3.77-2.029 0-3.767 1.74-3.767 3.77 0 2.03 1.738 3.77 3.767 3.77zm15.357 0c2.029 0 3.767-1.74 3.767-3.77 0-2.03-1.738-3.77-3.767-3.77-2.028 0-3.767 1.74-3.767 3.77-.144 2.03 1.594 3.77 3.767 3.77zm15.213 0c2.028 0 3.767-1.74 3.767-3.77 0-2.03-1.739-3.77-3.767-3.77-2.029 0-3.767 1.74-3.767 3.77 0 2.03 1.738 3.77 3.767 3.77zm15.357 0c2.029 0 3.767-1.74 3.767-3.77 0-2.03-1.738-3.77-3.767-3.77-2.028 0-3.767 1.74-3.767 3.77-.144 2.03 1.594 3.77 3.767 3.77zm15.213 0c2.028 0 3.767-1.74 3.767-3.77 0-2.03-1.739-3.77-3.767-3.77-2.028 0-3.767 1.74-3.767 3.77 0 2.03 1.739 3.77 3.767 3.77zm15.357 0c2.029 0 3.767-1.74 3.767-3.77 0-2.03-1.738-3.77-3.767-3.77-2.028 0-3.766 1.74-3.766 3.77-.145 2.03 1.593 3.77 3.766 3.77zm15.213 0c2.028 0 3.767-1.74 3.767-3.77 0-2.03-1.739-3.77-3.767-3.77-2.028 0-3.767 1.74-3.767 3.77 0 2.03 1.739 3.77 3.767 3.77zM69.315 129.929c2.028 0 3.767-1.74 3.767-3.77 0-2.03-1.74-3.77-3.767-3.77-2.029 0-3.767 1.74-3.767 3.77 0 2.03 1.738 3.77 3.767 3.77zm15.357 0a3.769 3.769 0 003.767-3.77 3.769 3.769 0 00-3.767-3.77 3.768 3.768 0 00-3.767 3.77 3.768 3.768 0 003.767 3.77zm18.965-3.682a3.768 3.768 0 00-3.756-3.781 3.77 3.77 0 00-3.777 3.76 3.768 3.768 0 107.533.021zm11.605 3.682c2.028 0 3.767-1.74 3.767-3.77 0-2.03-1.739-3.77-3.767-3.77-2.028 0-3.767 1.74-3.767 3.77 0 2.03 1.594 3.77 3.767 3.77zm15.213 0a3.769 3.769 0 003.767-3.77 3.768 3.768 0 10-7.534 0 3.768 3.768 0 003.767 3.77zm15.357 0c2.029 0 3.767-1.74 3.767-3.77 0-2.03-1.738-3.77-3.767-3.77-2.028 0-3.767 1.74-3.767 3.77 0 2.03 1.594 3.77 3.767 3.77zm15.213 0c2.028 0 3.767-1.74 3.767-3.77 0-2.03-1.739-3.77-3.767-3.77-2.029 0-3.767 1.74-3.767 3.77 0 2.03 1.738 3.77 3.767 3.77zm15.357 0c2.029 0 3.767-1.74 3.767-3.77 0-2.03-1.738-3.77-3.767-3.77-2.028 0-3.767 1.74-3.767 3.77 0 2.03 1.594 3.77 3.767 3.77zm15.213 0c2.028 0 3.767-1.74 3.767-3.77 0-2.03-1.739-3.77-3.767-3.77-2.028 0-3.767 1.74-3.767 3.77 0 2.03 1.739 3.77 3.767 3.77zm15.358 0c2.028 0 3.766-1.74 3.766-3.77 0-2.03-1.738-3.77-3.766-3.77-2.029 0-3.767 1.74-3.767 3.77 0 2.03 1.738 3.77 3.767 3.77zm15.212 0c2.029 0 3.767-1.74 3.767-3.77 0-2.03-1.738-3.77-3.767-3.77-2.028 0-3.767 1.74-3.767 3.77 0 2.03 1.739 3.77 3.767 3.77zm15.358 0c2.028 0 3.767-1.74 3.767-3.77 0-2.03-1.739-3.77-3.767-3.77-2.029 0-3.767 1.74-3.767 3.77 0 2.03 1.738 3.77 3.767 3.77zm15.357 0c2.029 0 3.767-1.74 3.767-3.77 0-2.03-1.738-3.77-3.767-3.77-2.028 0-3.767 1.74-3.767 3.77 0 2.03 1.594 3.77 3.767 3.77zm15.213 0a3.769 3.769 0 003.767-3.77 3.768 3.768 0 10-7.534 0 3.768 3.768 0 003.767 3.77zm15.357 0c2.029 0 3.767-1.74 3.767-3.77 0-2.03-1.738-3.77-3.767-3.77-2.028 0-3.767 1.74-3.767 3.77 0 2.03 1.594 3.77 3.767 3.77zm15.213 0c2.028 0 3.767-1.74 3.767-3.77 0-2.03-1.739-3.77-3.767-3.77-2.028 0-3.767 1.74-3.767 3.77 0 2.03 1.739 3.77 3.767 3.77zm15.357 0a3.768 3.768 0 003.767-3.77 3.768 3.768 0 10-7.534 0 3.769 3.769 0 003.767 3.77zm15.213 0c2.028 0 3.767-1.74 3.767-3.77 0-2.03-1.739-3.77-3.767-3.77-2.028 0-3.767 1.74-3.767 3.77 0 2.03 1.739 3.77 3.767 3.77zM69.315 145.3c2.028 0 3.767-1.74 3.767-3.77 0-2.03-1.74-3.77-3.767-3.77-2.029 0-3.767 1.74-3.767 3.77 0 2.03 1.738 3.77 3.767 3.77zm15.357 0c2.029 0 3.767-1.74 3.767-3.77 0-2.03-1.738-3.77-3.767-3.77-2.028 0-3.767 1.74-3.767 3.77 0 2.03 1.594 3.77 3.767 3.77zm15.213 0c2.028 0 3.766-1.74 3.766-3.77 0-2.03-1.738-3.77-3.766-3.77-2.029 0-3.767 1.74-3.767 3.77 0 2.03 1.738 3.77 3.767 3.77zm15.357 0c2.028 0 3.767-1.74 3.767-3.77 0-2.03-1.739-3.77-3.767-3.77-2.028 0-3.767 1.74-3.767 3.77 0 2.03 1.594 3.77 3.767 3.77zm15.213 0c2.028 0 3.767-1.74 3.767-3.77 0-2.03-1.739-3.77-3.767-3.77-2.029 0-3.767 1.74-3.767 3.77 0 2.03 1.738 3.77 3.767 3.77zm15.357 0c2.029 0 3.767-1.74 3.767-3.77 0-2.03-1.738-3.77-3.767-3.77-2.028 0-3.767 1.74-3.767 3.77 0 2.03 1.594 3.77 3.767 3.77zm15.213 0c2.028 0 3.767-1.74 3.767-3.77 0-2.03-1.739-3.77-3.767-3.77-2.029 0-3.767 1.74-3.767 3.77 0 2.03 1.738 3.77 3.767 3.77zm15.357 0c2.029 0 3.767-1.74 3.767-3.77 0-2.03-1.738-3.77-3.767-3.77-2.028 0-3.767 1.74-3.767 3.77 0 2.03 1.594 3.77 3.767 3.77zm15.213 0c2.028 0 3.767-1.74 3.767-3.77 0-2.03-1.739-3.77-3.767-3.77-2.028 0-3.767 1.74-3.767 3.77 0 2.03 1.739 3.77 3.767 3.77zm15.358 0c2.028 0 3.766-1.74 3.766-3.77 0-2.03-1.738-3.77-3.766-3.77-2.029 0-3.767 1.74-3.767 3.77 0 2.03 1.738 3.77 3.767 3.77zm15.212 0c2.029 0 3.767-1.74 3.767-3.77 0-2.03-1.738-3.77-3.767-3.77-2.028 0-3.767 1.74-3.767 3.77 0 2.03 1.739 3.77 3.767 3.77zm15.358 0c2.028 0 3.767-1.74 3.767-3.77 0-2.03-1.739-3.77-3.767-3.77-2.029 0-3.767 1.74-3.767 3.77 0 2.03 1.738 3.77 3.767 3.77zm15.357 0c2.029 0 3.767-1.74 3.767-3.77 0-2.03-1.738-3.77-3.767-3.77-2.028 0-3.767 1.74-3.767 3.77-.144 2.03 1.594 3.77 3.767 3.77zm15.213 0c2.028 0 3.767-1.74 3.767-3.77 0-2.03-1.739-3.77-3.767-3.77-2.029 0-3.767 1.74-3.767 3.77 0 2.03 1.738 3.77 3.767 3.77zm15.357 0c2.029 0 3.767-1.74 3.767-3.77 0-2.03-1.738-3.77-3.767-3.77-2.028 0-3.767 1.74-3.767 3.77-.144 2.03 1.594 3.77 3.767 3.77zm15.213 0c2.028 0 3.767-1.74 3.767-3.77 0-2.03-1.739-3.77-3.767-3.77-2.028 0-3.767 1.74-3.767 3.77 0 2.03 1.739 3.77 3.767 3.77zm15.357 0c2.029 0 3.767-1.74 3.767-3.77 0-2.03-1.738-3.77-3.767-3.77-2.028 0-3.766 1.74-3.766 3.77-.145 2.03 1.593 3.77 3.766 3.77zm15.213 0c2.028 0 3.767-1.74 3.767-3.77 0-2.03-1.739-3.77-3.767-3.77-2.028 0-3.767 1.74-3.767 3.77 0 2.03 1.739 3.77 3.767 3.77zM103.63 156.852a3.769 3.769 0 00-3.757-3.781 3.77 3.77 0 00-3.777 3.76 3.769 3.769 0 003.756 3.781 3.768 3.768 0 003.778-3.76zm11.612 3.819c2.028 0 3.767-1.74 3.767-3.77 0-2.03-1.739-3.77-3.767-3.77-2.028 0-3.767 1.74-3.767 3.77 0 2.03 1.594 3.77 3.767 3.77zm15.213-.145a3.769 3.769 0 003.767-3.77 3.768 3.768 0 10-7.534 0 3.768 3.768 0 003.767 3.77zm15.357.145c2.029 0 3.767-1.74 3.767-3.77 0-2.03-1.738-3.77-3.767-3.77-2.028 0-3.767 1.74-3.767 3.77 0 2.03 1.594 3.77 3.767 3.77zm15.213 0c2.028 0 3.767-1.74 3.767-3.77 0-2.03-1.739-3.77-3.767-3.77-2.029 0-3.767 1.74-3.767 3.77 0 2.03 1.738 3.77 3.767 3.77zm15.357 0c2.029 0 3.767-1.74 3.767-3.77 0-2.03-1.738-3.77-3.767-3.77-2.028 0-3.767 1.74-3.767 3.77 0 2.03 1.594 3.77 3.767 3.77zm15.213 0c2.028 0 3.767-1.74 3.767-3.77 0-2.03-1.739-3.77-3.767-3.77-2.028 0-3.767 1.74-3.767 3.77 0 2.03 1.739 3.77 3.767 3.77zm15.358 0c2.028 0 3.766-1.74 3.766-3.77 0-2.03-1.738-3.77-3.766-3.77-2.029 0-3.767 1.74-3.767 3.77 0 2.03 1.738 3.77 3.767 3.77zm15.212 0c2.029 0 3.767-1.74 3.767-3.77 0-2.03-1.738-3.77-3.767-3.77-2.028 0-3.767 1.74-3.767 3.77 0 2.03 1.739 3.77 3.767 3.77zm15.358 0c2.028 0 3.767-1.74 3.767-3.77 0-2.03-1.739-3.77-3.767-3.77-2.029 0-3.767 1.74-3.767 3.77 0 2.03 1.738 3.77 3.767 3.77zm15.357 0c2.029 0 3.767-1.74 3.767-3.77 0-2.03-1.738-3.77-3.767-3.77-2.028 0-3.767 1.74-3.767 3.77 0 2.03 1.594 3.77 3.767 3.77zm15.213-.145a3.769 3.769 0 003.767-3.77 3.768 3.768 0 10-7.534 0 3.768 3.768 0 003.767 3.77zm15.357.145c2.029 0 3.767-1.74 3.767-3.77 0-2.03-1.738-3.77-3.767-3.77-2.028 0-3.767 1.74-3.767 3.77 0 2.03 1.594 3.77 3.767 3.77zm15.213 0c2.028 0 3.767-1.74 3.767-3.77 0-2.03-1.739-3.77-3.767-3.77-2.028 0-3.767 1.74-3.767 3.77 0 2.03 1.739 3.77 3.767 3.77zm15.357-.145a3.768 3.768 0 003.767-3.77 3.768 3.768 0 10-7.534 0 3.769 3.769 0 003.767 3.77zm15.213.145c2.028 0 3.767-1.74 3.767-3.77 0-2.03-1.739-3.77-3.767-3.77-2.028 0-3.767 1.74-3.767 3.77 0 2.03 1.739 3.77 3.767 3.77zM99.885 175.897c2.028 0 3.766-1.74 3.766-3.77 0-2.03-1.738-3.77-3.766-3.77-2.029 0-3.767 1.74-3.767 3.77 0 2.03 1.738 3.77 3.767 3.77zm15.357 0c2.028 0 3.767-1.74 3.767-3.77 0-2.03-1.739-3.77-3.767-3.77-2.028 0-3.767 1.74-3.767 3.77 0 2.03 1.594 3.77 3.767 3.77zm15.213 0c2.028 0 3.767-1.74 3.767-3.77 0-2.03-1.739-3.77-3.767-3.77-2.029 0-3.767 1.74-3.767 3.77 0 2.03 1.738 3.77 3.767 3.77zm15.357 0c2.029 0 3.767-1.74 3.767-3.77 0-2.03-1.738-3.77-3.767-3.77-2.028 0-3.767 1.74-3.767 3.77 0 2.03 1.594 3.77 3.767 3.77zm15.213 0c2.028 0 3.767-1.74 3.767-3.77 0-2.03-1.739-3.77-3.767-3.77-2.029 0-3.767 1.74-3.767 3.77 0 2.03 1.738 3.77 3.767 3.77zm15.357 0c2.029 0 3.767-1.74 3.767-3.77 0-2.03-1.738-3.77-3.767-3.77-2.028 0-3.767 1.74-3.767 3.77 0 2.03 1.594 3.77 3.767 3.77zm15.213 0c2.028 0 3.767-1.74 3.767-3.77 0-2.03-1.739-3.77-3.767-3.77-2.028 0-3.767 1.74-3.767 3.77 0 2.03 1.739 3.77 3.767 3.77zm15.358 0c2.028 0 3.766-1.74 3.766-3.77 0-2.03-1.738-3.77-3.766-3.77-2.029 0-3.767 1.74-3.767 3.77 0 2.03 1.738 3.77 3.767 3.77zm15.212 0c2.029 0 3.767-1.74 3.767-3.77 0-2.03-1.738-3.77-3.767-3.77-2.028 0-3.767 1.74-3.767 3.77 0 2.03 1.739 3.77 3.767 3.77zm15.358 0c2.028 0 3.767-1.74 3.767-3.77 0-2.03-1.739-3.77-3.767-3.77-2.029 0-3.767 1.74-3.767 3.77 0 2.03 1.738 3.77 3.767 3.77zm15.357 0c2.029 0 3.767-1.74 3.767-3.77 0-2.03-1.738-3.77-3.767-3.77-2.028 0-3.767 1.74-3.767 3.77-.144 2.03 1.594 3.77 3.767 3.77zm15.213 0c2.028 0 3.767-1.74 3.767-3.77 0-2.03-1.739-3.77-3.767-3.77-2.029 0-3.767 1.74-3.767 3.77 0 2.03 1.738 3.77 3.767 3.77zm15.357 0c2.029 0 3.767-1.74 3.767-3.77 0-2.03-1.738-3.77-3.767-3.77-2.028 0-3.767 1.74-3.767 3.77-.144 2.03 1.594 3.77 3.767 3.77zm15.213 0c2.028 0 3.767-1.74 3.767-3.77 0-2.03-1.739-3.77-3.767-3.77-2.028 0-3.767 1.74-3.767 3.77 0 2.03 1.739 3.77 3.767 3.77zm15.357 0c2.029 0 3.767-1.74 3.767-3.77 0-2.03-1.738-3.77-3.767-3.77-2.028 0-3.766 1.74-3.766 3.77-.145 2.03 1.593 3.77 3.766 3.77zm15.213 0c2.028 0 3.767-1.74 3.767-3.77 0-2.03-1.739-3.77-3.767-3.77-2.028 0-3.767 1.74-3.767 3.77 0 2.03 1.739 3.77 3.767 3.77zM38.745 191.269c2.028 0 3.766-1.741 3.766-3.771s-1.738-3.77-3.767-3.77c-2.028 0-3.767 1.74-3.767 3.77 0 2.03 1.74 3.771 3.768 3.771zm15.357 0c2.028 0 3.767-1.741 3.767-3.771s-1.739-3.77-3.767-3.77c-2.028 0-3.767 1.74-3.767 3.77 0 2.03 1.594 3.771 3.767 3.771zm15.213 0c2.028 0 3.767-1.741 3.767-3.771s-1.74-3.77-3.767-3.77c-2.029 0-3.767 1.74-3.767 3.77 0 2.03 1.738 3.771 3.767 3.771zm15.357 0c2.029 0 3.767-1.741 3.767-3.771s-1.738-3.77-3.767-3.77c-2.028 0-3.767 1.74-3.767 3.77 0 2.03 1.594 3.771 3.767 3.771zm15.213 0c2.028 0 3.766-1.741 3.766-3.771s-1.738-3.77-3.766-3.77c-2.029 0-3.767 1.74-3.767 3.77 0 2.03 1.738 3.771 3.767 3.771zm15.357 0c2.028 0 3.767-1.741 3.767-3.771s-1.739-3.77-3.767-3.77c-2.028 0-3.767 1.74-3.767 3.77 0 2.03 1.594 3.771 3.767 3.771zm15.213 0c2.028 0 3.767-1.741 3.767-3.771s-1.739-3.77-3.767-3.77c-2.029 0-3.767 1.74-3.767 3.77 0 2.03 1.738 3.771 3.767 3.771zm15.357 0c2.029 0 3.767-1.741 3.767-3.771s-1.738-3.77-3.767-3.77c-2.028 0-3.767 1.74-3.767 3.77 0 2.03 1.594 3.771 3.767 3.771zm15.213 0c2.028 0 3.767-1.741 3.767-3.771s-1.739-3.77-3.767-3.77c-2.029 0-3.767 1.74-3.767 3.77 0 2.03 1.738 3.771 3.767 3.771zm15.357 0c2.029 0 3.767-1.741 3.767-3.771s-1.738-3.77-3.767-3.77c-2.028 0-3.767 1.74-3.767 3.77 0 2.03 1.594 3.771 3.767 3.771zm15.213 0c2.028 0 3.767-1.741 3.767-3.771s-1.739-3.77-3.767-3.77c-2.028 0-3.767 1.74-3.767 3.77 0 2.03 1.739 3.771 3.767 3.771zm15.358 0c2.028 0 3.766-1.741 3.766-3.771s-1.738-3.77-3.766-3.77c-2.029 0-3.767 1.74-3.767 3.77 0 2.03 1.738 3.771 3.767 3.771zm15.212 0c2.029 0 3.767-1.741 3.767-3.771s-1.738-3.77-3.767-3.77c-2.028 0-3.767 1.74-3.767 3.77 0 2.03 1.739 3.771 3.767 3.771zm15.358 0c2.028 0 3.767-1.741 3.767-3.771s-1.739-3.77-3.767-3.77c-2.029 0-3.767 1.74-3.767 3.77 0 2.03 1.738 3.771 3.767 3.771zm15.357 0c2.029 0 3.767-1.741 3.767-3.771s-1.738-3.77-3.767-3.77c-2.028 0-3.767 1.74-3.767 3.77-.144 2.03 1.594 3.771 3.767 3.771zm15.213 0c2.028 0 3.767-1.741 3.767-3.771s-1.739-3.77-3.767-3.77c-2.029 0-3.767 1.74-3.767 3.77 0 2.03 1.738 3.771 3.767 3.771zm15.357 0c2.029 0 3.767-1.741 3.767-3.771s-1.738-3.77-3.767-3.77c-2.028 0-3.767 1.74-3.767 3.77-.144 2.03 1.594 3.771 3.767 3.771zm15.213 0c2.028 0 3.767-1.741 3.767-3.771s-1.739-3.77-3.767-3.77c-2.028 0-3.767 1.74-3.767 3.77 0 2.03 1.739 3.771 3.767 3.771zm15.357 0c2.029 0 3.767-1.741 3.767-3.771s-1.738-3.77-3.767-3.77c-2.028 0-3.766 1.74-3.766 3.77-.145 2.03 1.593 3.771 3.766 3.771zM38.745 206.495c2.028 0 3.766-1.74 3.766-3.771 0-2.03-1.738-3.77-3.767-3.77-2.028 0-3.767 1.74-3.767 3.77 0 2.031 1.74 3.771 3.768 3.771zm15.357 0c2.028 0 3.767-1.74 3.767-3.771 0-2.03-1.739-3.77-3.767-3.77-2.028 0-3.767 1.74-3.767 3.77 0 2.031 1.594 3.771 3.767 3.771zm15.213 0c2.028 0 3.767-1.74 3.767-3.771 0-2.03-1.74-3.77-3.767-3.77-2.029 0-3.767 1.74-3.767 3.77 0 2.031 1.738 3.771 3.767 3.771zm15.357 0c2.029 0 3.767-1.74 3.767-3.771 0-2.03-1.738-3.77-3.767-3.77-2.028 0-3.767 1.74-3.767 3.77 0 2.031 1.594 3.771 3.767 3.771zm15.213 0c2.028 0 3.766-1.74 3.766-3.771 0-2.03-1.738-3.77-3.766-3.77-2.029 0-3.767 1.74-3.767 3.77 0 2.031 1.738 3.771 3.767 3.771zm15.357 0c2.028 0 3.767-1.74 3.767-3.771 0-2.03-1.739-3.77-3.767-3.77-2.028 0-3.767 1.74-3.767 3.77 0 2.031 1.594 3.771 3.767 3.771zm15.213 0c2.028 0 3.767-1.74 3.767-3.771 0-2.03-1.739-3.77-3.767-3.77-2.029 0-3.767 1.74-3.767 3.77 0 2.031 1.738 3.771 3.767 3.771zm15.357 0c2.029 0 3.767-1.74 3.767-3.771 0-2.03-1.738-3.77-3.767-3.77-2.028 0-3.767 1.74-3.767 3.77 0 2.031 1.594 3.771 3.767 3.771zm15.213 0c2.028 0 3.767-1.74 3.767-3.771 0-2.03-1.739-3.77-3.767-3.77-2.029 0-3.767 1.74-3.767 3.77 0 2.031 1.738 3.771 3.767 3.771zm15.357 0c2.029 0 3.767-1.74 3.767-3.771 0-2.03-1.738-3.77-3.767-3.77-2.028 0-3.767 1.74-3.767 3.77 0 2.031 1.594 3.771 3.767 3.771zm15.213 0c2.028 0 3.767-1.74 3.767-3.771 0-2.03-1.739-3.77-3.767-3.77-2.028 0-3.767 1.74-3.767 3.77 0 2.031 1.739 3.771 3.767 3.771zm15.358 0c2.028 0 3.766-1.74 3.766-3.771 0-2.03-1.738-3.77-3.766-3.77-2.029 0-3.767 1.74-3.767 3.77 0 2.031 1.738 3.771 3.767 3.771zm15.212 0c2.029 0 3.767-1.74 3.767-3.771 0-2.03-1.738-3.77-3.767-3.77-2.028 0-3.767 1.74-3.767 3.77 0 2.031 1.739 3.771 3.767 3.771zm15.358 0c2.028 0 3.767-1.74 3.767-3.771 0-2.03-1.739-3.77-3.767-3.77-2.029 0-3.767 1.74-3.767 3.77 0 2.031 1.738 3.771 3.767 3.771zm15.357 0c2.029 0 3.767-1.74 3.767-3.771 0-2.03-1.738-3.77-3.767-3.77-2.028 0-3.767 1.74-3.767 3.77-.144 2.031 1.594 3.771 3.767 3.771zm15.213 0c2.028 0 3.767-1.74 3.767-3.771 0-2.03-1.739-3.77-3.767-3.77-2.029 0-3.767 1.74-3.767 3.77 0 2.031 1.738 3.771 3.767 3.771zm15.357 0c2.029 0 3.767-1.74 3.767-3.771 0-2.03-1.738-3.77-3.767-3.77-2.028 0-3.767 1.74-3.767 3.77-.144 2.031 1.594 3.771 3.767 3.771zm15.213 0c2.028 0 3.767-1.74 3.767-3.771 0-2.03-1.739-3.77-3.767-3.77-2.028 0-3.767 1.74-3.767 3.77 0 2.031 1.739 3.771 3.767 3.771zm15.357 0c2.029 0 3.767-1.74 3.767-3.771 0-2.03-1.738-3.77-3.767-3.77-2.028 0-3.766 1.74-3.766 3.77-.145 2.031 1.593 3.771 3.766 3.771zM38.745 221.866c2.028 0 3.766-1.74 3.766-3.771 0-2.03-1.738-3.77-3.767-3.77-2.028 0-3.767 1.74-3.767 3.77 0 2.031 1.74 3.771 3.768 3.771zm15.357 0c2.028 0 3.767-1.74 3.767-3.771 0-2.03-1.739-3.77-3.767-3.77-2.028 0-3.767 1.74-3.767 3.77 0 2.031 1.594 3.771 3.767 3.771zm15.213 0c2.028 0 3.767-1.74 3.767-3.771 0-2.03-1.74-3.77-3.767-3.77-2.029 0-3.767 1.74-3.767 3.77 0 2.031 1.738 3.771 3.767 3.771zm15.357 0c2.029 0 3.767-1.74 3.767-3.771 0-2.03-1.738-3.77-3.767-3.77-2.028 0-3.767 1.74-3.767 3.77 0 2.031 1.594 3.771 3.767 3.771zm15.213 0c2.028 0 3.766-1.74 3.766-3.771 0-2.03-1.738-3.77-3.766-3.77-2.029 0-3.767 1.74-3.767 3.77 0 2.031 1.738 3.771 3.767 3.771zm15.357 0c2.028 0 3.767-1.74 3.767-3.771 0-2.03-1.739-3.77-3.767-3.77-2.028 0-3.767 1.74-3.767 3.77 0 2.031 1.594 3.771 3.767 3.771zm15.213 0c2.028 0 3.767-1.74 3.767-3.771 0-2.03-1.739-3.77-3.767-3.77-2.029 0-3.767 1.74-3.767 3.77 0 2.031 1.738 3.771 3.767 3.771zm15.357 0c2.029 0 3.767-1.74 3.767-3.771 0-2.03-1.738-3.77-3.767-3.77-2.028 0-3.767 1.74-3.767 3.77 0 2.031 1.594 3.771 3.767 3.771zm15.213 0c2.028 0 3.767-1.74 3.767-3.771 0-2.03-1.739-3.77-3.767-3.77-2.029 0-3.767 1.74-3.767 3.77 0 2.031 1.738 3.771 3.767 3.771zm15.357 0c2.029 0 3.767-1.74 3.767-3.771 0-2.03-1.738-3.77-3.767-3.77-2.028 0-3.767 1.74-3.767 3.77 0 2.031 1.594 3.771 3.767 3.771zm15.213 0c2.028 0 3.767-1.74 3.767-3.771 0-2.03-1.739-3.77-3.767-3.77-2.028 0-3.767 1.74-3.767 3.77 0 2.031 1.739 3.771 3.767 3.771zm15.358 0c2.028 0 3.766-1.74 3.766-3.771 0-2.03-1.738-3.77-3.766-3.77-2.029 0-3.767 1.74-3.767 3.77 0 2.031 1.738 3.771 3.767 3.771zm15.212 0c2.029 0 3.767-1.74 3.767-3.771 0-2.03-1.738-3.77-3.767-3.77-2.028 0-3.767 1.74-3.767 3.77 0 2.031 1.739 3.771 3.767 3.771zm15.358 0c2.028 0 3.767-1.74 3.767-3.771 0-2.03-1.739-3.77-3.767-3.77-2.029 0-3.767 1.74-3.767 3.77 0 2.031 1.738 3.771 3.767 3.771zm15.357 0c2.029 0 3.767-1.74 3.767-3.771 0-2.03-1.738-3.77-3.767-3.77-2.028 0-3.767 1.74-3.767 3.77-.144 2.031 1.594 3.771 3.767 3.771zm15.213 0c2.028 0 3.767-1.74 3.767-3.771 0-2.03-1.739-3.77-3.767-3.77-2.029 0-3.767 1.74-3.767 3.77 0 2.031 1.738 3.771 3.767 3.771zm15.357 0c2.029 0 3.767-1.74 3.767-3.771 0-2.03-1.738-3.77-3.767-3.77-2.028 0-3.767 1.74-3.767 3.77-.144 2.031 1.594 3.771 3.767 3.771zm15.213 0c2.028 0 3.767-1.74 3.767-3.771 0-2.03-1.739-3.77-3.767-3.77-2.028 0-3.767 1.74-3.767 3.77 0 2.031 1.739 3.771 3.767 3.771zm15.357 0c2.029 0 3.767-1.74 3.767-3.771 0-2.03-1.738-3.77-3.767-3.77-2.028 0-3.766 1.74-3.766 3.77-.145 2.031 1.593 3.771 3.766 3.771zM23.532 237.092c2.028 0 3.767-1.74 3.767-3.77 0-2.031-1.74-3.771-3.767-3.771-2.029 0-3.767 1.74-3.767 3.771 0 2.03 1.593 3.77 3.767 3.77zm15.213 0c2.028 0 3.766-1.74 3.766-3.77 0-2.031-1.738-3.771-3.767-3.771-2.028 0-3.767 1.74-3.767 3.771 0 2.03 1.74 3.77 3.768 3.77zm15.357 0c2.028 0 3.767-1.74 3.767-3.77 0-2.031-1.739-3.771-3.767-3.771-2.028 0-3.767 1.74-3.767 3.771 0 2.03 1.594 3.77 3.767 3.77zm15.213 0c2.028 0 3.767-1.74 3.767-3.77 0-2.031-1.74-3.771-3.767-3.771-2.029 0-3.767 1.74-3.767 3.771 0 2.03 1.738 3.77 3.767 3.77zm15.357 0c2.029 0 3.767-1.74 3.767-3.77 0-2.031-1.738-3.771-3.767-3.771-2.028 0-3.767 1.74-3.767 3.771 0 2.03 1.594 3.77 3.767 3.77zm15.213 0c2.028 0 3.766-1.74 3.766-3.77 0-2.031-1.738-3.771-3.766-3.771-2.029 0-3.767 1.74-3.767 3.771 0 2.03 1.738 3.77 3.767 3.77zm15.357 0c2.028 0 3.767-1.74 3.767-3.77 0-2.031-1.739-3.771-3.767-3.771-2.028 0-3.767 1.74-3.767 3.771 0 2.03 1.594 3.77 3.767 3.77zm15.213 0c2.028 0 3.767-1.74 3.767-3.77 0-2.031-1.739-3.771-3.767-3.771-2.029 0-3.767 1.74-3.767 3.771 0 2.03 1.738 3.77 3.767 3.77zm15.357 0c2.029 0 3.767-1.74 3.767-3.77 0-2.031-1.738-3.771-3.767-3.771-2.028 0-3.767 1.74-3.767 3.771 0 2.03 1.594 3.77 3.767 3.77zm15.213 0c2.028 0 3.767-1.74 3.767-3.77 0-2.031-1.739-3.771-3.767-3.771-2.029 0-3.767 1.74-3.767 3.771 0 2.03 1.738 3.77 3.767 3.77zm15.357 0c2.029 0 3.767-1.74 3.767-3.77 0-2.031-1.738-3.771-3.767-3.771-2.028 0-3.767 1.74-3.767 3.771 0 2.03 1.594 3.77 3.767 3.77zm15.213 0c2.028 0 3.767-1.74 3.767-3.77 0-2.031-1.739-3.771-3.767-3.771-2.028 0-3.767 1.74-3.767 3.771 0 2.03 1.739 3.77 3.767 3.77zm15.358 0c2.028 0 3.766-1.74 3.766-3.77 0-2.031-1.738-3.771-3.766-3.771-2.029 0-3.767 1.74-3.767 3.771 0 2.03 1.738 3.77 3.767 3.77zm15.212 0c2.029 0 3.767-1.74 3.767-3.77 0-2.031-1.738-3.771-3.767-3.771-2.028 0-3.767 1.74-3.767 3.771 0 2.03 1.739 3.77 3.767 3.77zm15.358 0c2.028 0 3.767-1.74 3.767-3.77 0-2.031-1.739-3.771-3.767-3.771-2.029 0-3.767 1.74-3.767 3.771 0 2.03 1.738 3.77 3.767 3.77zm15.357 0c2.029 0 3.767-1.74 3.767-3.77 0-2.031-1.738-3.771-3.767-3.771-2.028 0-3.767 1.74-3.767 3.771 0 2.03 1.594 3.77 3.767 3.77zm15.213 0c2.028 0 3.767-1.74 3.767-3.77 0-2.031-1.739-3.771-3.767-3.771-2.029 0-3.767 1.74-3.767 3.771 0 2.03 1.738 3.77 3.767 3.77zm15.357 0c2.029 0 3.767-1.74 3.767-3.77 0-2.031-1.738-3.771-3.767-3.771-2.028 0-3.767 1.74-3.767 3.771 0 2.03 1.594 3.77 3.767 3.77zm15.213 0c2.028 0 3.767-1.74 3.767-3.77 0-2.031-1.739-3.771-3.767-3.771-2.028 0-3.767 1.74-3.767 3.771 0 2.03 1.739 3.77 3.767 3.77zM8.174 252.463c2.029 0 3.767-1.74 3.767-3.77 0-2.03-1.738-3.771-3.767-3.771-2.028 0-3.767 1.741-3.767 3.771s1.739 3.77 3.767 3.77zm15.358 0c2.028 0 3.767-1.74 3.767-3.77 0-2.03-1.74-3.771-3.767-3.771-2.029 0-3.767 1.741-3.767 3.771s1.593 3.77 3.767 3.77zm15.213 0c2.028 0 3.766-1.74 3.766-3.77 0-2.03-1.738-3.771-3.767-3.771-2.028 0-3.767 1.741-3.767 3.771s1.74 3.77 3.768 3.77zm15.357 0c2.028 0 3.767-1.74 3.767-3.77 0-2.03-1.739-3.771-3.767-3.771-2.028 0-3.767 1.741-3.767 3.771s1.594 3.77 3.767 3.77zm15.213 0c2.028 0 3.767-1.74 3.767-3.77 0-2.03-1.74-3.771-3.767-3.771-2.029 0-3.767 1.741-3.767 3.771s1.738 3.77 3.767 3.77zm15.357 0a3.769 3.769 0 003.767-3.77 3.769 3.769 0 00-3.767-3.771 3.769 3.769 0 00-3.767 3.771 3.768 3.768 0 003.767 3.77zm19.08-3.796a3.769 3.769 0 00-3.756-3.781 3.77 3.77 0 00-3.778 3.76 3.769 3.769 0 003.757 3.781 3.769 3.769 0 003.777-3.76zm11.49 3.796c2.028 0 3.767-1.74 3.767-3.77 0-2.03-1.739-3.771-3.767-3.771-2.028 0-3.767 1.741-3.767 3.771s1.594 3.77 3.767 3.77zm15.213 0a3.769 3.769 0 003.767-3.77 3.77 3.77 0 00-3.767-3.771 3.768 3.768 0 00-3.767 3.771 3.768 3.768 0 003.767 3.77zm15.357 0c2.029 0 3.767-1.74 3.767-3.77 0-2.03-1.738-3.771-3.767-3.771-2.028 0-3.767 1.741-3.767 3.771s1.594 3.77 3.767 3.77zm15.213 0c2.028 0 3.767-1.74 3.767-3.77 0-2.03-1.739-3.771-3.767-3.771-2.029 0-3.767 1.741-3.767 3.771s1.738 3.77 3.767 3.77zm15.357 0c2.029 0 3.767-1.74 3.767-3.77 0-2.03-1.738-3.771-3.767-3.771-2.028 0-3.767 1.741-3.767 3.771s1.594 3.77 3.767 3.77zm15.213 0c2.028 0 3.767-1.74 3.767-3.77 0-2.03-1.739-3.771-3.767-3.771-2.028 0-3.767 1.741-3.767 3.771s1.739 3.77 3.767 3.77zm15.358 0c2.028 0 3.766-1.74 3.766-3.77 0-2.03-1.738-3.771-3.766-3.771-2.029 0-3.767 1.741-3.767 3.771s1.738 3.77 3.767 3.77zm15.212 0c2.029 0 3.767-1.74 3.767-3.77 0-2.03-1.738-3.771-3.767-3.771-2.028 0-3.767 1.741-3.767 3.771s1.739 3.77 3.767 3.77zm15.358 0c2.028 0 3.767-1.74 3.767-3.77 0-2.03-1.739-3.771-3.767-3.771-2.029 0-3.767 1.741-3.767 3.771s1.738 3.77 3.767 3.77zm15.357 0c2.029 0 3.767-1.74 3.767-3.77 0-2.03-1.738-3.771-3.767-3.771-2.028 0-3.767 1.741-3.767 3.771s1.594 3.77 3.767 3.77zm15.213 0a3.769 3.769 0 003.767-3.77 3.77 3.77 0 00-3.767-3.771 3.768 3.768 0 00-3.767 3.771 3.768 3.768 0 003.767 3.77zm15.357 0c2.029 0 3.767-1.74 3.767-3.77 0-2.03-1.738-3.771-3.767-3.771-2.028 0-3.767 1.741-3.767 3.771s1.594 3.77 3.767 3.77zM8.174 267.689c2.029 0 3.767-1.74 3.767-3.77 0-2.03-1.738-3.771-3.767-3.771-2.028 0-3.767 1.741-3.767 3.771s1.739 3.77 3.767 3.77zm15.358 0c2.028 0 3.767-1.74 3.767-3.77 0-2.03-1.739-3.771-3.767-3.771-2.029 0-3.767 1.741-3.767 3.771-.145 2.03 1.593 3.77 3.767 3.77zm15.213 0c2.028 0 3.766-1.74 3.766-3.77 0-2.03-1.738-3.771-3.767-3.771-2.028 0-3.767 1.741-3.767 3.771s1.74 3.77 3.768 3.77zm15.357 0c2.028 0 3.767-1.74 3.767-3.77 0-2.03-1.739-3.771-3.767-3.771-2.028 0-3.767 1.741-3.767 3.771s1.594 3.77 3.767 3.77zm15.213 0c2.028 0 3.767-1.74 3.767-3.77 0-2.03-1.74-3.771-3.767-3.771-2.029 0-3.767 1.741-3.767 3.771s1.738 3.77 3.767 3.77zm15.357 0c2.029 0 3.767-1.74 3.767-3.77 0-2.03-1.738-3.771-3.767-3.771-2.028 0-3.767 1.741-3.767 3.771s1.594 3.77 3.767 3.77zm15.213 0c2.028 0 3.766-1.74 3.766-3.77 0-2.03-1.738-3.771-3.766-3.771-2.029 0-3.767 1.741-3.767 3.771s1.738 3.77 3.767 3.77zm15.357 0c2.028 0 3.767-1.74 3.767-3.77 0-2.03-1.739-3.771-3.767-3.771-2.028 0-3.767 1.741-3.767 3.771s1.594 3.77 3.767 3.77zm15.213 0c2.028 0 3.767-1.74 3.767-3.77 0-2.03-1.739-3.771-3.767-3.771-2.029 0-3.767 1.741-3.767 3.771s1.738 3.77 3.767 3.77zm15.357 0c2.029 0 3.767-1.74 3.767-3.77 0-2.03-1.738-3.771-3.767-3.771-2.028 0-3.767 1.741-3.767 3.771s1.594 3.77 3.767 3.77zm15.213 0c2.028 0 3.767-1.74 3.767-3.77 0-2.03-1.739-3.771-3.767-3.771-2.029 0-3.767 1.741-3.767 3.771s1.738 3.77 3.767 3.77zm15.357 0c2.029 0 3.767-1.74 3.767-3.77 0-2.03-1.738-3.771-3.767-3.771-2.028 0-3.767 1.741-3.767 3.771s1.594 3.77 3.767 3.77zm15.213 0c2.028 0 3.767-1.74 3.767-3.77 0-2.03-1.739-3.771-3.767-3.771-2.028 0-3.767 1.741-3.767 3.771s1.739 3.77 3.767 3.77zm15.358 0c2.028 0 3.766-1.74 3.766-3.77 0-2.03-1.738-3.771-3.766-3.771-2.029 0-3.767 1.741-3.767 3.771s1.738 3.77 3.767 3.77zm15.212 0c2.029 0 3.767-1.74 3.767-3.77 0-2.03-1.738-3.771-3.767-3.771-2.028 0-3.767 1.741-3.767 3.771s1.739 3.77 3.767 3.77zm15.358 0c2.028 0 3.767-1.74 3.767-3.77 0-2.03-1.739-3.771-3.767-3.771-2.029 0-3.767 1.741-3.767 3.771s1.738 3.77 3.767 3.77zm15.357 0c2.029 0 3.767-1.74 3.767-3.77 0-2.03-1.738-3.771-3.767-3.771-2.028 0-3.767 1.741-3.767 3.771-.144 2.03 1.594 3.77 3.767 3.77zM8.174 283.06c2.029 0 3.767-1.74 3.767-3.77 0-2.03-1.738-3.77-3.767-3.77-2.028 0-3.767 1.74-3.767 3.77 0 2.03 1.739 3.77 3.767 3.77zm15.358 0c2.028 0 3.767-1.74 3.767-3.77 0-2.03-1.74-3.77-3.767-3.77-2.029 0-3.767 1.74-3.767 3.77 0 2.03 1.593 3.77 3.767 3.77zm15.213 0c2.028 0 3.766-1.74 3.766-3.77 0-2.03-1.738-3.77-3.767-3.77-2.028 0-3.767 1.74-3.767 3.77 0 2.03 1.74 3.77 3.768 3.77zm15.357 0c2.028 0 3.767-1.74 3.767-3.77 0-2.03-1.739-3.77-3.767-3.77-2.028 0-3.767 1.74-3.767 3.77 0 2.03 1.594 3.77 3.767 3.77zm15.213 0c2.028 0 3.767-1.74 3.767-3.77 0-2.03-1.74-3.77-3.767-3.77-2.029 0-3.767 1.74-3.767 3.77 0 2.03 1.738 3.77 3.767 3.77zm15.357 0c2.029 0 3.767-1.74 3.767-3.77 0-2.03-1.738-3.77-3.767-3.77-2.028 0-3.767 1.74-3.767 3.77 0 2.03 1.594 3.77 3.767 3.77zm15.213 0c2.028 0 3.766-1.74 3.766-3.77 0-2.03-1.738-3.77-3.766-3.77-2.029 0-3.767 1.74-3.767 3.77 0 2.03 1.738 3.77 3.767 3.77zm15.357 0c2.028 0 3.767-1.74 3.767-3.77 0-2.03-1.739-3.77-3.767-3.77-2.028 0-3.767 1.74-3.767 3.77 0 2.03 1.594 3.77 3.767 3.77zm15.213 0c2.028 0 3.767-1.74 3.767-3.77 0-2.03-1.739-3.77-3.767-3.77-2.029 0-3.767 1.74-3.767 3.77 0 2.03 1.738 3.77 3.767 3.77zm15.357 0c2.029 0 3.767-1.74 3.767-3.77 0-2.03-1.738-3.77-3.767-3.77-2.028 0-3.767 1.74-3.767 3.77 0 2.03 1.594 3.77 3.767 3.77zm15.213 0c2.028 0 3.767-1.74 3.767-3.77 0-2.03-1.739-3.77-3.767-3.77-2.029 0-3.767 1.74-3.767 3.77 0 2.03 1.738 3.77 3.767 3.77zm15.357 0c2.029 0 3.767-1.74 3.767-3.77 0-2.03-1.738-3.77-3.767-3.77-2.028 0-3.767 1.74-3.767 3.77 0 2.03 1.594 3.77 3.767 3.77zm15.213 0c2.028 0 3.767-1.74 3.767-3.77 0-2.03-1.739-3.77-3.767-3.77-2.028 0-3.767 1.74-3.767 3.77 0 2.03 1.739 3.77 3.767 3.77zm15.358 0c2.028 0 3.766-1.74 3.766-3.77 0-2.03-1.738-3.77-3.766-3.77-2.029 0-3.767 1.74-3.767 3.77 0 2.03 1.738 3.77 3.767 3.77zm15.212 0c2.029 0 3.767-1.74 3.767-3.77 0-2.03-1.738-3.77-3.767-3.77-2.028 0-3.767 1.74-3.767 3.77 0 2.03 1.739 3.77 3.767 3.77zm15.358 0c2.028 0 3.767-1.74 3.767-3.77 0-2.03-1.739-3.77-3.767-3.77-2.029 0-3.767 1.74-3.767 3.77 0 2.03 1.738 3.77 3.767 3.77zM8.174 298.286c2.029 0 3.767-1.74 3.767-3.77 0-2.03-1.738-3.77-3.767-3.77-2.028 0-3.767 1.74-3.767 3.77 0 2.03 1.739 3.77 3.767 3.77zm15.358 0c2.028 0 3.767-1.74 3.767-3.77 0-2.03-1.74-3.77-3.767-3.77-2.029 0-3.767 1.74-3.767 3.77 0 2.03 1.593 3.77 3.767 3.77zm15.213 0c2.028 0 3.766-1.74 3.766-3.77 0-2.03-1.738-3.77-3.767-3.77-2.028 0-3.767 1.74-3.767 3.77 0 2.03 1.74 3.77 3.768 3.77zm15.357 0c2.028 0 3.767-1.74 3.767-3.77 0-2.03-1.739-3.77-3.767-3.77-2.028 0-3.767 1.74-3.767 3.77 0 2.03 1.594 3.77 3.767 3.77zm15.213 0c2.028 0 3.767-1.74 3.767-3.77 0-2.03-1.74-3.77-3.767-3.77-2.029 0-3.767 1.74-3.767 3.77 0 2.03 1.738 3.77 3.767 3.77zm15.357 0c2.029 0 3.767-1.74 3.767-3.77 0-2.03-1.738-3.77-3.767-3.77-2.028 0-3.767 1.74-3.767 3.77 0 2.03 1.594 3.77 3.767 3.77zm15.213 0c2.028 0 3.766-1.74 3.766-3.77 0-2.03-1.738-3.77-3.766-3.77-2.029 0-3.767 1.74-3.767 3.77 0 2.03 1.738 3.77 3.767 3.77zm15.357 0c2.028 0 3.767-1.74 3.767-3.77 0-2.03-1.739-3.77-3.767-3.77-2.028 0-3.767 1.74-3.767 3.77 0 2.03 1.594 3.77 3.767 3.77zm15.213 0c2.028 0 3.767-1.74 3.767-3.77 0-2.03-1.739-3.77-3.767-3.77-2.029 0-3.767 1.74-3.767 3.77 0 2.03 1.738 3.77 3.767 3.77zm15.357 0c2.029 0 3.767-1.74 3.767-3.77 0-2.03-1.738-3.77-3.767-3.77-2.028 0-3.767 1.74-3.767 3.77 0 2.03 1.594 3.77 3.767 3.77zm15.213 0c2.028 0 3.767-1.74 3.767-3.77 0-2.03-1.739-3.77-3.767-3.77-2.029 0-3.767 1.74-3.767 3.77 0 2.03 1.738 3.77 3.767 3.77zm15.357 0c2.029 0 3.767-1.74 3.767-3.77 0-2.03-1.738-3.77-3.767-3.77-2.028 0-3.767 1.74-3.767 3.77 0 2.03 1.594 3.77 3.767 3.77zm30.571 0c2.028 0 3.766-1.74 3.766-3.77 0-2.03-1.738-3.77-3.766-3.77-2.029 0-3.767 1.74-3.767 3.77 0 2.03 1.738 3.77 3.767 3.77zm15.212 0c2.029 0 3.767-1.74 3.767-3.77 0-2.03-1.738-3.77-3.767-3.77-2.028 0-3.767 1.74-3.767 3.77 0 2.03 1.739 3.77 3.767 3.77zM8.174 313.657c2.029 0 3.767-1.74 3.767-3.77 0-2.03-1.738-3.77-3.767-3.77-2.028 0-3.767 1.74-3.767 3.77 0 2.03 1.739 3.77 3.767 3.77zm15.358 0c2.028 0 3.767-1.74 3.767-3.77 0-2.03-1.739-3.77-3.767-3.77-2.029 0-3.767 1.74-3.767 3.77-.145 2.03 1.593 3.77 3.767 3.77zm15.213 0c2.028 0 3.766-1.74 3.766-3.77 0-2.03-1.738-3.77-3.767-3.77-2.028 0-3.767 1.74-3.767 3.77 0 2.03 1.74 3.77 3.768 3.77zm15.357 0c2.028 0 3.767-1.74 3.767-3.77 0-2.03-1.739-3.77-3.767-3.77-2.028 0-3.767 1.74-3.767 3.77 0 2.03 1.594 3.77 3.767 3.77zm15.213 0c2.028 0 3.767-1.74 3.767-3.77 0-2.03-1.74-3.77-3.767-3.77-2.029 0-3.767 1.74-3.767 3.77 0 2.03 1.738 3.77 3.767 3.77zm15.357 0c2.029 0 3.767-1.74 3.767-3.77 0-2.03-1.738-3.77-3.767-3.77-2.028 0-3.767 1.74-3.767 3.77 0 2.03 1.594 3.77 3.767 3.77zm15.213 0c2.028 0 3.766-1.74 3.766-3.77 0-2.03-1.738-3.77-3.766-3.77-2.029 0-3.767 1.74-3.767 3.77 0 2.03 1.738 3.77 3.767 3.77zm15.357 0c2.028 0 3.767-1.74 3.767-3.77 0-2.03-1.739-3.77-3.767-3.77-2.028 0-3.767 1.74-3.767 3.77 0 2.03 1.594 3.77 3.767 3.77zm15.213 0c2.028 0 3.767-1.74 3.767-3.77 0-2.03-1.739-3.77-3.767-3.77-2.029 0-3.767 1.74-3.767 3.77 0 2.03 1.738 3.77 3.767 3.77zm15.357 0c2.029 0 3.767-1.74 3.767-3.77 0-2.03-1.738-3.77-3.767-3.77-2.028 0-3.767 1.74-3.767 3.77 0 2.03 1.594 3.77 3.767 3.77zm15.213 0c2.028 0 3.767-1.74 3.767-3.77 0-2.03-1.739-3.77-3.767-3.77-2.029 0-3.767 1.74-3.767 3.77 0 2.03 1.738 3.77 3.767 3.77zm15.357 0c2.029 0 3.767-1.74 3.767-3.77 0-2.03-1.738-3.77-3.767-3.77-2.028 0-3.767 1.74-3.767 3.77 0 2.03 1.594 3.77 3.767 3.77zm15.213 0c2.028 0 3.767-1.74 3.767-3.77 0-2.03-1.739-3.77-3.767-3.77-2.028 0-3.767 1.74-3.767 3.77 0 2.03 1.739 3.77 3.767 3.77zm15.358 0c2.028 0 3.766-1.74 3.766-3.77 0-2.03-1.738-3.77-3.766-3.77-2.029 0-3.767 1.74-3.767 3.77 0 2.03 1.738 3.77 3.767 3.77zM8.174 328.883c2.029 0 3.767-1.74 3.767-3.77 0-2.03-1.738-3.77-3.767-3.77-2.028 0-3.767 1.74-3.767 3.77 0 2.03 1.739 3.77 3.767 3.77zm15.358 0c2.028 0 3.767-1.74 3.767-3.77 0-2.03-1.74-3.77-3.767-3.77-2.029 0-3.767 1.74-3.767 3.77 0 2.03 1.593 3.77 3.767 3.77zm15.213 0c2.028 0 3.766-1.74 3.766-3.77 0-2.03-1.738-3.77-3.767-3.77-2.028 0-3.767 1.74-3.767 3.77 0 2.03 1.74 3.77 3.768 3.77zm15.357 0c2.028 0 3.767-1.74 3.767-3.77 0-2.03-1.739-3.77-3.767-3.77-2.028 0-3.767 1.74-3.767 3.77 0 2.03 1.594 3.77 3.767 3.77zm15.213 0c2.028 0 3.767-1.74 3.767-3.77 0-2.03-1.74-3.77-3.767-3.77-2.029 0-3.767 1.74-3.767 3.77 0 2.03 1.738 3.77 3.767 3.77zm15.357 0c2.029 0 3.767-1.74 3.767-3.77 0-2.03-1.738-3.77-3.767-3.77-2.028 0-3.767 1.74-3.767 3.77 0 2.03 1.594 3.77 3.767 3.77zm15.213 0c2.028 0 3.766-1.74 3.766-3.77 0-2.03-1.738-3.77-3.766-3.77-2.029 0-3.767 1.74-3.767 3.77 0 2.03 1.738 3.77 3.767 3.77zm15.357 0c2.028 0 3.767-1.74 3.767-3.77 0-2.03-1.739-3.77-3.767-3.77-2.028 0-3.767 1.74-3.767 3.77 0 2.03 1.594 3.77 3.767 3.77zm15.213 0c2.028 0 3.767-1.74 3.767-3.77 0-2.03-1.739-3.77-3.767-3.77-2.029 0-3.767 1.74-3.767 3.77 0 2.03 1.738 3.77 3.767 3.77zm15.357 0c2.029 0 3.767-1.74 3.767-3.77 0-2.03-1.738-3.77-3.767-3.77-2.028 0-3.767 1.74-3.767 3.77 0 2.03 1.594 3.77 3.767 3.77zm15.213 0c2.028 0 3.767-1.74 3.767-3.77 0-2.03-1.739-3.77-3.767-3.77-2.029 0-3.767 1.74-3.767 3.77 0 2.03 1.738 3.77 3.767 3.77zm15.357 0c2.029 0 3.767-1.74 3.767-3.77 0-2.03-1.738-3.77-3.767-3.77-2.028 0-3.767 1.74-3.767 3.77 0 2.03 1.594 3.77 3.767 3.77zm15.213 0c2.028 0 3.767-1.74 3.767-3.77 0-2.03-1.739-3.77-3.767-3.77-2.028 0-3.767 1.74-3.767 3.77 0 2.03 1.739 3.77 3.767 3.77zm15.358 0c2.028 0 3.766-1.74 3.766-3.77 0-2.03-1.738-3.77-3.766-3.77-2.029 0-3.767 1.74-3.767 3.77 0 2.03 1.738 3.77 3.767 3.77zm15.212 0c2.029 0 3.767-1.74 3.767-3.77 0-2.03-1.738-3.77-3.767-3.77-2.028 0-3.767 1.74-3.767 3.77 0 2.03 1.739 3.77 3.767 3.77zm15.358 0c2.028 0 3.767-1.74 3.767-3.77 0-2.03-1.739-3.77-3.767-3.77-2.029 0-3.767 1.74-3.767 3.77 0 2.03 1.738 3.77 3.767 3.77zM8.174 344.254c2.029 0 3.767-1.74 3.767-3.77 0-2.03-1.738-3.77-3.767-3.77-2.028 0-3.767 1.74-3.767 3.77 0 2.03 1.739 3.77 3.767 3.77zm15.358 0c2.028 0 3.767-1.74 3.767-3.77 0-2.03-1.739-3.77-3.767-3.77-2.029 0-3.767 1.74-3.767 3.77-.145 2.03 1.593 3.77 3.767 3.77zm15.213 0c2.028 0 3.766-1.74 3.766-3.77 0-2.03-1.738-3.77-3.767-3.77-2.028 0-3.767 1.74-3.767 3.77 0 2.03 1.74 3.77 3.768 3.77zm15.357 0c2.028 0 3.767-1.74 3.767-3.77 0-2.03-1.739-3.77-3.767-3.77-2.028 0-3.767 1.74-3.767 3.77 0 2.03 1.594 3.77 3.767 3.77zm15.213 0c2.028 0 3.767-1.74 3.767-3.77 0-2.03-1.74-3.77-3.767-3.77-2.029 0-3.767 1.74-3.767 3.77 0 2.03 1.738 3.77 3.767 3.77zm15.357 0c2.029 0 3.767-1.74 3.767-3.77 0-2.03-1.738-3.77-3.767-3.77-2.028 0-3.767 1.74-3.767 3.77 0 2.03 1.594 3.77 3.767 3.77zm15.213 0c2.028 0 3.766-1.74 3.766-3.77 0-2.03-1.738-3.77-3.766-3.77-2.029 0-3.767 1.74-3.767 3.77 0 2.03 1.738 3.77 3.767 3.77zm15.357 0c2.028 0 3.767-1.74 3.767-3.77 0-2.03-1.739-3.77-3.767-3.77-2.028 0-3.767 1.74-3.767 3.77 0 2.03 1.594 3.77 3.767 3.77zm15.213 0c2.028 0 3.767-1.74 3.767-3.77 0-2.03-1.739-3.77-3.767-3.77-2.029 0-3.767 1.74-3.767 3.77 0 2.03 1.738 3.77 3.767 3.77zm15.357 0c2.029 0 3.767-1.74 3.767-3.77 0-2.03-1.738-3.77-3.767-3.77-2.028 0-3.767 1.74-3.767 3.77 0 2.03 1.594 3.77 3.767 3.77zm15.213 0c2.028 0 3.767-1.74 3.767-3.77 0-2.03-1.739-3.77-3.767-3.77-2.029 0-3.767 1.74-3.767 3.77 0 2.03 1.738 3.77 3.767 3.77zm15.357 0c2.029 0 3.767-1.74 3.767-3.77 0-2.03-1.738-3.77-3.767-3.77-2.028 0-3.767 1.74-3.767 3.77 0 2.03 1.594 3.77 3.767 3.77zm15.213 0c2.028 0 3.767-1.74 3.767-3.77 0-2.03-1.739-3.77-3.767-3.77-2.028 0-3.767 1.74-3.767 3.77 0 2.03 1.739 3.77 3.767 3.77zm15.358 0c2.028 0 3.766-1.74 3.766-3.77 0-2.03-1.738-3.77-3.766-3.77-2.029 0-3.767 1.74-3.767 3.77 0 2.03 1.738 3.77 3.767 3.77zm15.212 0c2.029 0 3.767-1.74 3.767-3.77 0-2.03-1.738-3.77-3.767-3.77-2.028 0-3.767 1.74-3.767 3.77 0 2.03 1.739 3.77 3.767 3.77zM8.174 359.48c2.029 0 3.767-1.74 3.767-3.77 0-2.03-1.738-3.77-3.767-3.77-2.028 0-3.767 1.74-3.767 3.77 0 2.175 1.739 3.77 3.767 3.77zm15.358 0c2.028 0 3.767-1.74 3.767-3.77 0-2.03-1.739-3.77-3.767-3.77-2.029 0-3.767 1.74-3.767 3.77-.145 2.175 1.593 3.77 3.767 3.77zm15.213 0c2.028 0 3.766-1.74 3.766-3.77 0-2.03-1.738-3.77-3.767-3.77-2.028 0-3.767 1.74-3.767 3.77 0 2.175 1.74 3.77 3.768 3.77zm15.357 0c2.028 0 3.767-1.74 3.767-3.77 0-2.03-1.739-3.77-3.767-3.77-2.028 0-3.767 1.74-3.767 3.77 0 2.175 1.594 3.77 3.767 3.77zm15.213 0c2.028 0 3.767-1.74 3.767-3.77 0-2.03-1.74-3.77-3.767-3.77-2.029 0-3.767 1.74-3.767 3.77 0 2.175 1.738 3.77 3.767 3.77zm15.357 0c2.029 0 3.767-1.74 3.767-3.77 0-2.03-1.738-3.77-3.767-3.77-2.028 0-3.767 1.74-3.767 3.77 0 2.175 1.594 3.77 3.767 3.77zm15.213 0c2.028 0 3.766-1.74 3.766-3.77 0-2.03-1.738-3.77-3.766-3.77-2.029 0-3.767 1.74-3.767 3.77 0 2.175 1.738 3.77 3.767 3.77zm15.357 0c2.028 0 3.767-1.74 3.767-3.77 0-2.03-1.739-3.77-3.767-3.77-2.028 0-3.767 1.74-3.767 3.77 0 2.175 1.594 3.77 3.767 3.77zm15.213 0c2.028 0 3.767-1.74 3.767-3.77 0-2.03-1.739-3.77-3.767-3.77-2.029 0-3.767 1.74-3.767 3.77 0 2.175 1.738 3.77 3.767 3.77zm15.357 0c2.029 0 3.767-1.74 3.767-3.77 0-2.03-1.738-3.77-3.767-3.77-2.028 0-3.767 1.74-3.767 3.77 0 2.175 1.594 3.77 3.767 3.77zm15.213 0c2.028 0 3.767-1.74 3.767-3.77 0-2.03-1.739-3.77-3.767-3.77-2.029 0-3.767 1.74-3.767 3.77 0 2.175 1.738 3.77 3.767 3.77zm15.357 0c2.029 0 3.767-1.74 3.767-3.77 0-2.03-1.738-3.77-3.767-3.77-2.028 0-3.767 1.74-3.767 3.77 0 2.175 1.594 3.77 3.767 3.77zm15.213 0c2.028 0 3.767-1.74 3.767-3.77 0-2.03-1.739-3.77-3.767-3.77-2.028 0-3.767 1.74-3.767 3.77 0 2.175 1.739 3.77 3.767 3.77zm15.358 0c2.028 0 3.766-1.74 3.766-3.77 0-2.03-1.738-3.77-3.766-3.77-2.029 0-3.767 1.74-3.767 3.77 0 2.175 1.738 3.77 3.767 3.77zM8.174 374.852c2.029 0 3.767-1.741 3.767-3.771s-1.738-3.77-3.767-3.77c-2.028 0-3.767 1.74-3.767 3.77 0 2.03 1.739 3.771 3.767 3.771zm15.358 0c2.028 0 3.767-1.741 3.767-3.771s-1.739-3.77-3.767-3.77c-2.029 0-3.767 1.74-3.767 3.77-.145 2.03 1.593 3.771 3.767 3.771zm15.213 0c2.028 0 3.766-1.741 3.766-3.771s-1.738-3.77-3.767-3.77c-2.028 0-3.767 1.74-3.767 3.77 0 2.03 1.74 3.771 3.768 3.771zm15.357 0c2.028 0 3.767-1.741 3.767-3.771s-1.739-3.77-3.767-3.77c-2.028 0-3.767 1.74-3.767 3.77 0 2.03 1.594 3.771 3.767 3.771zm15.213 0c2.028 0 3.767-1.741 3.767-3.771s-1.74-3.77-3.767-3.77c-2.029 0-3.767 1.74-3.767 3.77 0 2.03 1.738 3.771 3.767 3.771zm15.357 0c2.029 0 3.767-1.741 3.767-3.771s-1.738-3.77-3.767-3.77c-2.028 0-3.767 1.74-3.767 3.77 0 2.03 1.594 3.771 3.767 3.771zm15.213 0c2.028 0 3.766-1.741 3.766-3.771s-1.738-3.77-3.766-3.77c-2.029 0-3.767 1.74-3.767 3.77 0 2.03 1.738 3.771 3.767 3.771zm15.357 0c2.028 0 3.767-1.741 3.767-3.771s-1.739-3.77-3.767-3.77c-2.028 0-3.767 1.74-3.767 3.77 0 2.03 1.594 3.771 3.767 3.771zm15.213 0c2.028 0 3.767-1.741 3.767-3.771s-1.739-3.77-3.767-3.77c-2.029 0-3.767 1.74-3.767 3.77 0 2.03 1.738 3.771 3.767 3.771zm15.357 0c2.029 0 3.767-1.741 3.767-3.771s-1.738-3.77-3.767-3.77c-2.028 0-3.767 1.74-3.767 3.77 0 2.03 1.594 3.771 3.767 3.771zm15.213 0c2.028 0 3.767-1.741 3.767-3.771s-1.739-3.77-3.767-3.77c-2.029 0-3.767 1.74-3.767 3.77 0 2.03 1.738 3.771 3.767 3.771zm15.357 0c2.029 0 3.767-1.741 3.767-3.771s-1.738-3.77-3.767-3.77c-2.028 0-3.767 1.74-3.767 3.77 0 2.03 1.594 3.771 3.767 3.771zm15.213 0c2.028 0 3.767-1.741 3.767-3.771s-1.739-3.77-3.767-3.77c-2.028 0-3.767 1.74-3.767 3.77 0 2.03 1.739 3.771 3.767 3.771zm15.358 0c2.028 0 3.766-1.741 3.766-3.771s-1.738-3.77-3.766-3.77c-2.029 0-3.767 1.74-3.767 3.77 0 2.03 1.738 3.771 3.767 3.771zM8.174 390.078c2.029 0 3.767-1.74 3.767-3.771 0-2.03-1.738-3.77-3.767-3.77-2.028 0-3.767 1.74-3.767 3.77 0 2.176 1.739 3.771 3.767 3.771zm15.358 0c2.028 0 3.767-1.74 3.767-3.771 0-2.03-1.739-3.77-3.767-3.77-2.029 0-3.767 1.74-3.767 3.77-.145 2.176 1.593 3.771 3.767 3.771zm15.213 0c2.028 0 3.766-1.74 3.766-3.771 0-2.03-1.738-3.77-3.767-3.77-2.028 0-3.767 1.74-3.767 3.77 0 2.176 1.74 3.771 3.768 3.771zm15.357 0c2.028 0 3.767-1.74 3.767-3.771 0-2.03-1.739-3.77-3.767-3.77-2.028 0-3.767 1.74-3.767 3.77 0 2.176 1.594 3.771 3.767 3.771zm15.213 0c2.028 0 3.767-1.74 3.767-3.771 0-2.03-1.74-3.77-3.767-3.77-2.029 0-3.767 1.74-3.767 3.77 0 2.176 1.738 3.771 3.767 3.771zm15.357 0c2.029 0 3.767-1.74 3.767-3.771 0-2.03-1.738-3.77-3.767-3.77-2.028 0-3.767 1.74-3.767 3.77 0 2.176 1.594 3.771 3.767 3.771zm15.213 0c2.028 0 3.766-1.74 3.766-3.771 0-2.03-1.738-3.77-3.766-3.77-2.029 0-3.767 1.74-3.767 3.77 0 2.176 1.738 3.771 3.767 3.771zm15.357 0c2.028 0 3.767-1.74 3.767-3.771 0-2.03-1.739-3.77-3.767-3.77-2.028 0-3.767 1.74-3.767 3.77 0 2.176 1.594 3.771 3.767 3.771zm15.213 0c2.028 0 3.767-1.74 3.767-3.771 0-2.03-1.739-3.77-3.767-3.77-2.029 0-3.767 1.74-3.767 3.77 0 2.176 1.738 3.771 3.767 3.771zm15.357 0c2.029 0 3.767-1.74 3.767-3.771 0-2.03-1.738-3.77-3.767-3.77-2.028 0-3.767 1.74-3.767 3.77 0 2.176 1.594 3.771 3.767 3.771zm15.213 0c2.028 0 3.767-1.74 3.767-3.771 0-2.03-1.739-3.77-3.767-3.77-2.029 0-3.767 1.74-3.767 3.77 0 2.176 1.738 3.771 3.767 3.771zm15.357 0c2.029 0 3.767-1.74 3.767-3.771 0-2.03-1.738-3.77-3.767-3.77-2.028 0-3.767 1.74-3.767 3.77 0 2.176 1.594 3.771 3.767 3.771zm15.213 0c2.028 0 3.767-1.74 3.767-3.771 0-2.03-1.739-3.77-3.767-3.77-2.028 0-3.767 1.74-3.767 3.77 0 2.176 1.739 3.771 3.767 3.771zm15.358 0c2.028 0 3.766-1.74 3.766-3.771 0-2.03-1.738-3.77-3.766-3.77-2.029 0-3.767 1.74-3.767 3.77 0 2.176 1.738 3.771 3.767 3.771zm15.212 0c2.029 0 3.767-1.74 3.767-3.771 0-2.03-1.738-3.77-3.767-3.77-2.028 0-3.767 1.74-3.767 3.77 0 2.176 1.739 3.771 3.767 3.771zM8.174 405.449c2.029 0 3.767-1.74 3.767-3.771 0-2.03-1.738-3.77-3.767-3.77-2.028 0-3.767 1.74-3.767 3.77 0 2.031 1.739 3.771 3.767 3.771zm15.358 0c2.028 0 3.767-1.74 3.767-3.771 0-2.03-1.74-3.77-3.767-3.77-2.029 0-3.767 1.74-3.767 3.77 0 2.031 1.593 3.771 3.767 3.771zm15.213 0c2.028 0 3.766-1.74 3.766-3.771 0-2.03-1.738-3.77-3.767-3.77-2.028 0-3.767 1.74-3.767 3.77 0 2.031 1.74 3.771 3.768 3.771zm15.357 0c2.028 0 3.767-1.74 3.767-3.771 0-2.03-1.739-3.77-3.767-3.77-2.028 0-3.767 1.74-3.767 3.77 0 2.031 1.594 3.771 3.767 3.771zm15.213 0c2.028 0 3.767-1.74 3.767-3.771 0-2.03-1.74-3.77-3.767-3.77-2.029 0-3.767 1.74-3.767 3.77 0 2.031 1.738 3.771 3.767 3.771zm15.357 0c2.029 0 3.767-1.74 3.767-3.771 0-2.03-1.738-3.77-3.767-3.77-2.028 0-3.767 1.74-3.767 3.77 0 2.031 1.594 3.771 3.767 3.771zm15.213 0c2.028 0 3.766-1.74 3.766-3.771 0-2.03-1.738-3.77-3.766-3.77-2.029 0-3.767 1.74-3.767 3.77 0 2.031 1.738 3.771 3.767 3.771zm15.357 0c2.028 0 3.767-1.74 3.767-3.771 0-2.03-1.739-3.77-3.767-3.77-2.028 0-3.767 1.74-3.767 3.77 0 2.031 1.594 3.771 3.767 3.771zm15.213 0c2.028 0 3.767-1.74 3.767-3.771 0-2.03-1.739-3.77-3.767-3.77-2.029 0-3.767 1.74-3.767 3.77 0 2.031 1.738 3.771 3.767 3.771zm15.357 0c2.029 0 3.767-1.74 3.767-3.771 0-2.03-1.738-3.77-3.767-3.77-2.028 0-3.767 1.74-3.767 3.77 0 2.031 1.594 3.771 3.767 3.771zm15.213 0c2.028 0 3.767-1.74 3.767-3.771 0-2.03-1.739-3.77-3.767-3.77-2.029 0-3.767 1.74-3.767 3.77 0 2.031 1.738 3.771 3.767 3.771zm15.357 0c2.029 0 3.767-1.74 3.767-3.771 0-2.03-1.738-3.77-3.767-3.77-2.028 0-3.767 1.74-3.767 3.77 0 2.031 1.594 3.771 3.767 3.771zm15.213 0c2.028 0 3.767-1.74 3.767-3.771 0-2.03-1.739-3.77-3.767-3.77-2.028 0-3.767 1.74-3.767 3.77 0 2.031 1.739 3.771 3.767 3.771zm15.358 0c2.028 0 3.766-1.74 3.766-3.771 0-2.03-1.738-3.77-3.766-3.77-2.029 0-3.767 1.74-3.767 3.77 0 2.031 1.738 3.771 3.767 3.771zm15.212 0c2.029 0 3.767-1.74 3.767-3.771 0-2.03-1.738-3.77-3.767-3.77-2.028 0-3.767 1.74-3.767 3.77 0 2.031 1.739 3.771 3.767 3.771zm15.358 0c2.028 0 3.767-1.74 3.767-3.771 0-2.03-1.739-3.77-3.767-3.77-2.029 0-3.767 1.74-3.767 3.77 0 2.031 1.738 3.771 3.767 3.771zM8.174 420.675c2.029 0 3.767-1.74 3.767-3.77 0-2.031-1.738-3.771-3.767-3.771-2.028 0-3.767 1.74-3.767 3.771 0 2.175 1.739 3.77 3.767 3.77zm15.358 0c2.028 0 3.767-1.74 3.767-3.77 0-2.031-1.739-3.771-3.767-3.771-2.029 0-3.767 1.74-3.767 3.771-.145 2.175 1.593 3.77 3.767 3.77zm15.213 0c2.028 0 3.766-1.74 3.766-3.77 0-2.031-1.738-3.771-3.767-3.771-2.028 0-3.767 1.74-3.767 3.771 0 2.175 1.74 3.77 3.768 3.77zm15.357 0c2.028 0 3.767-1.74 3.767-3.77 0-2.031-1.739-3.771-3.767-3.771-2.028 0-3.767 1.74-3.767 3.771 0 2.175 1.594 3.77 3.767 3.77zm15.213 0c2.028 0 3.767-1.74 3.767-3.77 0-2.031-1.74-3.771-3.767-3.771-2.029 0-3.767 1.74-3.767 3.771 0 2.175 1.738 3.77 3.767 3.77zm15.357 0c2.029 0 3.767-1.74 3.767-3.77 0-2.031-1.738-3.771-3.767-3.771-2.028 0-3.767 1.74-3.767 3.771 0 2.175 1.594 3.77 3.767 3.77zm15.213 0c2.028 0 3.766-1.74 3.766-3.77 0-2.031-1.738-3.771-3.766-3.771-2.029 0-3.767 1.74-3.767 3.771 0 2.175 1.738 3.77 3.767 3.77zm15.357 0c2.028 0 3.767-1.74 3.767-3.77 0-2.031-1.739-3.771-3.767-3.771-2.028 0-3.767 1.74-3.767 3.771 0 2.175 1.594 3.77 3.767 3.77zm15.213 0c2.028 0 3.767-1.74 3.767-3.77 0-2.031-1.739-3.771-3.767-3.771-2.029 0-3.767 1.74-3.767 3.771 0 2.175 1.738 3.77 3.767 3.77zm15.357 0c2.029 0 3.767-1.74 3.767-3.77 0-2.031-1.738-3.771-3.767-3.771-2.028 0-3.767 1.74-3.767 3.771 0 2.175 1.594 3.77 3.767 3.77zm15.213 0c2.028 0 3.767-1.74 3.767-3.77 0-2.031-1.739-3.771-3.767-3.771-2.029 0-3.767 1.74-3.767 3.771 0 2.175 1.738 3.77 3.767 3.77zm15.357 0c2.029 0 3.767-1.74 3.767-3.77 0-2.031-1.738-3.771-3.767-3.771-2.028 0-3.767 1.74-3.767 3.771 0 2.175 1.594 3.77 3.767 3.77zm15.213 0c2.028 0 3.767-1.74 3.767-3.77 0-2.031-1.739-3.771-3.767-3.771-2.028 0-3.767 1.74-3.767 3.771 0 2.175 1.739 3.77 3.767 3.77zm15.358 0c2.028 0 3.766-1.74 3.766-3.77 0-2.031-1.738-3.771-3.766-3.771-2.029 0-3.767 1.74-3.767 3.771 0 2.175 1.738 3.77 3.767 3.77zm15.212 0c2.029 0 3.767-1.74 3.767-3.77 0-2.031-1.738-3.771-3.767-3.771-2.028 0-3.767 1.74-3.767 3.771 0 2.175 1.739 3.77 3.767 3.77zm15.358 0c2.028 0 3.767-1.74 3.767-3.77 0-2.031-1.739-3.771-3.767-3.771-2.029 0-3.767 1.74-3.767 3.771 0 2.175 1.738 3.77 3.767 3.77zM8.174 436.046c2.029 0 3.767-1.74 3.767-3.77 0-2.03-1.738-3.771-3.767-3.771-2.028 0-3.767 1.741-3.767 3.771s1.739 3.77 3.767 3.77zm15.358 0c2.028 0 3.767-1.74 3.767-3.77 0-2.03-1.739-3.771-3.767-3.771-2.029 0-3.767 1.741-3.767 3.771-.145 2.03 1.593 3.77 3.767 3.77zm15.213 0c2.028 0 3.766-1.74 3.766-3.77 0-2.03-1.738-3.771-3.767-3.771-2.028 0-3.767 1.741-3.767 3.771s1.74 3.77 3.768 3.77zm15.357 0c2.028 0 3.767-1.74 3.767-3.77 0-2.03-1.739-3.771-3.767-3.771-2.028 0-3.767 1.741-3.767 3.771s1.594 3.77 3.767 3.77zm15.213 0c2.028 0 3.767-1.74 3.767-3.77 0-2.03-1.74-3.771-3.767-3.771-2.029 0-3.767 1.741-3.767 3.771s1.738 3.77 3.767 3.77zm15.357 0c2.029 0 3.767-1.74 3.767-3.77 0-2.03-1.738-3.771-3.767-3.771-2.028 0-3.767 1.741-3.767 3.771s1.594 3.77 3.767 3.77zm15.213 0c2.028 0 3.766-1.74 3.766-3.77 0-2.03-1.738-3.771-3.766-3.771-2.029 0-3.767 1.741-3.767 3.771s1.738 3.77 3.767 3.77zm15.357 0c2.028 0 3.767-1.74 3.767-3.77 0-2.03-1.739-3.771-3.767-3.771-2.028 0-3.767 1.741-3.767 3.771s1.594 3.77 3.767 3.77zm15.213 0c2.028 0 3.767-1.74 3.767-3.77 0-2.03-1.739-3.771-3.767-3.771-2.029 0-3.767 1.741-3.767 3.771s1.738 3.77 3.767 3.77zm15.357 0c2.029 0 3.767-1.74 3.767-3.77 0-2.03-1.738-3.771-3.767-3.771-2.028 0-3.767 1.741-3.767 3.771s1.594 3.77 3.767 3.77zm15.213 0c2.028 0 3.767-1.74 3.767-3.77 0-2.03-1.739-3.771-3.767-3.771-2.029 0-3.767 1.741-3.767 3.771s1.738 3.77 3.767 3.77zm15.357 0c2.029 0 3.767-1.74 3.767-3.77 0-2.03-1.738-3.771-3.767-3.771-2.028 0-3.767 1.741-3.767 3.771s1.594 3.77 3.767 3.77zm15.213 0c2.028 0 3.767-1.74 3.767-3.77 0-2.03-1.739-3.771-3.767-3.771-2.028 0-3.767 1.741-3.767 3.771s1.739 3.77 3.767 3.77zm15.358 0c2.028 0 3.766-1.74 3.766-3.77 0-2.03-1.738-3.771-3.766-3.771-2.029 0-3.767 1.741-3.767 3.771s1.738 3.77 3.767 3.77zm15.212 0c2.029 0 3.767-1.74 3.767-3.77 0-2.03-1.738-3.771-3.767-3.771-2.028 0-3.767 1.741-3.767 3.771s1.739 3.77 3.767 3.77zm15.358 0c2.028 0 3.767-1.74 3.767-3.77 0-2.03-1.739-3.771-3.767-3.771-2.029 0-3.767 1.741-3.767 3.771s1.738 3.77 3.767 3.77zM8.174 451.417c2.029 0 3.767-1.74 3.767-3.77 0-2.03-1.738-3.771-3.767-3.771-2.028 0-3.767 1.741-3.767 3.771s1.739 3.77 3.767 3.77zm15.358 0c2.028 0 3.767-1.74 3.767-3.77 0-2.03-1.739-3.771-3.767-3.771-2.029 0-3.767 1.741-3.767 3.771-.145 2.03 1.593 3.77 3.767 3.77zm15.213 0c2.028 0 3.766-1.74 3.766-3.77 0-2.03-1.738-3.771-3.767-3.771-2.028 0-3.767 1.741-3.767 3.771s1.74 3.77 3.768 3.77zm15.357 0c2.028 0 3.767-1.74 3.767-3.77 0-2.03-1.739-3.771-3.767-3.771-2.028 0-3.767 1.741-3.767 3.771s1.594 3.77 3.767 3.77zm15.213 0c2.028 0 3.767-1.74 3.767-3.77 0-2.03-1.74-3.771-3.767-3.771-2.029 0-3.767 1.741-3.767 3.771s1.738 3.77 3.767 3.77zm15.357-.145a3.769 3.769 0 003.767-3.77 3.769 3.769 0 00-3.767-3.771 3.769 3.769 0 00-3.767 3.771 3.768 3.768 0 003.767 3.77zm15.213 0a3.768 3.768 0 003.766-3.77 3.768 3.768 0 00-3.766-3.771 3.769 3.769 0 00-3.767 3.771 3.768 3.768 0 003.767 3.77zm15.357.145c2.028 0 3.767-1.74 3.767-3.77 0-2.03-1.739-3.771-3.767-3.771-2.028 0-3.767 1.741-3.767 3.771s1.594 3.77 3.767 3.77zm15.213-.145a3.769 3.769 0 003.767-3.77 3.77 3.77 0 00-3.767-3.771 3.768 3.768 0 00-3.767 3.771 3.768 3.768 0 003.767 3.77zm15.357.145c2.029 0 3.767-1.74 3.767-3.77 0-2.03-1.738-3.771-3.767-3.771-2.028 0-3.767 1.741-3.767 3.771s1.594 3.77 3.767 3.77zm15.213 0c2.028 0 3.767-1.74 3.767-3.77 0-2.03-1.739-3.771-3.767-3.771-2.029 0-3.767 1.741-3.767 3.771s1.738 3.77 3.767 3.77zm15.357 0c2.029 0 3.767-1.74 3.767-3.77 0-2.03-1.738-3.771-3.767-3.771-2.028 0-3.767 1.741-3.767 3.771s1.594 3.77 3.767 3.77zm15.213 0c2.028 0 3.767-1.74 3.767-3.77 0-2.03-1.739-3.771-3.767-3.771-2.028 0-3.767 1.741-3.767 3.771s1.739 3.77 3.767 3.77zm15.358 0c2.028 0 3.766-1.74 3.766-3.77 0-2.03-1.738-3.771-3.766-3.771-2.029 0-3.767 1.741-3.767 3.771s1.738 3.77 3.767 3.77zm15.212 0c2.029 0 3.767-1.74 3.767-3.77 0-2.03-1.738-3.771-3.767-3.771-2.028 0-3.767 1.741-3.767 3.771s1.739 3.77 3.767 3.77zm15.358 0c2.028 0 3.767-1.74 3.767-3.77 0-2.03-1.739-3.771-3.767-3.771-2.029 0-3.767 1.741-3.767 3.771s1.738 3.77 3.767 3.77zm15.357 0c2.029 0 3.767-1.74 3.767-3.77 0-2.03-1.738-3.771-3.767-3.771-2.028 0-3.767 1.741-3.767 3.771-.144 2.03 1.594 3.77 3.767 3.77zM8.174 466.643c2.029 0 3.767-1.74 3.767-3.77 0-2.03-1.738-3.77-3.767-3.77-2.028 0-3.767 1.74-3.767 3.77 0 2.03 1.739 3.77 3.767 3.77zm15.358 0c2.028 0 3.767-1.74 3.767-3.77 0-2.03-1.739-3.77-3.767-3.77-2.029 0-3.767 1.74-3.767 3.77-.145 2.03 1.593 3.77 3.767 3.77zm15.213 0c2.028 0 3.766-1.74 3.766-3.77 0-2.03-1.738-3.77-3.767-3.77-2.028 0-3.767 1.74-3.767 3.77 0 2.03 1.74 3.77 3.768 3.77zm15.357 0c2.028 0 3.767-1.74 3.767-3.77 0-2.03-1.739-3.77-3.767-3.77-2.028 0-3.767 1.74-3.767 3.77 0 2.03 1.594 3.77 3.767 3.77zm15.213 0c2.028 0 3.767-1.74 3.767-3.77 0-2.03-1.74-3.77-3.767-3.77-2.029 0-3.767 1.74-3.767 3.77 0 2.03 1.738 3.77 3.767 3.77zm15.357 0a3.769 3.769 0 003.767-3.77 3.769 3.769 0 00-3.767-3.77 3.768 3.768 0 00-3.767 3.77 3.768 3.768 0 003.767 3.77zm15.213 0a3.768 3.768 0 003.766-3.77 3.768 3.768 0 00-3.766-3.77 3.768 3.768 0 00-3.767 3.77 3.768 3.768 0 003.767 3.77zm15.357 0c2.028 0 3.767-1.74 3.767-3.77 0-2.03-1.739-3.77-3.767-3.77-2.028 0-3.767 1.74-3.767 3.77 0 2.03 1.594 3.77 3.767 3.77zm15.213 0a3.769 3.769 0 003.767-3.77 3.768 3.768 0 10-7.534 0 3.768 3.768 0 003.767 3.77zm15.357 0c2.029 0 3.767-1.74 3.767-3.77 0-2.03-1.738-3.77-3.767-3.77-2.028 0-3.767 1.74-3.767 3.77 0 2.03 1.594 3.77 3.767 3.77zm15.213 0c2.028 0 3.767-1.74 3.767-3.77 0-2.03-1.739-3.77-3.767-3.77-2.029 0-3.767 1.74-3.767 3.77 0 2.03 1.738 3.77 3.767 3.77zm15.357 0c2.029 0 3.767-1.74 3.767-3.77 0-2.03-1.738-3.77-3.767-3.77-2.028 0-3.767 1.74-3.767 3.77 0 2.03 1.594 3.77 3.767 3.77zm15.213 0c2.028 0 3.767-1.74 3.767-3.77 0-2.03-1.739-3.77-3.767-3.77-2.028 0-3.767 1.74-3.767 3.77 0 2.03 1.739 3.77 3.767 3.77zm15.358 0c2.028 0 3.766-1.74 3.766-3.77 0-2.03-1.738-3.77-3.766-3.77-2.029 0-3.767 1.74-3.767 3.77 0 2.03 1.738 3.77 3.767 3.77zm15.212 0c2.029 0 3.767-1.74 3.767-3.77 0-2.03-1.738-3.77-3.767-3.77-2.028 0-3.767 1.74-3.767 3.77 0 2.03 1.739 3.77 3.767 3.77zm15.358 0c2.028 0 3.767-1.74 3.767-3.77 0-2.03-1.739-3.77-3.767-3.77-2.029 0-3.767 1.74-3.767 3.77 0 2.03 1.738 3.77 3.767 3.77zm15.357 0c2.029 0 3.767-1.74 3.767-3.77 0-2.03-1.738-3.77-3.767-3.77-2.028 0-3.767 1.74-3.767 3.77-.144 2.03 1.594 3.77 3.767 3.77zM8.174 482.014c2.029 0 3.767-1.74 3.767-3.77 0-2.03-1.738-3.77-3.767-3.77-2.028 0-3.767 1.74-3.767 3.77 0 2.03 1.739 3.77 3.767 3.77zm15.358 0c2.028 0 3.767-1.74 3.767-3.77 0-2.03-1.739-3.77-3.767-3.77-2.029 0-3.767 1.74-3.767 3.77-.145 2.03 1.593 3.77 3.767 3.77zm15.213 0c2.028 0 3.766-1.74 3.766-3.77 0-2.03-1.738-3.77-3.767-3.77-2.028 0-3.767 1.74-3.767 3.77 0 2.03 1.74 3.77 3.768 3.77zm15.357 0c2.028 0 3.767-1.74 3.767-3.77 0-2.03-1.739-3.77-3.767-3.77-2.028 0-3.767 1.74-3.767 3.77 0 2.03 1.594 3.77 3.767 3.77zm15.213 0c2.028 0 3.767-1.74 3.767-3.77 0-2.03-1.74-3.77-3.767-3.77-2.029 0-3.767 1.74-3.767 3.77 0 2.03 1.738 3.77 3.767 3.77zm15.357 0c2.029 0 3.767-1.74 3.767-3.77 0-2.03-1.738-3.77-3.767-3.77-2.028 0-3.767 1.74-3.767 3.77 0 2.03 1.594 3.77 3.767 3.77zm15.213 0c2.028 0 3.766-1.74 3.766-3.77 0-2.03-1.738-3.77-3.766-3.77-2.029 0-3.767 1.74-3.767 3.77 0 2.03 1.738 3.77 3.767 3.77zm15.357 0c2.028 0 3.767-1.74 3.767-3.77 0-2.03-1.739-3.77-3.767-3.77-2.028 0-3.767 1.74-3.767 3.77 0 2.03 1.594 3.77 3.767 3.77zm15.213 0c2.028 0 3.767-1.74 3.767-3.77 0-2.03-1.739-3.77-3.767-3.77-2.029 0-3.767 1.74-3.767 3.77 0 2.03 1.738 3.77 3.767 3.77zm15.357 0c2.029 0 3.767-1.74 3.767-3.77 0-2.03-1.738-3.77-3.767-3.77-2.028 0-3.767 1.74-3.767 3.77 0 2.03 1.594 3.77 3.767 3.77zm15.213 0c2.028 0 3.767-1.74 3.767-3.77 0-2.03-1.739-3.77-3.767-3.77-2.029 0-3.767 1.74-3.767 3.77 0 2.03 1.738 3.77 3.767 3.77zm15.357 0c2.029 0 3.767-1.74 3.767-3.77 0-2.03-1.738-3.77-3.767-3.77-2.028 0-3.767 1.74-3.767 3.77 0 2.03 1.594 3.77 3.767 3.77zm15.213 0c2.028 0 3.767-1.74 3.767-3.77 0-2.03-1.739-3.77-3.767-3.77-2.028 0-3.767 1.74-3.767 3.77 0 2.03 1.739 3.77 3.767 3.77zm15.358 0c2.028 0 3.766-1.74 3.766-3.77 0-2.03-1.738-3.77-3.766-3.77-2.029 0-3.767 1.74-3.767 3.77 0 2.03 1.738 3.77 3.767 3.77zm15.212 0c2.029 0 3.767-1.74 3.767-3.77 0-2.03-1.738-3.77-3.767-3.77-2.028 0-3.767 1.74-3.767 3.77 0 2.03 1.739 3.77 3.767 3.77zm15.358 0c2.028 0 3.767-1.74 3.767-3.77 0-2.03-1.739-3.77-3.767-3.77-2.029 0-3.767 1.74-3.767 3.77 0 2.03 1.738 3.77 3.767 3.77zm15.357 0c2.029 0 3.767-1.74 3.767-3.77 0-2.03-1.738-3.77-3.767-3.77-2.028 0-3.767 1.74-3.767 3.77-.144 2.03 1.594 3.77 3.767 3.77zM8.174 497.24c2.029 0 3.767-1.74 3.767-3.77 0-2.03-1.738-3.77-3.767-3.77-2.028 0-3.767 1.74-3.767 3.77 0 2.03 1.739 3.77 3.767 3.77zm15.358 0c2.028 0 3.767-1.74 3.767-3.77 0-2.03-1.739-3.77-3.767-3.77-2.029 0-3.767 1.74-3.767 3.77-.145 2.03 1.593 3.77 3.767 3.77zm15.213 0c2.028 0 3.766-1.74 3.766-3.77 0-2.03-1.738-3.77-3.767-3.77-2.028 0-3.767 1.74-3.767 3.77 0 2.03 1.74 3.77 3.768 3.77zm15.357 0c2.028 0 3.767-1.74 3.767-3.77 0-2.03-1.739-3.77-3.767-3.77-2.028 0-3.767 1.74-3.767 3.77 0 2.03 1.594 3.77 3.767 3.77zm15.213 0c2.028 0 3.767-1.74 3.767-3.77 0-2.03-1.74-3.77-3.767-3.77-2.029 0-3.767 1.74-3.767 3.77 0 2.03 1.738 3.77 3.767 3.77zm15.357 0a3.769 3.769 0 003.767-3.77 3.769 3.769 0 00-3.767-3.77 3.768 3.768 0 00-3.767 3.77 3.768 3.768 0 003.767 3.77zm15.213 0a3.768 3.768 0 003.766-3.77 3.768 3.768 0 00-3.766-3.77 3.768 3.768 0 00-3.767 3.77 3.768 3.768 0 003.767 3.77zm15.357 0c2.028 0 3.767-1.74 3.767-3.77 0-2.03-1.739-3.77-3.767-3.77-2.028 0-3.767 1.74-3.767 3.77 0 2.03 1.594 3.77 3.767 3.77zm15.213 0a3.769 3.769 0 003.767-3.77 3.768 3.768 0 10-7.534 0 3.768 3.768 0 003.767 3.77zm15.357 0c2.029 0 3.767-1.74 3.767-3.77 0-2.03-1.738-3.77-3.767-3.77-2.028 0-3.767 1.74-3.767 3.77 0 2.03 1.594 3.77 3.767 3.77zm15.213 0c2.028 0 3.767-1.74 3.767-3.77 0-2.03-1.739-3.77-3.767-3.77-2.029 0-3.767 1.74-3.767 3.77 0 2.03 1.738 3.77 3.767 3.77zm15.357 0c2.029 0 3.767-1.74 3.767-3.77 0-2.03-1.738-3.77-3.767-3.77-2.028 0-3.767 1.74-3.767 3.77 0 2.03 1.594 3.77 3.767 3.77zm15.213 0c2.028 0 3.767-1.74 3.767-3.77 0-2.03-1.739-3.77-3.767-3.77-2.028 0-3.767 1.74-3.767 3.77 0 2.03 1.739 3.77 3.767 3.77zm15.358 0c2.028 0 3.766-1.74 3.766-3.77 0-2.03-1.738-3.77-3.766-3.77-2.029 0-3.767 1.74-3.767 3.77 0 2.03 1.738 3.77 3.767 3.77zm15.212 0c2.029 0 3.767-1.74 3.767-3.77 0-2.03-1.738-3.77-3.767-3.77-2.028 0-3.767 1.74-3.767 3.77 0 2.03 1.739 3.77 3.767 3.77zm15.358 0c2.028 0 3.767-1.74 3.767-3.77 0-2.03-1.739-3.77-3.767-3.77-2.029 0-3.767 1.74-3.767 3.77 0 2.03 1.738 3.77 3.767 3.77zM8.174 512.611c2.029 0 3.767-1.74 3.767-3.77 0-2.03-1.738-3.77-3.767-3.77-2.028 0-3.767 1.74-3.767 3.77 0 2.03 1.739 3.77 3.767 3.77zm15.358 0c2.028 0 3.767-1.74 3.767-3.77 0-2.03-1.739-3.77-3.767-3.77-2.029 0-3.767 1.74-3.767 3.77-.145 2.03 1.593 3.77 3.767 3.77zm15.213 0c2.028 0 3.766-1.74 3.766-3.77 0-2.03-1.738-3.77-3.767-3.77-2.028 0-3.767 1.74-3.767 3.77 0 2.03 1.74 3.77 3.768 3.77zm15.357 0c2.028 0 3.767-1.74 3.767-3.77 0-2.03-1.739-3.77-3.767-3.77-2.028 0-3.767 1.74-3.767 3.77 0 2.03 1.594 3.77 3.767 3.77zm15.213 0c2.028 0 3.767-1.74 3.767-3.77 0-2.03-1.74-3.77-3.767-3.77-2.029 0-3.767 1.74-3.767 3.77 0 2.03 1.738 3.77 3.767 3.77zm15.357-.145a3.769 3.769 0 003.767-3.77 3.769 3.769 0 00-3.767-3.77 3.768 3.768 0 00-3.767 3.77 3.768 3.768 0 003.767 3.77zm15.213 0a3.768 3.768 0 003.766-3.77 3.768 3.768 0 00-3.766-3.77 3.768 3.768 0 00-3.767 3.77 3.768 3.768 0 003.767 3.77zm15.357.145c2.028 0 3.767-1.74 3.767-3.77 0-2.03-1.739-3.77-3.767-3.77-2.028 0-3.767 1.74-3.767 3.77 0 2.03 1.594 3.77 3.767 3.77zm15.213-.145a3.769 3.769 0 003.767-3.77 3.768 3.768 0 10-7.534 0 3.768 3.768 0 003.767 3.77zm15.357.145c2.029 0 3.767-1.74 3.767-3.77 0-2.03-1.738-3.77-3.767-3.77-2.028 0-3.767 1.74-3.767 3.77 0 2.03 1.594 3.77 3.767 3.77zm15.213 0c2.028 0 3.767-1.74 3.767-3.77 0-2.03-1.739-3.77-3.767-3.77-2.029 0-3.767 1.74-3.767 3.77 0 2.03 1.738 3.77 3.767 3.77zm15.357 0c2.029 0 3.767-1.74 3.767-3.77 0-2.03-1.738-3.77-3.767-3.77-2.028 0-3.767 1.74-3.767 3.77 0 2.03 1.594 3.77 3.767 3.77zm15.213 0c2.028 0 3.767-1.74 3.767-3.77 0-2.03-1.739-3.77-3.767-3.77-2.028 0-3.767 1.74-3.767 3.77 0 2.03 1.739 3.77 3.767 3.77zm15.358 0c2.028 0 3.766-1.74 3.766-3.77 0-2.03-1.738-3.77-3.766-3.77-2.029 0-3.767 1.74-3.767 3.77 0 2.03 1.738 3.77 3.767 3.77zm15.212 0c2.029 0 3.767-1.74 3.767-3.77 0-2.03-1.738-3.77-3.767-3.77-2.028 0-3.767 1.74-3.767 3.77 0 2.03 1.739 3.77 3.767 3.77zM8.174 527.837c2.029 0 3.767-1.74 3.767-3.77 0-2.03-1.738-3.77-3.767-3.77-2.028 0-3.767 1.74-3.767 3.77 0 2.03 1.739 3.77 3.767 3.77zm15.358 0c2.028 0 3.767-1.74 3.767-3.77 0-2.03-1.739-3.77-3.767-3.77-2.029 0-3.767 1.74-3.767 3.77-.145 2.03 1.593 3.77 3.767 3.77zm15.213 0c2.028 0 3.766-1.74 3.766-3.77 0-2.03-1.738-3.77-3.767-3.77-2.028 0-3.767 1.74-3.767 3.77 0 2.03 1.74 3.77 3.768 3.77zm15.357 0c2.028 0 3.767-1.74 3.767-3.77 0-2.03-1.739-3.77-3.767-3.77-2.028 0-3.767 1.74-3.767 3.77 0 2.03 1.594 3.77 3.767 3.77zm15.213 0c2.028 0 3.767-1.74 3.767-3.77 0-2.03-1.74-3.77-3.767-3.77-2.029 0-3.767 1.74-3.767 3.77 0 2.03 1.738 3.77 3.767 3.77zm15.357 0c2.029 0 3.767-1.74 3.767-3.77 0-2.03-1.738-3.77-3.767-3.77-2.028 0-3.767 1.74-3.767 3.77 0 2.03 1.594 3.77 3.767 3.77zm15.213 0c2.028 0 3.766-1.74 3.766-3.77 0-2.03-1.738-3.77-3.766-3.77-2.029 0-3.767 1.74-3.767 3.77 0 2.03 1.738 3.77 3.767 3.77zm15.357 0c2.028 0 3.767-1.74 3.767-3.77 0-2.03-1.739-3.77-3.767-3.77-2.028 0-3.767 1.74-3.767 3.77 0 2.03 1.594 3.77 3.767 3.77zm15.213 0c2.028 0 3.767-1.74 3.767-3.77 0-2.03-1.739-3.77-3.767-3.77-2.029 0-3.767 1.74-3.767 3.77 0 2.03 1.738 3.77 3.767 3.77zm15.357 0c2.029 0 3.767-1.74 3.767-3.77 0-2.03-1.738-3.77-3.767-3.77-2.028 0-3.767 1.74-3.767 3.77 0 2.03 1.594 3.77 3.767 3.77zm15.213 0c2.028 0 3.767-1.74 3.767-3.77 0-2.03-1.739-3.77-3.767-3.77-2.029 0-3.767 1.74-3.767 3.77 0 2.03 1.738 3.77 3.767 3.77zm15.357 0c2.029 0 3.767-1.74 3.767-3.77 0-2.03-1.738-3.77-3.767-3.77-2.028 0-3.767 1.74-3.767 3.77 0 2.03 1.594 3.77 3.767 3.77zm15.213 0c2.028 0 3.767-1.74 3.767-3.77 0-2.03-1.739-3.77-3.767-3.77-2.028 0-3.767 1.74-3.767 3.77 0 2.03 1.739 3.77 3.767 3.77zm15.358 0c2.028 0 3.766-1.74 3.766-3.77 0-2.03-1.738-3.77-3.766-3.77-2.029 0-3.767 1.74-3.767 3.77 0 2.03 1.738 3.77 3.767 3.77zm15.212 0c2.029 0 3.767-1.74 3.767-3.77 0-2.03-1.738-3.77-3.767-3.77-2.028 0-3.767 1.74-3.767 3.77 0 2.03 1.739 3.77 3.767 3.77zM8.174 543.208c2.029 0 3.767-1.74 3.767-3.77 0-2.03-1.738-3.77-3.767-3.77-2.028 0-3.767 1.74-3.767 3.77 0 2.03 1.739 3.77 3.767 3.77zm15.358 0c2.028 0 3.767-1.74 3.767-3.77 0-2.03-1.739-3.77-3.767-3.77-2.029 0-3.767 1.74-3.767 3.77-.145 2.03 1.593 3.77 3.767 3.77zm15.213 0c2.028 0 3.766-1.74 3.766-3.77 0-2.03-1.738-3.77-3.767-3.77-2.028 0-3.767 1.74-3.767 3.77 0 2.03 1.74 3.77 3.768 3.77zm15.357 0c2.028 0 3.767-1.74 3.767-3.77 0-2.03-1.739-3.77-3.767-3.77-2.028 0-3.767 1.74-3.767 3.77 0 2.03 1.594 3.77 3.767 3.77zm15.213 0c2.028 0 3.767-1.74 3.767-3.77 0-2.03-1.74-3.77-3.767-3.77-2.029 0-3.767 1.74-3.767 3.77 0 2.03 1.738 3.77 3.767 3.77zm15.357 0c2.029 0 3.767-1.74 3.767-3.77 0-2.03-1.738-3.77-3.767-3.77-2.028 0-3.767 1.74-3.767 3.77 0 2.03 1.594 3.77 3.767 3.77zm15.213 0c2.028 0 3.766-1.74 3.766-3.77 0-2.03-1.738-3.77-3.766-3.77-2.029 0-3.767 1.74-3.767 3.77 0 2.03 1.738 3.77 3.767 3.77zm15.357 0c2.028 0 3.767-1.74 3.767-3.77 0-2.03-1.739-3.77-3.767-3.77-2.028 0-3.767 1.74-3.767 3.77 0 2.03 1.594 3.77 3.767 3.77zm15.213 0c2.028 0 3.767-1.74 3.767-3.77 0-2.03-1.739-3.77-3.767-3.77-2.029 0-3.767 1.74-3.767 3.77 0 2.03 1.738 3.77 3.767 3.77zm15.357 0c2.029 0 3.767-1.74 3.767-3.77 0-2.03-1.738-3.77-3.767-3.77-2.028 0-3.767 1.74-3.767 3.77 0 2.03 1.594 3.77 3.767 3.77zm15.213 0c2.028 0 3.767-1.74 3.767-3.77 0-2.03-1.739-3.77-3.767-3.77-2.029 0-3.767 1.74-3.767 3.77 0 2.03 1.738 3.77 3.767 3.77zm15.357 0c2.029 0 3.767-1.74 3.767-3.77 0-2.03-1.738-3.77-3.767-3.77-2.028 0-3.767 1.74-3.767 3.77 0 2.03 1.594 3.77 3.767 3.77zm15.213 0c2.028 0 3.767-1.74 3.767-3.77 0-2.03-1.739-3.77-3.767-3.77-2.028 0-3.767 1.74-3.767 3.77 0 2.03 1.739 3.77 3.767 3.77zm15.358 0c2.028 0 3.766-1.74 3.766-3.77 0-2.03-1.738-3.77-3.766-3.77-2.029 0-3.767 1.74-3.767 3.77 0 2.03 1.738 3.77 3.767 3.77zm15.212 0c2.029 0 3.767-1.74 3.767-3.77 0-2.03-1.738-3.77-3.767-3.77-2.028 0-3.767 1.74-3.767 3.77 0 2.03 1.739 3.77 3.767 3.77zM8.174 558.435c2.029 0 3.767-1.741 3.767-3.771s-1.738-3.77-3.767-3.77c-2.028 0-3.767 1.74-3.767 3.77 0 2.175 1.739 3.771 3.767 3.771zm15.358 0c2.028 0 3.767-1.741 3.767-3.771s-1.739-3.77-3.767-3.77c-2.029 0-3.767 1.74-3.767 3.77-.145 2.175 1.593 3.771 3.767 3.771zm15.213 0c2.028 0 3.766-1.741 3.766-3.771s-1.738-3.77-3.767-3.77c-2.028 0-3.767 1.74-3.767 3.77 0 2.175 1.74 3.771 3.768 3.771zm15.357 0c2.028 0 3.767-1.741 3.767-3.771s-1.739-3.77-3.767-3.77c-2.028 0-3.767 1.74-3.767 3.77 0 2.175 1.594 3.771 3.767 3.771zm15.213 0c2.028 0 3.767-1.741 3.767-3.771s-1.74-3.77-3.767-3.77c-2.029 0-3.767 1.74-3.767 3.77 0 2.175 1.738 3.771 3.767 3.771zm15.357 0c2.029 0 3.767-1.741 3.767-3.771s-1.738-3.77-3.767-3.77c-2.028 0-3.767 1.74-3.767 3.77 0 2.175 1.594 3.771 3.767 3.771zm15.213 0c2.028 0 3.766-1.741 3.766-3.771s-1.738-3.77-3.766-3.77c-2.029 0-3.767 1.74-3.767 3.77 0 2.175 1.738 3.771 3.767 3.771zm15.357 0c2.028 0 3.767-1.741 3.767-3.771s-1.739-3.77-3.767-3.77c-2.028 0-3.767 1.74-3.767 3.77 0 2.175 1.594 3.771 3.767 3.771zm15.213 0c2.028 0 3.767-1.741 3.767-3.771s-1.739-3.77-3.767-3.77c-2.029 0-3.767 1.74-3.767 3.77 0 2.175 1.738 3.771 3.767 3.771zm15.357 0c2.029 0 3.767-1.741 3.767-3.771s-1.738-3.77-3.767-3.77c-2.028 0-3.767 1.74-3.767 3.77 0 2.175 1.594 3.771 3.767 3.771zm15.213 0c2.028 0 3.767-1.741 3.767-3.771s-1.739-3.77-3.767-3.77c-2.029 0-3.767 1.74-3.767 3.77 0 2.175 1.738 3.771 3.767 3.771zm15.357 0c2.029 0 3.767-1.741 3.767-3.771s-1.738-3.77-3.767-3.77c-2.028 0-3.767 1.74-3.767 3.77 0 2.175 1.594 3.771 3.767 3.771zm15.213 0c2.028 0 3.767-1.741 3.767-3.771s-1.739-3.77-3.767-3.77c-2.028 0-3.767 1.74-3.767 3.77 0 2.175 1.739 3.771 3.767 3.771zM8.174 573.806c2.029 0 3.767-1.74 3.767-3.771 0-2.03-1.738-3.77-3.767-3.77-2.028 0-3.767 1.74-3.767 3.77 0 2.031 1.739 3.771 3.767 3.771zm15.358 0c2.028 0 3.767-1.74 3.767-3.771 0-2.03-1.739-3.77-3.767-3.77-2.029 0-3.767 1.74-3.767 3.77-.145 2.031 1.593 3.771 3.767 3.771zm30.57 0c2.028 0 3.767-1.74 3.767-3.771 0-2.03-1.739-3.77-3.767-3.77-2.028 0-3.767 1.74-3.767 3.77 0 2.031 1.594 3.771 3.767 3.771zm15.213 0c2.028 0 3.767-1.74 3.767-3.771 0-2.03-1.74-3.77-3.767-3.77-2.029 0-3.767 1.74-3.767 3.77 0 2.031 1.738 3.771 3.767 3.771zm15.357 0c2.029 0 3.767-1.74 3.767-3.771 0-2.03-1.738-3.77-3.767-3.77-2.028 0-3.767 1.74-3.767 3.77 0 2.031 1.594 3.771 3.767 3.771zm15.213 0c2.028 0 3.766-1.74 3.766-3.771 0-2.03-1.738-3.77-3.766-3.77-2.029 0-3.767 1.74-3.767 3.77 0 2.031 1.738 3.771 3.767 3.771zm15.357 0c2.028 0 3.767-1.74 3.767-3.771 0-2.03-1.739-3.77-3.767-3.77-2.028 0-3.767 1.74-3.767 3.77 0 2.031 1.594 3.771 3.767 3.771zm15.213 0c2.028 0 3.767-1.74 3.767-3.771 0-2.03-1.739-3.77-3.767-3.77-2.029 0-3.767 1.74-3.767 3.77 0 2.031 1.738 3.771 3.767 3.771zm15.357 0c2.029 0 3.767-1.74 3.767-3.771 0-2.03-1.738-3.77-3.767-3.77-2.028 0-3.767 1.74-3.767 3.77 0 2.031 1.594 3.771 3.767 3.771zm15.213 0c2.028 0 3.767-1.74 3.767-3.771 0-2.03-1.739-3.77-3.767-3.77-2.029 0-3.767 1.74-3.767 3.77 0 2.031 1.738 3.771 3.767 3.771zm15.357 0c2.029 0 3.767-1.74 3.767-3.771 0-2.03-1.738-3.77-3.767-3.77-2.028 0-3.767 1.74-3.767 3.77 0 2.031 1.594 3.771 3.767 3.771zM69.315 589.032c2.028 0 3.767-1.74 3.767-3.77 0-2.031-1.74-3.771-3.767-3.771-2.029 0-3.767 1.74-3.767 3.771 0 2.175 1.738 3.77 3.767 3.77zm15.357 0c2.029 0 3.767-1.74 3.767-3.77 0-2.031-1.738-3.771-3.767-3.771-2.028 0-3.767 1.74-3.767 3.771 0 2.175 1.594 3.77 3.767 3.77zm15.213 0c2.028 0 3.766-1.74 3.766-3.77 0-2.031-1.738-3.771-3.766-3.771-2.029 0-3.767 1.74-3.767 3.771 0 2.175 1.738 3.77 3.767 3.77zm15.357 0c2.028 0 3.767-1.74 3.767-3.77 0-2.031-1.739-3.771-3.767-3.771-2.028 0-3.767 1.74-3.767 3.771 0 2.175 1.594 3.77 3.767 3.77zm15.213 0c2.028 0 3.767-1.74 3.767-3.77 0-2.031-1.739-3.771-3.767-3.771-2.029 0-3.767 1.74-3.767 3.771 0 2.175 1.738 3.77 3.767 3.77zm-45.783 15.371c2.029 0 3.767-1.74 3.767-3.77 0-2.031-1.738-3.771-3.767-3.771-2.028 0-3.767 1.74-3.767 3.771 0 2.03 1.594 3.77 3.767 3.77zm15.213 0c2.028 0 3.766-1.74 3.766-3.77 0-2.031-1.738-3.771-3.766-3.771-2.029 0-3.767 1.74-3.767 3.771 0 2.03 1.738 3.77 3.767 3.77zm15.357 0c2.028 0 3.767-1.74 3.767-3.77 0-2.031-1.739-3.771-3.767-3.771-2.028 0-3.767 1.74-3.767 3.771 0 2.03 1.594 3.77 3.767 3.77zm-30.57 15.226c2.029 0 3.767-1.74 3.767-3.77 0-2.03-1.738-3.771-3.767-3.771-2.028 0-3.767 1.741-3.767 3.771 0 2.175 1.594 3.77 3.767 3.77zm15.213 0c2.028 0 3.766-1.74 3.766-3.77 0-2.03-1.738-3.771-3.766-3.771-2.029 0-3.767 1.741-3.767 3.771 0 2.175 1.738 3.77 3.767 3.77zm15.357 0c2.028 0 3.767-1.74 3.767-3.77 0-2.03-1.739-3.771-3.767-3.771-2.028 0-3.767 1.741-3.767 3.771 0 2.175 1.594 3.77 3.767 3.77zM84.672 635c2.029 0 3.767-1.74 3.767-3.77 0-2.03-1.738-3.771-3.767-3.771-2.028 0-3.767 1.741-3.767 3.771S82.5 635 84.672 635zm15.213 0c2.028 0 3.766-1.74 3.766-3.77 0-2.03-1.738-3.771-3.766-3.771-2.029 0-3.767 1.741-3.767 3.771s1.738 3.77 3.767 3.77zm15.357 0c2.028 0 3.767-1.74 3.767-3.77 0-2.03-1.739-3.771-3.767-3.771-2.028 0-3.767 1.741-3.767 3.771s1.594 3.77 3.767 3.77z" opacity=".2" fill="#000"/></svg>