<svg width="86" height="19" fill="none" xmlns="http://www.w3.org/2000/svg"><path d="M6.753 9.697a.929.929 0 011.412 0l4.444 5.201a.929.929 0 01-.706 1.532H3.014a.929.929 0 01-.706-1.532l4.445-5.201z" fill="#1D634A"/><path d="M6.753 5.261a.929.929 0 011.412 0l4.444 5.202a.929.929 0 01-.706 1.532H3.014a.929.929 0 01-.706-1.532L6.753 5.26z" fill="#278362"/><path d="M6.753.826a.929.929 0 011.412 0l4.444 5.202a.929.929 0 01-.706 1.532H3.014a.929.929 0 01-.706-1.532L6.753.826z" fill="#3EA47F"/><path d="M25.772 4.568v1.648H22.16v1.78h2.703v1.601H22.16v3.417H20V4.568h5.772zm3.93 8.542c-.69 0-1.314-.14-1.87-.42a3.224 3.224 0 01-1.3-1.204c-.312-.521-.468-1.131-.468-1.829 0-.69.16-1.295.48-1.817a3.18 3.18 0 011.314-1.215c.556-.28 1.179-.421 1.87-.421.69 0 1.313.14 1.868.421.556.28.994.686 1.314 1.215.32.522.48 1.127.48 1.817s-.164 1.3-.493 1.829a3.19 3.19 0 01-1.326 1.203c-.556.281-1.179.421-1.87.421zm0-1.78a1.42 1.42 0 001.048-.434c.295-.288.442-.701.442-1.239 0-.537-.143-.95-.43-1.24a1.38 1.38 0 00-1.035-.432c-.42 0-.77.144-1.048.433-.278.28-.417.694-.417 1.24 0 .537.135.95.404 1.238.278.29.623.434 1.036.434zm6.993-3.91c.253-.37.569-.659.948-.867a2.5 2.5 0 011.263-.325v2.178h-.594c-.539 0-.943.112-1.212.337-.27.216-.405.601-.405 1.155v3.116h-2.16V6.3h2.16v1.12zm9.886 2.129c0 .192-.012.393-.038.601h-4.887c.033.418.172.738.416.963.253.217.56.325.922.325.54 0 .914-.217 1.124-.65h2.3a2.918 2.918 0 01-.645 1.191c-.303.353-.686.63-1.15.83-.462.201-.98.301-1.553.301-.69 0-1.305-.14-1.844-.42a3.074 3.074 0 01-1.263-1.204c-.303-.521-.455-1.131-.455-1.829s.148-1.307.443-1.829a3.074 3.074 0 011.263-1.203c.538-.28 1.157-.421 1.856-.421.682 0 1.288.136 1.819.409.53.273.943.662 1.238 1.167.303.505.454 1.095.454 1.769zm-2.21-.542c0-.353-.126-.633-.379-.842-.252-.208-.568-.313-.947-.313-.362 0-.67.1-.922.301-.244.2-.396.485-.455.854h2.703zm6.217 4.103c-.615 0-1.162-.1-1.642-.3-.48-.201-.859-.474-1.137-.819a2.139 2.139 0 01-.467-1.179h2.134a.774.774 0 00.341.566c.202.144.45.216.745.216.27 0 .476-.048.62-.144.15-.104.227-.237.227-.397 0-.193-.106-.333-.316-.421-.21-.096-.552-.2-1.023-.313a10.804 10.804 0 01-1.263-.349 2.27 2.27 0 01-.872-.59c-.244-.272-.366-.637-.366-1.095 0-.385.11-.733.328-1.046.228-.321.556-.574.986-.758.438-.185.955-.277 1.553-.277.884 0 1.579.208 2.084.626.514.417.808.97.884 1.66H51.41a.803.803 0 00-.329-.553c-.176-.137-.412-.205-.707-.205-.253 0-.446.048-.581.144a.421.421 0 00-.202.373c0 .193.105.337.316.434.219.096.555.192 1.01.288a10.7 10.7 0 011.276.385c.328.12.614.321.859.602.252.273.383.642.391 1.107 0 .393-.118.746-.353 1.059-.228.304-.56.545-.998.722-.43.176-.93.264-1.503.264zm8.103-1.84v1.744h-1.098c-.784 0-1.394-.18-1.832-.541-.438-.37-.657-.967-.657-1.793V8.009h-.858V6.3h.858V4.664h2.16V6.3h1.415v1.71h-1.415v2.695c0 .2.05.345.152.433.1.088.27.132.505.132h.77zm12.177-4.825l-2.16 6.57h-.883l-1.908-5.512-1.907 5.511h-.896l-2.16-6.57h.897l1.717 5.716 1.933-5.715h.884l1.907 5.727 1.705-5.727h.871zM77.9 9.392c0 .29-.009.51-.026.662h-5.721c.025.498.152.923.379 1.276.227.352.526.621.897.806.37.176.774.264 1.212.264.573 0 1.053-.132 1.44-.397.396-.264.657-.621.783-1.07h.935a2.792 2.792 0 01-1.087 1.576c-.547.4-1.237.601-2.07.601-.65 0-1.23-.136-1.744-.409a3.1 3.1 0 01-1.212-1.179c-.287-.513-.43-1.11-.43-1.793 0-.681.143-1.28.43-1.792a2.912 2.912 0 011.2-1.18c.513-.272 1.098-.409 1.755-.409.657 0 1.23.137 1.718.41a2.83 2.83 0 011.137 1.106c.269.458.404.967.404 1.528zm-.897-.024c.008-.489-.097-.906-.316-1.251a2.012 2.012 0 00-.871-.782 2.782 2.782 0 00-1.213-.265c-.656 0-1.216.2-1.68.602-.463.4-.72.966-.77 1.696h4.85zM79.975 7.9a2.73 2.73 0 011.049-1.119c.48-.288 1.044-.433 1.692-.433.632 0 1.196.14 1.693.421.496.273.884.666 1.162 1.18.286.505.429 1.095.429 1.768 0 .674-.143 1.268-.43 1.781a2.93 2.93 0 01-1.174 1.191 3.354 3.354 0 01-1.68.421c-.657 0-1.225-.14-1.705-.42a2.639 2.639 0 01-1.035-1.12v1.444h-.872V4.11h.871V7.9zm5.128 1.817c0-.545-.113-1.014-.34-1.407a2.221 2.221 0 00-.91-.915 2.726 2.726 0 00-1.314-.313c-.471 0-.905.109-1.3.325a2.383 2.383 0 00-.922.927c-.228.4-.341.866-.341 1.395 0 .53.113.995.34 1.396.228.401.535.71.922.927.396.216.83.324 1.301.324.489 0 .927-.104 1.314-.312a2.3 2.3 0 00.91-.927c.227-.409.34-.882.34-1.42z" fill="#202020"/></svg>