<svg width="86" height="86" fill="none" xmlns="http://www.w3.org/2000/svg"><g clip-path="url(#clip0)"><path fill-rule="evenodd" clip-rule="evenodd" d="M30.492 21.47l-15.375 4.493-3.43 13.607c.593 4.998 1.53 9.677 4.62 12.297l25.501 20.725 3.085 2.373c4.645 3.573 9.045-1.42 5.514-5.11a4.922 4.922 0 00-.157-.163c1.192 1.003 2.53 1.288 3.703 1.096 2.58-.418 4.346-3.15 1.972-5.701 4.64 3.706 8.603-2.197 4.968-5.436 4.052 1.278 8.466-3.976 4.258-8.438a1.996 1.996 0 00-.098-.108l-10.55-15.707L40.35 26.33l-9.859-4.86z" fill="#FFBC85"/><path fill-rule="evenodd" clip-rule="evenodd" d="M41.425 73.034c3.924-4.183-1.8-8.994-4.963-6.158l-3.39 3.224a.886.886 0 01-.113.103c-2.844 2.86 2.325 9.377 6.602 4.816l1.864-1.985z" fill="#FFE5C1"/><path fill-rule="evenodd" clip-rule="evenodd" d="M30.551 61.042l-3.58 3.755-.015.02c-1.795 1.907-.55 4.83 1.574 5.971 1.315.708 2.963.737 4.43-.585l3.835-.059-.333-3.268.49-.462c3.836-3.647-1.702-9.947-6.023-5.77l-.378.398z" fill="#FFE5C1"/><path fill-rule="evenodd" clip-rule="evenodd" d="M24.155 55.897L20.8 59.46l-.47.506c-3.312 3.514 2.619 9.048 6.037 5.46l.589-.61c.049-.053 3.644-.427 4.037-.47l-.064-3.702 1.148-1.204c3.948-4.143-2.222-9.598-5.98-5.602l-1.942 2.059z" fill="#FFE5C1"/><path fill-rule="evenodd" clip-rule="evenodd" d="M16.307 51.867L15.17 53.1c-3.502 3.804 1.717 9.869 5.631 6.36l3.213-.497.142-3.066c3.173-3.593-2.36-9.987-6.715-5.259l-1.133 1.229z" fill="#FFE5C1"/><path fill-rule="evenodd" clip-rule="evenodd" d="M21.114 10.795L5.541 25.79l-4.43 4.26a3.654 3.654 0 00-.102 5.146l6.607 6.89a1.016 1.016 0 001.427.03l2.644-2.546 18.805-18.1 2.335-2.251a1.011 1.011 0 00.03-1.43l-6.607-6.89a3.637 3.637 0 00-5.136-.104z" fill="#2737A7"/><path fill-rule="evenodd" clip-rule="evenodd" d="M50.73 36.862l-4.728 1.081 1.854 1.883 14.322 14.242.099.108c1.726 1.829 2 3.785 1.451 5.377 2.83-1.081 4.63-4.94 1.423-8.34l-.098-.108-4.297-4.271-10.026-9.972zM30.492 21.47l-3.011 2.895 9.412 4.644 3.458-2.679-9.859-4.86z" fill="#F5A96C"/><path fill-rule="evenodd" clip-rule="evenodd" d="M40.351 26.33l-3.458 2.679-3.257 2.516c-8.225 6.37-1.403 12.66 3.478 10.503l5.489-3.308 3.399-.776 4.728-1.082 10.026 9.972 4.297 4.271c2.702-1.012 6.523-3.932 10.648-10.576l-6.27-13.12-14.644-7.015-3.757 3.003c-.618.49-.432.398-1.212.373-2.82-.088-6.406.192-8.51 1.818l-.957.742z" fill="#FFE5C1"/><path fill-rule="evenodd" clip-rule="evenodd" d="M40.337 36.533l-5.49 3.308c-1.495.663-3.178.53-4.55-.158 1.191 2.29 4.271 3.47 6.817 2.345l5.489-3.308 3.399-.776 4.67-1.067c-2.164-1.853-2.551-2.123-6.941-1.115l-3.394.771zm31.95.707c-3.673 5.913-7.102 8.877-9.716 10.174-.294.148-.579.27-.854.374l3.336 3.317c2.702-1.012 6.523-3.932 10.648-10.576l-3.413-3.288zm-58.27 18.77c.034 3.219 3.791 6.133 6.783 3.45l2.104-2.231 1.251-1.332c1.31-1.484 1.133-3.44.177-4.9a3.683 3.683 0 01-.942 2.452l-2.227 2.364-1.123 1.2c-2.183 1.95-4.768.933-6.023-1.003zm5.493 7.303c.785 2.634 4.45 4.644 6.857 2.113l.589-.61a.062.062 0 01.015-.019l3.58-3.755c.128-.142.25-.275.378-.398l1.148-1.204c2.129-2.231 1.32-4.846-.471-6.158.324 1.204.064 2.595-1.143 3.858l-1.148 1.204a9.52 9.52 0 00-.377.393v.005l-3.58 3.755c-.006.005-.01.01-.02.015l-.584.614c-1.6 1.68-3.748 1.361-5.244.187zM33.072 70.1l2.615-2.482.775-.742.49-.462c2.04-1.941 1.428-4.634-.25-6.1.358 1.284.093 2.733-1.143 3.908l-.485.462-1.384 1.312-2.01 1.917-.114.098c-1.466 1.322-3.114 1.293-4.429.59a4.64 4.64 0 01-.902-.644c.323 1.165 1.192 2.241 2.295 2.83 1.315.708 2.963.738 4.43-.584l.112-.103zm8.353 2.934c1.963-2.094 1.511-4.34.177-5.71-.03.928-.422 1.926-1.324 2.884l-1.864 1.99c-2.29 2.438-4.837 1.706-6.269.06.02 2.983 4.003 6.403 7.416 2.761l1.864-1.985z" fill="#FED1A3"/><path d="M60.893 60.95c-.317 0-.634-.115-.884-.348l-5.229-4.87a1.3 1.3 0 011.769-1.902l5.229 4.87a1.3 1.3 0 01-.885 2.25zm-4.969 5.436c-.316 0-.634-.115-.884-.348l-5.233-4.876a1.3 1.3 0 011.768-1.9l5.234 4.875a1.3 1.3 0 01-.885 2.249zm-5.504 4.777a1.29 1.29 0 01-.882-.348l-2.664-2.477a1.3 1.3 0 011.767-1.902l2.664 2.477a1.3 1.3 0 01-.884 2.25z" fill="#F5A96C"/><path fill-rule="evenodd" clip-rule="evenodd" d="M54.786 20.393l17.501 16.848 3.414 3.288 1.256 1.209a1.016 1.016 0 001.427-.03l3.448-3.597 3.16-3.293a3.654 3.654 0 00-.104-5.146l-3.056-2.939-16.946-16.316a3.637 3.637 0 00-5.135.103l-6.607 6.89a1.011 1.011 0 00.029 1.43l1.613 1.553z" fill="#FF2535"/></g><defs><clipPath id="clip0"><path fill="#fff" d="M0 0h86v86H0z"/></clipPath></defs></svg>