<svg width="22" height="22" fill="none" xmlns="http://www.w3.org/2000/svg"><mask id="a" maskUnits="userSpaceOnUse" x="0" y="0" width="22" height="22"><circle cx="11" cy="11" r="11" fill="#C4C4C4"/></mask><g mask="url(#a)"><circle cx="11" cy="11" r="11" fill="#D72B2B"/><path d="M7.361 7.14l1.142 2.313 2.553.371-1.848 1.8.436 2.543-2.283-1.2-2.283 1.2.436-2.542-1.848-1.8 2.553-.372L7.361 7.14zm5.806-3.59l.438.889.982.142-.71.692.168.977-.878-.461-.878.461.168-.977-.71-.692.981-.142.439-.89zm0 12.2l.438.89.982.142-.71.692.168.977-.878-.462-.878.462.168-.977-.71-.692.981-.142.439-.89zm2.475-8.445l.44.89.98.142-.71.692.168.977-.878-.462-.877.462.167-.977-.71-.692.982-.142.438-.89zm0 4.284l.44.89.98.142-.71.692.168.977-.878-.462-.877.462.167-.977-.71-.692.982-.143.438-.89z" fill="#EFBC2E"/></g></svg>