<svg width="22" height="22" fill="none" xmlns="http://www.w3.org/2000/svg"><mask id="a" maskUnits="userSpaceOnUse" x="0" y="0" width="22" height="22"><circle cx="11" cy="11" r="11" fill="#C4C4C4"/></mask><g mask="url(#a)"><circle cx="11" cy="11" r="11" fill="#C4C4C4"/><path d="M27.5 0h-33v22h33V0z" fill="#F0F0F0"/><path d="M13.063 0H8.938v8.937H-5.5v4.125H8.938V22h4.125v-8.938H27.5V8.937H13.063V0z" fill="#D80027"/><path d="M19.88 14.826l7.62 4.233v-4.233h-7.62zm-5.293 0L27.5 21.999v-2.028l-9.262-5.145h-3.651zM24.06 22l-9.473-5.264V22h9.473z" fill="#0052B4"/><path d="M14.587 14.826L27.5 21.999v-2.028l-9.262-5.145h-3.651z" fill="#F0F0F0"/><path d="M14.587 14.826L27.5 21.999v-2.028l-9.262-5.145h-3.651z" fill="#D80027"/><path d="M.323 14.826L-5.5 18.06v-3.235H.323zm7.09.912v6.261h-11.27l11.27-6.261z" fill="#0052B4"/><path d="M3.762 14.826L-5.5 19.97v2.028l12.913-7.173H3.762z" fill="#D80027"/><path d="M2.12 7.174L-5.5 2.94v4.233h7.62zm5.293 0L-5.5 0v2.03l9.262 5.145h3.651zM-2.06 0l9.473 5.263V0H-2.06z" fill="#0052B4"/><path d="M7.413 7.174L-5.5 0v2.029l9.262 5.145h3.651z" fill="#F0F0F0"/><path d="M7.413 7.174L-5.5 0v2.029l9.262 5.145h3.651z" fill="#D80027"/><path d="M21.677 7.174L27.5 3.94v3.235h-5.823zm-7.09-.912V0h11.27l-11.27 6.262z" fill="#0052B4"/><path d="M18.238 7.174L27.5 2.029V0L14.587 7.174h3.651z" fill="#D80027"/></g></svg>