<svg width="240" height="51" fill="none" xmlns="http://www.w3.org/2000/svg"><path fill="#1A288C" d="M0 0h240v51H0z"/><path d="M50.486 16.8V35h-4.16V20.232h-6.24l-.13 3.796c-.087 2.583-.295 4.68-.624 6.292-.33 1.595-.884 2.825-1.664 3.692-.763.85-1.837 1.274-3.224 1.274-.572 0-1.265-.095-2.08-.286l.26-3.562c.225.07.477.104.754.104 1.005 0 1.707-.59 2.106-1.768.399-1.196.65-3.06.754-5.59l.26-7.384h13.988zm18.95 18.512c-1.89 0-3.597-.407-5.123-1.222-1.508-.815-2.695-1.933-3.562-3.354-.849-1.439-1.273-3.05-1.273-4.836 0-1.785.424-3.389 1.273-4.81.867-1.439 2.055-2.565 3.563-3.38 1.525-.815 3.232-1.222 5.122-1.222 1.889 0 3.587.407 5.095 1.222 1.508.815 2.696 1.941 3.563 3.38.866 1.421 1.3 3.025 1.3 4.81 0 1.785-.434 3.397-1.3 4.836-.867 1.421-2.054 2.54-3.563 3.354-1.508.815-3.206 1.222-5.096 1.222zm0-3.588c1.074 0 2.045-.243 2.911-.728a5.318 5.318 0 002.029-2.08c.502-.884.753-1.89.753-3.016 0-1.127-.25-2.132-.754-3.016a5.139 5.139 0 00-2.028-2.054c-.866-.503-1.837-.754-2.911-.754-1.075 0-2.046.251-2.913.754a5.317 5.317 0 00-2.053 2.054c-.486.884-.728 1.89-.728 3.016 0 1.127.242 2.132.727 3.016a5.505 5.505 0 002.055 2.08c.866.485 1.837.728 2.912.728zm31.74-11.492h-8.658L92.544 35h-4.186V16.8h12.844l-.026 3.432zm15.145 15.08c-1.889 0-3.597-.407-5.122-1.222-1.508-.815-2.695-1.933-3.562-3.354-.849-1.439-1.274-3.05-1.274-4.836 0-1.785.425-3.389 1.274-4.81a9.16 9.16 0 013.562-3.38c1.525-.815 3.233-1.222 5.122-1.222 1.889 0 3.588.407 5.096 1.222a9.16 9.16 0 013.562 3.38c.867 1.421 1.3 3.025 1.3 4.81 0 1.785-.433 3.397-1.3 4.836-.867 1.421-2.054 2.54-3.562 3.354-1.508.815-3.207 1.222-5.096 1.222zm0-3.588c1.075 0 2.045-.243 2.912-.728a5.313 5.313 0 002.028-2.08c.503-.884.754-1.89.754-3.016 0-1.127-.251-2.132-.754-3.016a5.135 5.135 0 00-2.028-2.054c-.867-.503-1.837-.754-2.912-.754s-2.045.251-2.912.754a5.316 5.316 0 00-2.054 2.054c-.485.884-.728 1.89-.728 3.016 0 1.127.243 2.132.728 3.016a5.505 5.505 0 002.054 2.08c.867.485 1.837.728 2.912.728zM148.9 20.232h-5.824V35h-4.16V20.232h-5.798V16.8H148.9v3.432zm8.364-3.432h4.186v11.856l8.684-11.856h3.952V35h-4.16V23.17L161.242 35h-3.978V16.8zm43.662 0V35h-4.186V20.232h-8.216V35h-4.186V16.8h16.588z" fill="#fff"/></svg>