<svg width="100" height="110" fill="none" xmlns="http://www.w3.org/2000/svg"><g filter="url(#filter0_d)" fill="#FF2535"><path d="M58 56.103H42v18.619c4.66 1.642 8 6.071 8 11.278 0-5.207 3.34-9.636 8-11.278V56.103z"/><path d="M80 45.897c0 16.511-13.431 29.896-30 29.896-16.569 0-30-13.385-30-29.896C20 29.385 33.431 16 50 16c16.569 0 30 13.385 30 29.897z"/></g><path d="M49.617 35.663a1 1 0 011.766 0l2.723 5.127a1 1 0 00.71.516l5.718 1.005a1 1 0 01.546 1.68l-4.035 4.174a1 1 0 00-.271.835l.81 5.748a1 1 0 01-1.429 1.039l-5.216-2.548a1 1 0 00-.878 0l-5.216 2.548a1 1 0 01-1.43-1.039L44.227 49a1 1 0 00-.271-.835l-4.035-4.174a1 1 0 01.546-1.68l5.718-1.005a1 1 0 00.71-.516l2.723-5.127z" fill="#fff"/><defs><filter id="filter0_d" x="0" y="0" width="100" height="110" filterUnits="userSpaceOnUse" color-interpolation-filters="sRGB"><feFlood flood-opacity="0" result="BackgroundImageFix"/><feColorMatrix in="SourceAlpha" values="0 0 0 0 0 0 0 0 0 0 0 0 0 0 0 0 0 0 127 0"/><feOffset dy="4"/><feGaussianBlur stdDeviation="10"/><feColorMatrix values="0 0 0 0 0 0 0 0 0 0 0 0 0 0 0 0 0 0 0.25 0"/><feBlend in2="BackgroundImageFix" result="effect1_dropShadow"/><feBlend in="SourceGraphic" in2="effect1_dropShadow" result="shape"/></filter></defs></svg>