<svg width="84" height="84" fill="none" xmlns="http://www.w3.org/2000/svg"><path d="M76.125 26.25H73.5v-7.875a2.623 2.623 0 00-2.625-2.624h-63C3.533 15.75 0 19.284 0 23.625v47.25c0 4.342 3.533 7.876 7.875 7.876h68.25a2.626 2.626 0 002.625-2.626v-47.25a2.623 2.623 0 00-2.625-2.625z" fill="#2737A7"/><path d="M7.875 21H68.25v5.25H7.875a2.626 2.626 0 010-5.25z" fill="#131A48"/><path d="M81.375 57.75h-15.75a7.875 7.875 0 110-15.75h15.75A2.626 2.626 0 0184 44.625v10.5a2.626 2.626 0 01-2.625 2.625z" fill="#202D8A"/><path d="M67.247 26.25L57.472 6.7a2.634 2.634 0 00-3.523-1.177L12.505 26.25h54.742z" fill="#D9222F"/><path d="M5.25 26.25h51.497L46.972 6.7a2.628 2.628 0 00-3.523-1.171L5.25 24.629v1.622z" fill="#FF2535"/><circle cx="66" cy="50" r="3" fill="#fff"/></svg>