<svg width="142" height="107" viewBox="0 0 142 107" fill="none" xmlns="http://www.w3.org/2000/svg">
<g opacity="0.2">
<path d="M22.3347 99.536L22.8692 98.6908L22.8692 98.6908L22.3347 99.536ZM6.92675 81.68L6.01944 82.1005L6.02254 82.1072L6.02574 82.1138L6.92675 81.68ZM6.92675 25.664L6.02367 25.2345L6.02142 25.2393L6.92675 25.664ZM22.3347 7.664L22.8692 8.50919L22.8692 8.50919L22.3347 7.664ZM66.9747 7.664L66.4403 8.50919L66.4403 8.50919L66.9747 7.664ZM82.2387 25.664L81.3314 26.0845L81.3345 26.0912L81.3377 26.0978L82.2387 25.664ZM82.2387 81.68L81.3357 81.2505L81.3334 81.2553L82.2387 81.68ZM66.9747 99.536L66.4403 98.6908L66.4403 98.6908L66.9747 99.536ZM59.0547 78.08L58.225 77.5218L58.218 77.5323L59.0547 78.08ZM59.0547 29.12L58.218 29.6677L58.225 29.6782L59.0547 29.12ZM30.2547 29.12L29.425 28.5618L29.418 28.5723L30.2547 29.12ZM30.2547 78.08L29.418 78.6277L29.425 78.6382L30.2547 78.08ZM44.6547 104.728C36.4759 104.728 29.2243 102.709 22.8692 98.6908L21.8003 100.381C28.5012 104.619 36.1296 106.728 44.6547 106.728V104.728ZM22.8692 98.6908C16.5176 94.6744 11.5003 88.8738 7.82775 81.2462L6.02574 82.1138C9.84117 90.0382 15.0959 96.1416 21.8003 100.381L22.8692 98.6908ZM7.83406 81.2595C4.26041 73.548 2.45475 64.3381 2.45475 53.6H0.454745C0.454745 64.5579 2.29708 74.068 6.01944 82.1005L7.83406 81.2595ZM2.45475 53.6C2.45475 42.8614 4.26057 33.7016 7.83207 26.0887L6.02142 25.2393C2.29692 33.1783 0.454745 42.6426 0.454745 53.6H2.45475ZM7.82981 26.0935C11.5034 18.3695 16.5207 12.5237 22.8692 8.50919L21.8003 6.8188C15.0927 11.0603 9.83809 17.2144 6.02368 25.2345L7.82981 26.0935ZM22.8692 8.50919C29.2243 4.49055 36.4759 2.472 44.6547 2.472V0.471998C36.1296 0.471998 28.5012 2.58144 21.8003 6.8188L22.8692 8.50919ZM44.6547 2.472C52.8336 2.472 60.0852 4.49055 66.4403 8.50919L67.5092 6.8188C60.8083 2.58144 53.1799 0.471998 44.6547 0.471998V2.472ZM66.4403 8.50919C72.7862 12.5221 77.754 18.3647 81.3314 26.0845L83.1461 25.2435C79.4275 17.2193 74.2193 11.0619 67.5092 6.8188L66.4403 8.50919ZM81.3377 26.0978C85.0021 33.7083 86.8548 42.8647 86.8548 53.6H88.8548C88.8548 42.6393 86.9634 33.1717 83.1398 25.2302L81.3377 26.0978ZM86.8548 53.6C86.8548 64.3348 85.0022 73.5414 81.3357 81.2505L83.1418 82.1095C86.9633 74.0746 88.8548 64.5612 88.8548 53.6H86.8548ZM81.3334 81.2553C77.757 88.8786 72.7894 94.6759 66.4403 98.6908L67.5092 100.381C74.2161 96.1401 79.4245 90.0334 83.1441 82.1047L81.3334 81.2553ZM66.4403 98.6908C60.0852 102.709 52.8336 104.728 44.6547 104.728V106.728C53.1799 106.728 60.8083 104.619 67.5092 100.381L66.4403 98.6908ZM44.6547 87C51.147 87 56.2567 84.1807 59.8914 78.6277L58.218 77.5323C54.9408 82.5393 50.4505 85 44.6547 85V87ZM59.8845 78.6382C63.6025 73.1114 65.3827 64.7097 65.3827 53.6H63.3827C63.3827 64.5703 61.611 72.4886 58.225 77.5218L59.8845 78.6382ZM65.3827 53.6C65.3827 42.4903 63.6025 34.0886 59.8845 28.5618L58.225 29.6782C61.611 34.7114 63.3827 42.6297 63.3827 53.6H65.3827ZM59.8914 28.5723C56.2567 23.0193 51.147 20.2 44.6547 20.2V22.2C50.4505 22.2 54.9408 24.6607 58.218 29.6677L59.8914 28.5723ZM44.6547 20.2C38.2537 20.2 33.1513 23.0228 29.425 28.5618L31.0845 29.6782C34.4622 24.6572 38.9598 22.2 44.6547 22.2V20.2ZM29.418 28.5723C25.8022 34.0966 24.0707 42.4935 24.0707 53.6H26.0707C26.0707 42.6265 27.7953 34.7034 31.0914 29.6677L29.418 28.5723ZM24.0707 53.6C24.0707 64.7065 25.8022 73.1034 29.418 78.6277L31.0914 77.5323C27.7953 72.4966 26.0707 64.5735 26.0707 53.6H24.0707ZM29.425 78.6382C33.1513 84.1772 38.2537 87 44.6547 87V85C38.9598 85 34.4622 82.5428 31.0845 77.5218L29.425 78.6382ZM140.105 3.19999H141.105V2.19999H140.105V3.19999ZM140.105 104V105H141.105V104H140.105ZM116.777 104H115.777V105H116.777V104ZM116.777 21.92H117.777V20.92H116.777V21.92ZM96.6174 21.92H95.6174V22.92H96.6174V21.92ZM96.6174 3.19999V2.19999H95.6174V3.19999H96.6174ZM139.105 3.19999V104H141.105V3.19999H139.105ZM140.105 103H116.777V105H140.105V103ZM117.777 104V21.92H115.777V104H117.777ZM116.777 20.92H96.6174V22.92H116.777V20.92ZM97.6174 21.92V3.19999H95.6174V21.92H97.6174ZM96.6174 4.19999H140.105V2.19999H96.6174V4.19999Z" fill="#2737A7"/>
<path d="M22.3347 99.536L22.8692 98.6908L22.8692 98.6908L22.3347 99.536ZM6.92675 81.68L6.01944 82.1005L6.02254 82.1072L6.02574 82.1138L6.92675 81.68ZM6.92675 25.664L6.02367 25.2345L6.02142 25.2393L6.92675 25.664ZM22.3347 7.664L22.8692 8.50919L22.8692 8.50919L22.3347 7.664ZM66.9747 7.664L66.4403 8.50919L66.4403 8.50919L66.9747 7.664ZM82.2387 25.664L81.3314 26.0845L81.3345 26.0912L81.3377 26.0978L82.2387 25.664ZM82.2387 81.68L81.3357 81.2505L81.3334 81.2553L82.2387 81.68ZM66.9747 99.536L66.4403 98.6908L66.4403 98.6908L66.9747 99.536ZM59.0547 78.08L58.225 77.5218L58.218 77.5323L59.0547 78.08ZM59.0547 29.12L58.218 29.6677L58.225 29.6782L59.0547 29.12ZM30.2547 29.12L29.425 28.5618L29.418 28.5723L30.2547 29.12ZM30.2547 78.08L29.418 78.6277L29.425 78.6382L30.2547 78.08ZM44.6547 104.728C36.4759 104.728 29.2243 102.709 22.8692 98.6908L21.8003 100.381C28.5012 104.619 36.1296 106.728 44.6547 106.728V104.728ZM22.8692 98.6908C16.5176 94.6744 11.5003 88.8738 7.82775 81.2462L6.02574 82.1138C9.84117 90.0382 15.0959 96.1416 21.8003 100.381L22.8692 98.6908ZM7.83406 81.2595C4.26041 73.548 2.45475 64.3381 2.45475 53.6H0.454745C0.454745 64.5579 2.29708 74.068 6.01944 82.1005L7.83406 81.2595ZM2.45475 53.6C2.45475 42.8614 4.26057 33.7016 7.83207 26.0887L6.02142 25.2393C2.29692 33.1783 0.454745 42.6426 0.454745 53.6H2.45475ZM7.82981 26.0935C11.5034 18.3695 16.5207 12.5237 22.8692 8.50919L21.8003 6.8188C15.0927 11.0603 9.83809 17.2144 6.02368 25.2345L7.82981 26.0935ZM22.8692 8.50919C29.2243 4.49055 36.4759 2.472 44.6547 2.472V0.471998C36.1296 0.471998 28.5012 2.58144 21.8003 6.8188L22.8692 8.50919ZM44.6547 2.472C52.8336 2.472 60.0852 4.49055 66.4403 8.50919L67.5092 6.8188C60.8083 2.58144 53.1799 0.471998 44.6547 0.471998V2.472ZM66.4403 8.50919C72.7862 12.5221 77.754 18.3647 81.3314 26.0845L83.1461 25.2435C79.4275 17.2193 74.2193 11.0619 67.5092 6.8188L66.4403 8.50919ZM81.3377 26.0978C85.0021 33.7083 86.8548 42.8647 86.8548 53.6H88.8548C88.8548 42.6393 86.9634 33.1717 83.1398 25.2302L81.3377 26.0978ZM86.8548 53.6C86.8548 64.3348 85.0022 73.5414 81.3357 81.2505L83.1418 82.1095C86.9633 74.0746 88.8548 64.5612 88.8548 53.6H86.8548ZM81.3334 81.2553C77.757 88.8786 72.7894 94.6759 66.4403 98.6908L67.5092 100.381C74.2161 96.1401 79.4245 90.0334 83.1441 82.1047L81.3334 81.2553ZM66.4403 98.6908C60.0852 102.709 52.8336 104.728 44.6547 104.728V106.728C53.1799 106.728 60.8083 104.619 67.5092 100.381L66.4403 98.6908ZM44.6547 87C51.147 87 56.2567 84.1807 59.8914 78.6277L58.218 77.5323C54.9408 82.5393 50.4505 85 44.6547 85V87ZM59.8845 78.6382C63.6025 73.1114 65.3827 64.7097 65.3827 53.6H63.3827C63.3827 64.5703 61.611 72.4886 58.225 77.5218L59.8845 78.6382ZM65.3827 53.6C65.3827 42.4903 63.6025 34.0886 59.8845 28.5618L58.225 29.6782C61.611 34.7114 63.3827 42.6297 63.3827 53.6H65.3827ZM59.8914 28.5723C56.2567 23.0193 51.147 20.2 44.6547 20.2V22.2C50.4505 22.2 54.9408 24.6607 58.218 29.6677L59.8914 28.5723ZM44.6547 20.2C38.2537 20.2 33.1513 23.0228 29.425 28.5618L31.0845 29.6782C34.4622 24.6572 38.9598 22.2 44.6547 22.2V20.2ZM29.418 28.5723C25.8022 34.0966 24.0707 42.4935 24.0707 53.6H26.0707C26.0707 42.6265 27.7953 34.7034 31.0914 29.6677L29.418 28.5723ZM24.0707 53.6C24.0707 64.7065 25.8022 73.1034 29.418 78.6277L31.0914 77.5323C27.7953 72.4966 26.0707 64.5735 26.0707 53.6H24.0707ZM29.425 78.6382C33.1513 84.1772 38.2537 87 44.6547 87V85C38.9598 85 34.4622 82.5428 31.0845 77.5218L29.425 78.6382ZM140.105 3.19999H141.105V2.19999H140.105V3.19999ZM140.105 104V105H141.105V104H140.105ZM116.777 104H115.777V105H116.777V104ZM116.777 21.92H117.777V20.92H116.777V21.92ZM96.6174 21.92H95.6174V22.92H96.6174V21.92ZM96.6174 3.19999V2.19999H95.6174V3.19999H96.6174ZM139.105 3.19999V104H141.105V3.19999H139.105ZM140.105 103H116.777V105H140.105V103ZM117.777 104V21.92H115.777V104H117.777ZM116.777 20.92H96.6174V22.92H116.777V20.92ZM97.6174 21.92V3.19999H95.6174V21.92H97.6174ZM96.6174 4.19999H140.105V2.19999H96.6174V4.19999Z" fill="url(#paint0_linear)"/>
</g>
<defs>
<linearGradient id="paint0_linear" x1="22" y1="-36" x2="22" y2="140" gradientUnits="userSpaceOnUse">
<stop stop-color="white" stop-opacity="0"/>
<stop offset="1" stop-color="white"/>
</linearGradient>
</defs>
</svg>
