<svg width="178" height="107" viewBox="0 0 178 107" fill="none" xmlns="http://www.w3.org/2000/svg">
<g opacity="0.2">
<path d="M22.7879 99.536L23.3223 98.6908L23.3223 98.6908L22.7879 99.536ZM7.37987 81.68L6.47256 82.1005L6.47567 82.1072L6.47887 82.1138L7.37987 81.68ZM7.37987 25.664L6.47679 25.2345L6.47455 25.2393L7.37987 25.664ZM22.7879 7.664L23.3223 8.50919L23.3223 8.50919L22.7879 7.664ZM67.4279 7.664L66.8934 8.50919L66.8934 8.50919L67.4279 7.664ZM82.6919 25.664L81.7846 26.0845L81.7877 26.0912L81.7909 26.0978L82.6919 25.664ZM82.6919 81.68L81.7888 81.2505L81.7865 81.2553L82.6919 81.68ZM67.4279 99.536L66.8934 98.6908L66.8934 98.6908L67.4279 99.536ZM59.5079 78.08L58.6781 77.5218L58.6712 77.5323L59.5079 78.08ZM59.5079 29.12L58.6711 29.6677L58.6781 29.6782L59.5079 29.12ZM30.7079 29.12L29.8781 28.5618L29.8712 28.5723L30.7079 29.12ZM30.7079 78.08L29.8711 78.6277L29.8781 78.6382L30.7079 78.08ZM45.1079 104.728C36.9291 104.728 29.6774 102.709 23.3223 98.6908L22.2534 100.381C28.9544 104.619 36.5827 106.728 45.1079 106.728V104.728ZM23.3223 98.6908C16.9707 94.6744 11.9534 88.8738 8.28087 81.2462L6.47887 82.1138C10.2943 90.0382 15.549 96.1416 22.2534 100.381L23.3223 98.6908ZM8.28718 81.2595C4.71353 73.548 2.90787 64.3381 2.90787 53.6H0.90787C0.90787 64.5579 2.75021 74.068 6.47256 82.1005L8.28718 81.2595ZM2.90787 53.6C2.90787 42.8614 4.7137 33.7016 8.2852 26.0887L6.47455 25.2393C2.75004 33.1783 0.90787 42.6426 0.90787 53.6H2.90787ZM8.28294 26.0935C11.9565 18.3695 16.9739 12.5237 23.3223 8.50919L22.2534 6.8188C15.5459 11.0603 10.2912 17.2144 6.47681 25.2345L8.28294 26.0935ZM23.3223 8.50919C29.6774 4.49055 36.9291 2.472 45.1079 2.472V0.471998C36.5827 0.471998 28.9544 2.58144 22.2534 6.8188L23.3223 8.50919ZM45.1079 2.472C53.2867 2.472 60.5384 4.49055 66.8934 8.50919L67.9623 6.8188C61.2614 2.58144 53.6331 0.471998 45.1079 0.471998V2.472ZM66.8934 8.50919C73.2394 12.5221 78.2071 18.3647 81.7846 26.0845L83.5992 25.2435C79.8806 17.2193 74.6724 11.0619 67.9623 6.8188L66.8934 8.50919ZM81.7909 26.0978C85.4552 33.7083 87.3079 42.8647 87.3079 53.6H89.3079C89.3079 42.6393 87.4166 33.1717 83.5929 25.2302L81.7909 26.0978ZM87.3079 53.6C87.3079 64.3348 85.4553 73.5414 81.7888 81.2505L83.5949 82.1095C87.4164 74.0746 89.3079 64.5612 89.3079 53.6H87.3079ZM81.7865 81.2553C78.2102 88.8786 73.2425 94.6759 66.8934 98.6908L67.9623 100.381C74.6692 96.1401 79.8776 90.0334 83.5972 82.1047L81.7865 81.2553ZM66.8934 98.6908C60.5384 102.709 53.2867 104.728 45.1079 104.728V106.728C53.6331 106.728 61.2614 104.619 67.9623 100.381L66.8934 98.6908ZM45.1079 87C51.6001 87 56.7099 84.1807 60.3446 78.6277L58.6712 77.5323C55.3939 82.5393 50.9036 85 45.1079 85V87ZM60.3376 78.6382C64.0556 73.1114 65.8359 64.7097 65.8359 53.6H63.8359C63.8359 64.5703 62.0641 72.4886 58.6781 77.5218L60.3376 78.6382ZM65.8359 53.6C65.8359 42.4903 64.0556 34.0886 60.3376 28.5618L58.6781 29.6782C62.0641 34.7114 63.8359 42.6297 63.8359 53.6H65.8359ZM60.3446 28.5723C56.7099 23.0193 51.6001 20.2 45.1079 20.2V22.2C50.9036 22.2 55.3939 24.6607 58.6712 29.6677L60.3446 28.5723ZM45.1079 20.2C38.7068 20.2 33.6044 23.0228 29.8781 28.5618L31.5376 29.6782C34.9154 24.6572 39.4129 22.2 45.1079 22.2V20.2ZM29.8712 28.5723C26.2553 34.0966 24.5239 42.4935 24.5239 53.6H26.5239C26.5239 42.6265 28.2485 34.7034 31.5446 29.6677L29.8712 28.5723ZM24.5239 53.6C24.5239 64.7065 26.2553 73.1034 29.8712 78.6277L31.5446 77.5323C28.2485 72.4966 26.5239 64.5735 26.5239 53.6H24.5239ZM29.8781 78.6382C33.6044 84.1772 38.7068 87 45.1079 87V85C39.4129 85 34.9154 82.5428 31.5376 77.5218L29.8781 78.6382ZM176.991 84.992H177.991V83.992H176.991V84.992ZM176.991 104V105H177.991V104H176.991ZM100.814 104H99.8145V105H100.814V104ZM100.814 88.88L100.128 88.153L99.8145 88.449V88.88H100.814ZM139.695 52.16L140.381 52.887L140.385 52.8837L139.695 52.16ZM148.047 42.08L148.935 42.5395L148.941 42.5272L148.047 42.08ZM146.031 24.368L145.396 25.1407L145.411 25.153L145.426 25.1647L146.031 24.368ZM122.127 23.648L122.544 24.5567L122.554 24.5521L122.564 24.5472L122.127 23.648ZM113.199 31.136L112.657 31.9767L113.458 32.4928L114.012 31.7172L113.199 31.136ZM96.2065 20.192L95.3765 19.6342L94.8077 20.4805L95.665 21.0327L96.2065 20.192ZM112.479 6.51199L112.906 7.4163L112.916 7.41136L112.479 6.51199ZM155.823 5.21599L155.413 6.1285L155.423 6.13272L155.432 6.13674L155.823 5.21599ZM168.927 15.584L168.1 16.1468L168.107 16.1569L168.114 16.1669L168.927 15.584ZM170.223 46.688L171.124 47.1207L171.124 47.1207L170.223 46.688ZM156.831 63.104L156.15 62.3708L156.144 62.3769L156.831 63.104ZM133.647 84.992L132.96 84.2649L131.131 85.992H133.647V84.992ZM175.991 84.992V104H177.991V84.992H175.991ZM176.991 103H100.814V105H176.991V103ZM101.814 104V88.88H99.8145V104H101.814ZM101.501 89.607L140.381 52.887L139.008 51.433L100.128 88.153L101.501 89.607ZM140.385 52.8837C144.538 48.9232 147.418 45.4718 148.935 42.5394L147.158 41.6206C145.795 44.2562 143.107 47.5248 139.004 51.4363L140.385 52.8837ZM148.941 42.5272C150.439 39.5301 151.207 36.5459 151.207 33.584H149.207C149.207 36.1901 148.534 38.8699 147.152 41.6328L148.941 42.5272ZM151.207 33.584C151.207 29.2938 149.709 25.9031 146.635 23.5713L145.426 25.1647C147.92 27.0569 149.207 29.8102 149.207 33.584H151.207ZM146.665 23.5953C143.726 21.1811 139.475 20.056 134.078 20.056V22.056C139.242 22.056 142.959 23.1389 145.396 25.1407L146.665 23.5953ZM134.078 20.056C129.529 20.056 125.393 20.947 121.689 22.7488L122.564 24.5472C125.964 22.893 129.796 22.056 134.078 22.056V20.056ZM121.709 22.7393C117.99 24.4482 114.88 27.0612 112.385 30.5548L114.012 31.7172C116.317 28.4908 119.159 26.1118 122.544 24.5567L121.709 22.7393ZM113.74 30.2953L96.748 19.3513L95.665 21.0327L112.657 31.9767L113.74 30.2953ZM97.0365 20.7498C100.863 15.0559 106.143 10.6099 112.906 7.41624L112.051 5.60774C104.99 8.94213 99.4215 13.6161 95.3765 19.6342L97.0365 20.7498ZM112.916 7.41136C119.671 4.1275 127.438 2.472 136.239 2.472V0.471998C127.183 0.471998 119.11 2.17649 112.041 5.61263L112.916 7.41136ZM136.239 2.472C143.617 2.472 150 3.70173 155.413 6.1285L156.232 4.30348C150.509 1.73827 143.836 0.471998 136.239 0.471998V2.472ZM155.432 6.13674C160.943 8.47162 165.149 11.8131 168.1 16.1468L169.753 15.0212C166.56 10.3309 162.03 6.76037 156.213 4.29524L155.432 6.13674ZM168.114 16.1669C171.146 20.394 172.679 25.4164 172.679 31.28H174.679C174.679 25.0476 173.043 19.606 169.739 15.0011L168.114 16.1669ZM172.679 31.28C172.679 36.6065 171.558 41.5941 169.321 46.2553L171.124 47.1207C173.495 42.1819 174.679 36.8975 174.679 31.28H172.679ZM169.321 46.2553C167.096 50.8899 162.738 56.2611 156.15 62.3708L157.511 63.8372C164.171 57.6589 168.741 52.0861 171.124 47.1207L169.321 46.2553ZM156.144 62.3769L132.96 84.2649L134.333 85.7191L157.517 63.8311L156.144 62.3769ZM133.647 85.992H176.991V83.992H133.647V85.992Z" fill="#2737A7"/>
<path d="M22.7879 99.536L23.3223 98.6908L23.3223 98.6908L22.7879 99.536ZM7.37987 81.68L6.47256 82.1005L6.47567 82.1072L6.47887 82.1138L7.37987 81.68ZM7.37987 25.664L6.47679 25.2345L6.47455 25.2393L7.37987 25.664ZM22.7879 7.664L23.3223 8.50919L23.3223 8.50919L22.7879 7.664ZM67.4279 7.664L66.8934 8.50919L66.8934 8.50919L67.4279 7.664ZM82.6919 25.664L81.7846 26.0845L81.7877 26.0912L81.7909 26.0978L82.6919 25.664ZM82.6919 81.68L81.7888 81.2505L81.7865 81.2553L82.6919 81.68ZM67.4279 99.536L66.8934 98.6908L66.8934 98.6908L67.4279 99.536ZM59.5079 78.08L58.6781 77.5218L58.6712 77.5323L59.5079 78.08ZM59.5079 29.12L58.6711 29.6677L58.6781 29.6782L59.5079 29.12ZM30.7079 29.12L29.8781 28.5618L29.8712 28.5723L30.7079 29.12ZM30.7079 78.08L29.8711 78.6277L29.8781 78.6382L30.7079 78.08ZM45.1079 104.728C36.9291 104.728 29.6774 102.709 23.3223 98.6908L22.2534 100.381C28.9544 104.619 36.5827 106.728 45.1079 106.728V104.728ZM23.3223 98.6908C16.9707 94.6744 11.9534 88.8738 8.28087 81.2462L6.47887 82.1138C10.2943 90.0382 15.549 96.1416 22.2534 100.381L23.3223 98.6908ZM8.28718 81.2595C4.71353 73.548 2.90787 64.3381 2.90787 53.6H0.90787C0.90787 64.5579 2.75021 74.068 6.47256 82.1005L8.28718 81.2595ZM2.90787 53.6C2.90787 42.8614 4.7137 33.7016 8.2852 26.0887L6.47455 25.2393C2.75004 33.1783 0.90787 42.6426 0.90787 53.6H2.90787ZM8.28294 26.0935C11.9565 18.3695 16.9739 12.5237 23.3223 8.50919L22.2534 6.8188C15.5459 11.0603 10.2912 17.2144 6.47681 25.2345L8.28294 26.0935ZM23.3223 8.50919C29.6774 4.49055 36.9291 2.472 45.1079 2.472V0.471998C36.5827 0.471998 28.9544 2.58144 22.2534 6.8188L23.3223 8.50919ZM45.1079 2.472C53.2867 2.472 60.5384 4.49055 66.8934 8.50919L67.9623 6.8188C61.2614 2.58144 53.6331 0.471998 45.1079 0.471998V2.472ZM66.8934 8.50919C73.2394 12.5221 78.2071 18.3647 81.7846 26.0845L83.5992 25.2435C79.8806 17.2193 74.6724 11.0619 67.9623 6.8188L66.8934 8.50919ZM81.7909 26.0978C85.4552 33.7083 87.3079 42.8647 87.3079 53.6H89.3079C89.3079 42.6393 87.4166 33.1717 83.5929 25.2302L81.7909 26.0978ZM87.3079 53.6C87.3079 64.3348 85.4553 73.5414 81.7888 81.2505L83.5949 82.1095C87.4164 74.0746 89.3079 64.5612 89.3079 53.6H87.3079ZM81.7865 81.2553C78.2102 88.8786 73.2425 94.6759 66.8934 98.6908L67.9623 100.381C74.6692 96.1401 79.8776 90.0334 83.5972 82.1047L81.7865 81.2553ZM66.8934 98.6908C60.5384 102.709 53.2867 104.728 45.1079 104.728V106.728C53.6331 106.728 61.2614 104.619 67.9623 100.381L66.8934 98.6908ZM45.1079 87C51.6001 87 56.7099 84.1807 60.3446 78.6277L58.6712 77.5323C55.3939 82.5393 50.9036 85 45.1079 85V87ZM60.3376 78.6382C64.0556 73.1114 65.8359 64.7097 65.8359 53.6H63.8359C63.8359 64.5703 62.0641 72.4886 58.6781 77.5218L60.3376 78.6382ZM65.8359 53.6C65.8359 42.4903 64.0556 34.0886 60.3376 28.5618L58.6781 29.6782C62.0641 34.7114 63.8359 42.6297 63.8359 53.6H65.8359ZM60.3446 28.5723C56.7099 23.0193 51.6001 20.2 45.1079 20.2V22.2C50.9036 22.2 55.3939 24.6607 58.6712 29.6677L60.3446 28.5723ZM45.1079 20.2C38.7068 20.2 33.6044 23.0228 29.8781 28.5618L31.5376 29.6782C34.9154 24.6572 39.4129 22.2 45.1079 22.2V20.2ZM29.8712 28.5723C26.2553 34.0966 24.5239 42.4935 24.5239 53.6H26.5239C26.5239 42.6265 28.2485 34.7034 31.5446 29.6677L29.8712 28.5723ZM24.5239 53.6C24.5239 64.7065 26.2553 73.1034 29.8712 78.6277L31.5446 77.5323C28.2485 72.4966 26.5239 64.5735 26.5239 53.6H24.5239ZM29.8781 78.6382C33.6044 84.1772 38.7068 87 45.1079 87V85C39.4129 85 34.9154 82.5428 31.5376 77.5218L29.8781 78.6382ZM176.991 84.992H177.991V83.992H176.991V84.992ZM176.991 104V105H177.991V104H176.991ZM100.814 104H99.8145V105H100.814V104ZM100.814 88.88L100.128 88.153L99.8145 88.449V88.88H100.814ZM139.695 52.16L140.381 52.887L140.385 52.8837L139.695 52.16ZM148.047 42.08L148.935 42.5395L148.941 42.5272L148.047 42.08ZM146.031 24.368L145.396 25.1407L145.411 25.153L145.426 25.1647L146.031 24.368ZM122.127 23.648L122.544 24.5567L122.554 24.5521L122.564 24.5472L122.127 23.648ZM113.199 31.136L112.657 31.9767L113.458 32.4928L114.012 31.7172L113.199 31.136ZM96.2065 20.192L95.3765 19.6342L94.8077 20.4805L95.665 21.0327L96.2065 20.192ZM112.479 6.51199L112.906 7.4163L112.916 7.41136L112.479 6.51199ZM155.823 5.21599L155.413 6.1285L155.423 6.13272L155.432 6.13674L155.823 5.21599ZM168.927 15.584L168.1 16.1468L168.107 16.1569L168.114 16.1669L168.927 15.584ZM170.223 46.688L171.124 47.1207L171.124 47.1207L170.223 46.688ZM156.831 63.104L156.15 62.3708L156.144 62.3769L156.831 63.104ZM133.647 84.992L132.96 84.2649L131.131 85.992H133.647V84.992ZM175.991 84.992V104H177.991V84.992H175.991ZM176.991 103H100.814V105H176.991V103ZM101.814 104V88.88H99.8145V104H101.814ZM101.501 89.607L140.381 52.887L139.008 51.433L100.128 88.153L101.501 89.607ZM140.385 52.8837C144.538 48.9232 147.418 45.4718 148.935 42.5394L147.158 41.6206C145.795 44.2562 143.107 47.5248 139.004 51.4363L140.385 52.8837ZM148.941 42.5272C150.439 39.5301 151.207 36.5459 151.207 33.584H149.207C149.207 36.1901 148.534 38.8699 147.152 41.6328L148.941 42.5272ZM151.207 33.584C151.207 29.2938 149.709 25.9031 146.635 23.5713L145.426 25.1647C147.92 27.0569 149.207 29.8102 149.207 33.584H151.207ZM146.665 23.5953C143.726 21.1811 139.475 20.056 134.078 20.056V22.056C139.242 22.056 142.959 23.1389 145.396 25.1407L146.665 23.5953ZM134.078 20.056C129.529 20.056 125.393 20.947 121.689 22.7488L122.564 24.5472C125.964 22.893 129.796 22.056 134.078 22.056V20.056ZM121.709 22.7393C117.99 24.4482 114.88 27.0612 112.385 30.5548L114.012 31.7172C116.317 28.4908 119.159 26.1118 122.544 24.5567L121.709 22.7393ZM113.74 30.2953L96.748 19.3513L95.665 21.0327L112.657 31.9767L113.74 30.2953ZM97.0365 20.7498C100.863 15.0559 106.143 10.6099 112.906 7.41624L112.051 5.60774C104.99 8.94213 99.4215 13.6161 95.3765 19.6342L97.0365 20.7498ZM112.916 7.41136C119.671 4.1275 127.438 2.472 136.239 2.472V0.471998C127.183 0.471998 119.11 2.17649 112.041 5.61263L112.916 7.41136ZM136.239 2.472C143.617 2.472 150 3.70173 155.413 6.1285L156.232 4.30348C150.509 1.73827 143.836 0.471998 136.239 0.471998V2.472ZM155.432 6.13674C160.943 8.47162 165.149 11.8131 168.1 16.1468L169.753 15.0212C166.56 10.3309 162.03 6.76037 156.213 4.29524L155.432 6.13674ZM168.114 16.1669C171.146 20.394 172.679 25.4164 172.679 31.28H174.679C174.679 25.0476 173.043 19.606 169.739 15.0011L168.114 16.1669ZM172.679 31.28C172.679 36.6065 171.558 41.5941 169.321 46.2553L171.124 47.1207C173.495 42.1819 174.679 36.8975 174.679 31.28H172.679ZM169.321 46.2553C167.096 50.8899 162.738 56.2611 156.15 62.3708L157.511 63.8372C164.171 57.6589 168.741 52.0861 171.124 47.1207L169.321 46.2553ZM156.144 62.3769L132.96 84.2649L134.333 85.7191L157.517 63.8311L156.144 62.3769ZM133.647 85.992H176.991V83.992H133.647V85.992Z" fill="url(#paint0_linear)"/>
</g>
<defs>
<linearGradient id="paint0_linear" x1="37.5" y1="-36" x2="37.5" y2="140" gradientUnits="userSpaceOnUse">
<stop stop-color="white" stop-opacity="0"/>
<stop offset="1" stop-color="white"/>
</linearGradient>
</defs>
</svg>
