<svg width="176" height="107" viewBox="0 0 176 107" fill="none" xmlns="http://www.w3.org/2000/svg">
<g opacity="0.2">
<path d="M22.0691 99.536L22.6036 98.6908L22.6036 98.6908L22.0691 99.536ZM6.66112 81.68L5.75381 82.1005L5.75692 82.1072L5.76012 82.1138L6.66112 81.68ZM6.66112 25.664L5.75804 25.2345L5.7558 25.2393L6.66112 25.664ZM22.0691 7.664L22.6036 8.50919L22.6036 8.50919L22.0691 7.664ZM66.7091 7.664L66.1747 8.50919L66.1747 8.50919L66.7091 7.664ZM81.9731 25.664L81.0658 26.0845L81.0689 26.0912L81.0721 26.0978L81.9731 25.664ZM81.9731 81.68L81.07 81.2505L81.0678 81.2553L81.9731 81.68ZM66.7091 99.536L66.1747 98.6908L66.1747 98.6908L66.7091 99.536ZM58.7891 78.08L57.9593 77.5218L57.9524 77.5323L58.7891 78.08ZM58.7891 29.12L57.9524 29.6677L57.9594 29.6782L58.7891 29.12ZM29.9891 29.12L29.1593 28.5618L29.1524 28.5723L29.9891 29.12ZM29.9891 78.08L29.1524 78.6277L29.1594 78.6382L29.9891 78.08ZM44.3891 104.728C36.2103 104.728 28.9586 102.709 22.6036 98.6908L21.5347 100.381C28.2356 104.619 35.8639 106.728 44.3891 106.728V104.728ZM22.6036 98.6908C16.252 94.6744 11.2347 88.8738 7.56212 81.2462L5.76012 82.1138C9.57554 90.0382 14.8303 96.1416 21.5347 100.381L22.6036 98.6908ZM7.56843 81.2595C3.99478 73.548 2.18912 64.3381 2.18912 53.6H0.18912C0.18912 64.5579 2.03146 74.068 5.75381 82.1005L7.56843 81.2595ZM2.18912 53.6C2.18912 42.8614 3.99495 33.7016 7.56645 26.0887L5.7558 25.2393C2.03129 33.1783 0.18912 42.6426 0.18912 53.6H2.18912ZM7.56419 26.0935C11.2378 18.3695 16.2551 12.5237 22.6036 8.50919L21.5347 6.8188C14.8271 11.0603 9.57247 17.2144 5.75806 25.2345L7.56419 26.0935ZM22.6036 8.50919C28.9586 4.49055 36.2103 2.472 44.3891 2.472V0.471998C35.8639 0.471998 28.2356 2.58144 21.5347 6.8188L22.6036 8.50919ZM44.3891 2.472C52.5679 2.472 59.8196 4.49055 66.1747 8.50919L67.2436 6.8188C60.5426 2.58144 52.9143 0.471998 44.3891 0.471998V2.472ZM66.1747 8.50919C72.5206 12.5221 77.4884 18.3647 81.0658 26.0845L82.8804 25.2435C79.1619 17.2193 73.9536 11.0619 67.2436 6.8188L66.1747 8.50919ZM81.0721 26.0978C84.7364 33.7083 86.5891 42.8647 86.5891 53.6H88.5891C88.5891 42.6393 86.6978 33.1717 82.8741 25.2302L81.0721 26.0978ZM86.5891 53.6C86.5891 64.3348 84.7366 73.5414 81.0701 81.2505L82.8762 82.1095C86.6977 74.0746 88.5891 64.5612 88.5891 53.6H86.5891ZM81.0678 81.2553C77.4914 88.8786 72.5238 94.6759 66.1747 98.6908L67.2436 100.381C73.9505 96.1401 79.1588 90.0334 82.8784 82.1047L81.0678 81.2553ZM66.1747 98.6908C59.8196 102.709 52.5679 104.728 44.3891 104.728V106.728C52.9143 106.728 60.5426 104.619 67.2436 100.381L66.1747 98.6908ZM44.3891 87C50.8813 87 55.9911 84.1807 59.6258 78.6277L57.9524 77.5323C54.6751 82.5393 50.1849 85 44.3891 85V87ZM59.6188 78.6382C63.3369 73.1114 65.1171 64.7097 65.1171 53.6H63.1171C63.1171 64.5703 61.3454 72.4886 57.9594 77.5218L59.6188 78.6382ZM65.1171 53.6C65.1171 42.4903 63.3369 34.0886 59.6188 28.5618L57.9594 29.6782C61.3454 34.7114 63.1171 42.6297 63.1171 53.6H65.1171ZM59.6258 28.5723C55.9911 23.0193 50.8813 20.2 44.3891 20.2V22.2C50.1849 22.2 54.6751 24.6607 57.9524 29.6677L59.6258 28.5723ZM44.3891 20.2C37.9881 20.2 32.8856 23.0228 29.1594 28.5618L30.8188 29.6782C34.1966 24.6572 38.6942 22.2 44.3891 22.2V20.2ZM29.1524 28.5723C25.5365 34.0966 23.8051 42.4935 23.8051 53.6H25.8051C25.8051 42.6265 27.5297 34.7034 30.8258 29.6677L29.1524 28.5723ZM23.8051 53.6C23.8051 64.7065 25.5365 73.1034 29.1524 78.6277L30.8258 77.5323C27.5297 72.4966 25.8051 64.5735 25.8051 53.6H23.8051ZM29.1594 78.6382C32.8856 84.1772 37.9881 87 44.3891 87V85C38.6942 85 34.1966 82.5428 30.8188 77.5218L29.1594 78.6382ZM147.485 44.24L146.734 43.5803L145.543 44.9366L147.324 45.227L147.485 44.24ZM167.789 54.176L167.049 54.848L167.055 54.8549L167.789 54.176ZM170.237 89.456L171.084 89.9875L171.089 89.9801L170.237 89.456ZM156.125 101.264L155.7 100.359L155.695 100.361L156.125 101.264ZM112.061 102.992L111.79 103.955L111.798 103.957L111.806 103.959L112.061 102.992ZM94.6372 94.928L93.7457 94.475L93.3576 95.2389L94.0529 95.7395L94.6372 94.928ZM103.709 77.072L104.309 76.272L103.357 75.5578L102.818 76.619L103.709 77.072ZM116.957 83.84L116.647 84.7905L116.657 84.794L116.668 84.7973L116.957 83.84ZM146.333 82.832L146.882 83.6677L146.891 83.6623L146.899 83.6567L146.333 82.832ZM121.853 60.8H120.853V61.8H121.853V60.8ZM121.853 45.392L121.104 44.7299L120.853 45.0135V45.392H121.853ZM142.589 21.92L143.339 22.5821L144.807 20.92H142.589V21.92ZM99.6773 21.92H98.6773V22.92H99.6773V21.92ZM99.6773 3.19999V2.19999H98.6773V3.19999H99.6773ZM170.237 3.19999H171.237V2.19999H170.237V3.19999ZM170.237 18.32L170.989 18.9797L171.237 18.6966V18.32H170.237ZM147.324 45.227C155.996 46.6408 162.535 49.8734 167.049 54.848L168.53 53.504C163.636 48.1106 156.638 44.7192 147.646 43.253L147.324 45.227ZM167.055 54.8549C171.571 59.7399 173.845 65.8258 173.845 73.184H175.845C175.845 65.3742 173.415 58.7881 168.524 53.4971L167.055 54.8549ZM173.845 73.184C173.845 78.8548 172.361 84.0974 169.386 88.9319L171.089 89.9801C174.258 84.8306 175.845 79.2252 175.845 73.184H173.845ZM169.39 88.9245C166.44 93.6267 161.899 97.447 155.7 100.359L156.55 102.169C163.023 99.129 167.891 95.0773 171.084 89.9875L169.39 88.9245ZM155.695 100.361C149.625 103.256 142.102 104.728 133.085 104.728V106.728C142.309 106.728 150.146 105.224 156.556 102.167L155.695 100.361ZM133.085 104.728C126.068 104.728 119.146 103.827 112.316 102.025L111.806 103.959C118.801 105.805 125.895 106.728 133.085 106.728V104.728ZM112.332 102.029C105.607 100.135 99.9102 97.4923 95.2216 94.1165L94.0529 95.7395C98.9643 99.2757 104.883 102.009 111.79 103.955L112.332 102.029ZM95.5288 95.381L104.601 77.525L102.818 76.619L93.7457 94.475L95.5288 95.381ZM103.109 77.872C107.045 80.8235 111.56 83.1277 116.647 84.7905L117.268 82.8895C112.37 81.2883 108.054 79.0805 104.309 76.272L103.109 77.872ZM116.668 84.7973C121.849 86.3614 127.131 87.144 132.509 87.144V85.144C127.328 85.144 122.241 84.3906 117.246 82.8827L116.668 84.7973ZM132.509 87.144C138.476 87.144 143.301 86.0214 146.882 83.6677L145.784 81.9963C142.646 84.0586 138.255 85.144 132.509 85.144V87.144ZM146.899 83.6567C150.535 81.1633 152.373 77.6365 152.373 73.184H150.373C150.373 76.9875 148.851 79.8927 145.768 82.0073L146.899 83.6567ZM152.373 73.184C152.373 68.7581 150.663 65.3293 147.206 63.06C143.823 60.839 138.875 59.8 132.509 59.8V61.8C138.72 61.8 143.204 62.825 146.108 64.732C148.94 66.5907 150.373 69.3539 150.373 73.184H152.373ZM132.509 59.8H121.853V61.8H132.509V59.8ZM122.853 60.8V45.392H120.853V60.8H122.853ZM122.603 46.0541L143.339 22.5821L141.84 21.2579L121.104 44.7299L122.603 46.0541ZM142.589 20.92H99.6773V22.92H142.589V20.92ZM100.677 21.92V3.19999H98.6773V21.92H100.677ZM99.6773 4.19999H170.237V2.19999H99.6773V4.19999ZM169.237 3.19999V18.32H171.237V3.19999H169.237ZM169.486 17.6603L146.734 43.5803L148.237 44.8997L170.989 18.9797L169.486 17.6603Z" fill="#2737A7"/>
<path d="M22.0691 99.536L22.6036 98.6908L22.6036 98.6908L22.0691 99.536ZM6.66112 81.68L5.75381 82.1005L5.75692 82.1072L5.76012 82.1138L6.66112 81.68ZM6.66112 25.664L5.75804 25.2345L5.7558 25.2393L6.66112 25.664ZM22.0691 7.664L22.6036 8.50919L22.6036 8.50919L22.0691 7.664ZM66.7091 7.664L66.1747 8.50919L66.1747 8.50919L66.7091 7.664ZM81.9731 25.664L81.0658 26.0845L81.0689 26.0912L81.0721 26.0978L81.9731 25.664ZM81.9731 81.68L81.07 81.2505L81.0678 81.2553L81.9731 81.68ZM66.7091 99.536L66.1747 98.6908L66.1747 98.6908L66.7091 99.536ZM58.7891 78.08L57.9593 77.5218L57.9524 77.5323L58.7891 78.08ZM58.7891 29.12L57.9524 29.6677L57.9594 29.6782L58.7891 29.12ZM29.9891 29.12L29.1593 28.5618L29.1524 28.5723L29.9891 29.12ZM29.9891 78.08L29.1524 78.6277L29.1594 78.6382L29.9891 78.08ZM44.3891 104.728C36.2103 104.728 28.9586 102.709 22.6036 98.6908L21.5347 100.381C28.2356 104.619 35.8639 106.728 44.3891 106.728V104.728ZM22.6036 98.6908C16.252 94.6744 11.2347 88.8738 7.56212 81.2462L5.76012 82.1138C9.57554 90.0382 14.8303 96.1416 21.5347 100.381L22.6036 98.6908ZM7.56843 81.2595C3.99478 73.548 2.18912 64.3381 2.18912 53.6H0.18912C0.18912 64.5579 2.03146 74.068 5.75381 82.1005L7.56843 81.2595ZM2.18912 53.6C2.18912 42.8614 3.99495 33.7016 7.56645 26.0887L5.7558 25.2393C2.03129 33.1783 0.18912 42.6426 0.18912 53.6H2.18912ZM7.56419 26.0935C11.2378 18.3695 16.2551 12.5237 22.6036 8.50919L21.5347 6.8188C14.8271 11.0603 9.57247 17.2144 5.75806 25.2345L7.56419 26.0935ZM22.6036 8.50919C28.9586 4.49055 36.2103 2.472 44.3891 2.472V0.471998C35.8639 0.471998 28.2356 2.58144 21.5347 6.8188L22.6036 8.50919ZM44.3891 2.472C52.5679 2.472 59.8196 4.49055 66.1747 8.50919L67.2436 6.8188C60.5426 2.58144 52.9143 0.471998 44.3891 0.471998V2.472ZM66.1747 8.50919C72.5206 12.5221 77.4884 18.3647 81.0658 26.0845L82.8804 25.2435C79.1619 17.2193 73.9536 11.0619 67.2436 6.8188L66.1747 8.50919ZM81.0721 26.0978C84.7364 33.7083 86.5891 42.8647 86.5891 53.6H88.5891C88.5891 42.6393 86.6978 33.1717 82.8741 25.2302L81.0721 26.0978ZM86.5891 53.6C86.5891 64.3348 84.7366 73.5414 81.0701 81.2505L82.8762 82.1095C86.6977 74.0746 88.5891 64.5612 88.5891 53.6H86.5891ZM81.0678 81.2553C77.4914 88.8786 72.5238 94.6759 66.1747 98.6908L67.2436 100.381C73.9505 96.1401 79.1588 90.0334 82.8784 82.1047L81.0678 81.2553ZM66.1747 98.6908C59.8196 102.709 52.5679 104.728 44.3891 104.728V106.728C52.9143 106.728 60.5426 104.619 67.2436 100.381L66.1747 98.6908ZM44.3891 87C50.8813 87 55.9911 84.1807 59.6258 78.6277L57.9524 77.5323C54.6751 82.5393 50.1849 85 44.3891 85V87ZM59.6188 78.6382C63.3369 73.1114 65.1171 64.7097 65.1171 53.6H63.1171C63.1171 64.5703 61.3454 72.4886 57.9594 77.5218L59.6188 78.6382ZM65.1171 53.6C65.1171 42.4903 63.3369 34.0886 59.6188 28.5618L57.9594 29.6782C61.3454 34.7114 63.1171 42.6297 63.1171 53.6H65.1171ZM59.6258 28.5723C55.9911 23.0193 50.8813 20.2 44.3891 20.2V22.2C50.1849 22.2 54.6751 24.6607 57.9524 29.6677L59.6258 28.5723ZM44.3891 20.2C37.9881 20.2 32.8856 23.0228 29.1594 28.5618L30.8188 29.6782C34.1966 24.6572 38.6942 22.2 44.3891 22.2V20.2ZM29.1524 28.5723C25.5365 34.0966 23.8051 42.4935 23.8051 53.6H25.8051C25.8051 42.6265 27.5297 34.7034 30.8258 29.6677L29.1524 28.5723ZM23.8051 53.6C23.8051 64.7065 25.5365 73.1034 29.1524 78.6277L30.8258 77.5323C27.5297 72.4966 25.8051 64.5735 25.8051 53.6H23.8051ZM29.1594 78.6382C32.8856 84.1772 37.9881 87 44.3891 87V85C38.6942 85 34.1966 82.5428 30.8188 77.5218L29.1594 78.6382ZM147.485 44.24L146.734 43.5803L145.543 44.9366L147.324 45.227L147.485 44.24ZM167.789 54.176L167.049 54.848L167.055 54.8549L167.789 54.176ZM170.237 89.456L171.084 89.9875L171.089 89.9801L170.237 89.456ZM156.125 101.264L155.7 100.359L155.695 100.361L156.125 101.264ZM112.061 102.992L111.79 103.955L111.798 103.957L111.806 103.959L112.061 102.992ZM94.6372 94.928L93.7457 94.475L93.3576 95.2389L94.0529 95.7395L94.6372 94.928ZM103.709 77.072L104.309 76.272L103.357 75.5578L102.818 76.619L103.709 77.072ZM116.957 83.84L116.647 84.7905L116.657 84.794L116.668 84.7973L116.957 83.84ZM146.333 82.832L146.882 83.6677L146.891 83.6623L146.899 83.6567L146.333 82.832ZM121.853 60.8H120.853V61.8H121.853V60.8ZM121.853 45.392L121.104 44.7299L120.853 45.0135V45.392H121.853ZM142.589 21.92L143.339 22.5821L144.807 20.92H142.589V21.92ZM99.6773 21.92H98.6773V22.92H99.6773V21.92ZM99.6773 3.19999V2.19999H98.6773V3.19999H99.6773ZM170.237 3.19999H171.237V2.19999H170.237V3.19999ZM170.237 18.32L170.989 18.9797L171.237 18.6966V18.32H170.237ZM147.324 45.227C155.996 46.6408 162.535 49.8734 167.049 54.848L168.53 53.504C163.636 48.1106 156.638 44.7192 147.646 43.253L147.324 45.227ZM167.055 54.8549C171.571 59.7399 173.845 65.8258 173.845 73.184H175.845C175.845 65.3742 173.415 58.7881 168.524 53.4971L167.055 54.8549ZM173.845 73.184C173.845 78.8548 172.361 84.0974 169.386 88.9319L171.089 89.9801C174.258 84.8306 175.845 79.2252 175.845 73.184H173.845ZM169.39 88.9245C166.44 93.6267 161.899 97.447 155.7 100.359L156.55 102.169C163.023 99.129 167.891 95.0773 171.084 89.9875L169.39 88.9245ZM155.695 100.361C149.625 103.256 142.102 104.728 133.085 104.728V106.728C142.309 106.728 150.146 105.224 156.556 102.167L155.695 100.361ZM133.085 104.728C126.068 104.728 119.146 103.827 112.316 102.025L111.806 103.959C118.801 105.805 125.895 106.728 133.085 106.728V104.728ZM112.332 102.029C105.607 100.135 99.9102 97.4923 95.2216 94.1165L94.0529 95.7395C98.9643 99.2757 104.883 102.009 111.79 103.955L112.332 102.029ZM95.5288 95.381L104.601 77.525L102.818 76.619L93.7457 94.475L95.5288 95.381ZM103.109 77.872C107.045 80.8235 111.56 83.1277 116.647 84.7905L117.268 82.8895C112.37 81.2883 108.054 79.0805 104.309 76.272L103.109 77.872ZM116.668 84.7973C121.849 86.3614 127.131 87.144 132.509 87.144V85.144C127.328 85.144 122.241 84.3906 117.246 82.8827L116.668 84.7973ZM132.509 87.144C138.476 87.144 143.301 86.0214 146.882 83.6677L145.784 81.9963C142.646 84.0586 138.255 85.144 132.509 85.144V87.144ZM146.899 83.6567C150.535 81.1633 152.373 77.6365 152.373 73.184H150.373C150.373 76.9875 148.851 79.8927 145.768 82.0073L146.899 83.6567ZM152.373 73.184C152.373 68.7581 150.663 65.3293 147.206 63.06C143.823 60.839 138.875 59.8 132.509 59.8V61.8C138.72 61.8 143.204 62.825 146.108 64.732C148.94 66.5907 150.373 69.3539 150.373 73.184H152.373ZM132.509 59.8H121.853V61.8H132.509V59.8ZM122.853 60.8V45.392H120.853V60.8H122.853ZM122.603 46.0541L143.339 22.5821L141.84 21.2579L121.104 44.7299L122.603 46.0541ZM142.589 20.92H99.6773V22.92H142.589V20.92ZM100.677 21.92V3.19999H98.6773V21.92H100.677ZM99.6773 4.19999H170.237V2.19999H99.6773V4.19999ZM169.237 3.19999V18.32H171.237V3.19999H169.237ZM169.486 17.6603L146.734 43.5803L148.237 44.8997L170.989 18.9797L169.486 17.6603Z" fill="url(#paint0_linear)"/>
</g>
<defs>
<linearGradient id="paint0_linear" x1="50" y1="-36" x2="50" y2="140" gradientUnits="userSpaceOnUse">
<stop stop-color="white" stop-opacity="0"/>
<stop offset="1" stop-color="white"/>
</linearGradient>
</defs>
</svg>
