<svg width="196" height="107" viewBox="0 0 196 107" fill="none" xmlns="http://www.w3.org/2000/svg">
<g opacity="0.2">
<path d="M22.6004 99.536L23.1348 98.6908L23.1348 98.6908L22.6004 99.536ZM7.19237 81.68L6.28506 82.1005L6.28817 82.1072L6.29137 82.1138L7.19237 81.68ZM7.19237 25.664L6.28929 25.2345L6.28705 25.2393L7.19237 25.664ZM22.6004 7.664L23.1348 8.50919L23.1348 8.50919L22.6004 7.664ZM67.2404 7.664L66.7059 8.50919L66.7059 8.50919L67.2404 7.664ZM82.5044 25.664L81.5971 26.0845L81.6002 26.0912L81.6034 26.0978L82.5044 25.664ZM82.5044 81.68L81.6013 81.2505L81.599 81.2553L82.5044 81.68ZM67.2404 99.536L66.7059 98.6908L66.7059 98.6908L67.2404 99.536ZM59.3204 78.08L58.4906 77.5218L58.4837 77.5323L59.3204 78.08ZM59.3204 29.12L58.4836 29.6677L58.4906 29.6782L59.3204 29.12ZM30.5204 29.12L29.6906 28.5618L29.6837 28.5723L30.5204 29.12ZM30.5204 78.08L29.6836 78.6277L29.6906 78.6382L30.5204 78.08ZM44.9204 104.728C36.7416 104.728 29.4899 102.709 23.1348 98.6908L22.0659 100.381C28.7669 104.619 36.3952 106.728 44.9204 106.728V104.728ZM23.1348 98.6908C16.7832 94.6744 11.7659 88.8738 8.09337 81.2462L6.29137 82.1138C10.1068 90.0382 15.3615 96.1416 22.0659 100.381L23.1348 98.6908ZM8.09968 81.2595C4.52603 73.548 2.72037 64.3381 2.72037 53.6H0.72037C0.72037 64.5579 2.56271 74.068 6.28506 82.1005L8.09968 81.2595ZM2.72037 53.6C2.72037 42.8614 4.5262 33.7016 8.0977 26.0887L6.28705 25.2393C2.56254 33.1783 0.72037 42.6426 0.72037 53.6H2.72037ZM8.09544 26.0935C11.769 18.3695 16.7864 12.5237 23.1348 8.50919L22.0659 6.8188C15.3584 11.0603 10.1037 17.2144 6.28931 25.2345L8.09544 26.0935ZM23.1348 8.50919C29.4899 4.49055 36.7416 2.472 44.9204 2.472V0.471998C36.3952 0.471998 28.7669 2.58144 22.0659 6.8188L23.1348 8.50919ZM44.9204 2.472C53.0992 2.472 60.3509 4.49055 66.7059 8.50919L67.7748 6.8188C61.0739 2.58144 53.4456 0.471998 44.9204 0.471998V2.472ZM66.7059 8.50919C73.0519 12.5221 78.0196 18.3647 81.5971 26.0845L83.4117 25.2435C79.6931 17.2193 74.4849 11.0619 67.7748 6.8188L66.7059 8.50919ZM81.6034 26.0978C85.2677 33.7083 87.1204 42.8647 87.1204 53.6H89.1204C89.1204 42.6393 87.2291 33.1717 83.4054 25.2302L81.6034 26.0978ZM87.1204 53.6C87.1204 64.3348 85.2678 73.5414 81.6013 81.2505L83.4074 82.1095C87.2289 74.0746 89.1204 64.5612 89.1204 53.6H87.1204ZM81.599 81.2553C78.0227 88.8786 73.055 94.6759 66.7059 98.6908L67.7748 100.381C74.4817 96.1401 79.6901 90.0334 83.4097 82.1047L81.599 81.2553ZM66.7059 98.6908C60.3509 102.709 53.0992 104.728 44.9204 104.728V106.728C53.4456 106.728 61.0739 104.619 67.7748 100.381L66.7059 98.6908ZM44.9204 87C51.4126 87 56.5224 84.1807 60.1571 78.6277L58.4837 77.5323C55.2064 82.5393 50.7161 85 44.9204 85V87ZM60.1501 78.6382C63.8681 73.1114 65.6484 64.7097 65.6484 53.6H63.6484C63.6484 64.5703 61.8766 72.4886 58.4906 77.5218L60.1501 78.6382ZM65.6484 53.6C65.6484 42.4903 63.8681 34.0886 60.1501 28.5618L58.4906 29.6782C61.8766 34.7114 63.6484 42.6297 63.6484 53.6H65.6484ZM60.1571 28.5723C56.5224 23.0193 51.4126 20.2 44.9204 20.2V22.2C50.7161 22.2 55.2064 24.6607 58.4837 29.6677L60.1571 28.5723ZM44.9204 20.2C38.5193 20.2 33.4169 23.0228 29.6906 28.5618L31.3501 29.6782C34.7279 24.6572 39.2254 22.2 44.9204 22.2V20.2ZM29.6837 28.5723C26.0678 34.0966 24.3364 42.4935 24.3364 53.6H26.3364C26.3364 42.6265 28.061 34.7034 31.3571 29.6677L29.6837 28.5723ZM24.3364 53.6C24.3364 64.7065 26.0678 73.1034 29.6837 78.6277L31.3571 77.5323C28.061 72.4966 26.3364 64.5735 26.3364 53.6H24.3364ZM29.6906 78.6382C33.4169 84.1772 38.5193 87 44.9204 87V85C39.2254 85 34.7279 82.5428 31.3501 77.5218L29.6906 78.6382ZM194.639 82.832V83.832H195.639V82.832H194.639ZM178.223 82.832V81.832H177.223V82.832H178.223ZM178.223 104V105H179.223V104H178.223ZM155.471 104H154.471V105H155.471V104ZM155.471 82.832H156.471V81.832H155.471V82.832ZM101.183 82.832H100.183V83.832H101.183V82.832ZM101.183 67.136L100.38 66.5395L100.183 66.8051V67.136H101.183ZM148.703 3.19999V2.19999H148.2L147.9 2.60347L148.703 3.19999ZM173.183 3.19999L173.992 3.78794L175.146 2.19999H173.183V3.19999ZM129.119 63.824L128.31 63.2361L127.156 64.824H129.119V63.824ZM156.191 63.824V64.824H157.191V63.824H156.191ZM156.191 44.96V43.96H155.191V44.96H156.191ZM178.223 44.96H179.223V43.96H178.223V44.96ZM178.223 63.824H177.223V64.824H178.223V63.824ZM194.639 63.824H195.639V62.824H194.639V63.824ZM194.639 81.832H178.223V83.832H194.639V81.832ZM177.223 82.832V104H179.223V82.832H177.223ZM178.223 103H155.471V105H178.223V103ZM156.471 104V82.832H154.471V104H156.471ZM155.471 81.832H101.183V83.832H155.471V81.832ZM102.183 82.832V67.136H100.183V82.832H102.183ZM101.985 67.7325L149.505 3.79652L147.9 2.60347L100.38 66.5395L101.985 67.7325ZM148.703 4.19999H173.183V2.19999H148.703V4.19999ZM172.374 2.61205L128.31 63.2361L129.928 64.4119L173.992 3.78794L172.374 2.61205ZM129.119 64.824H156.191V62.824H129.119V64.824ZM157.191 63.824V44.96H155.191V63.824H157.191ZM156.191 45.96H178.223V43.96H156.191V45.96ZM177.223 44.96V63.824H179.223V44.96H177.223ZM178.223 64.824H194.639V62.824H178.223V64.824ZM193.639 63.824V82.832H195.639V63.824H193.639Z" fill="#2737A7"/>
<path d="M22.6004 99.536L23.1348 98.6908L23.1348 98.6908L22.6004 99.536ZM7.19237 81.68L6.28506 82.1005L6.28817 82.1072L6.29137 82.1138L7.19237 81.68ZM7.19237 25.664L6.28929 25.2345L6.28705 25.2393L7.19237 25.664ZM22.6004 7.664L23.1348 8.50919L23.1348 8.50919L22.6004 7.664ZM67.2404 7.664L66.7059 8.50919L66.7059 8.50919L67.2404 7.664ZM82.5044 25.664L81.5971 26.0845L81.6002 26.0912L81.6034 26.0978L82.5044 25.664ZM82.5044 81.68L81.6013 81.2505L81.599 81.2553L82.5044 81.68ZM67.2404 99.536L66.7059 98.6908L66.7059 98.6908L67.2404 99.536ZM59.3204 78.08L58.4906 77.5218L58.4837 77.5323L59.3204 78.08ZM59.3204 29.12L58.4836 29.6677L58.4906 29.6782L59.3204 29.12ZM30.5204 29.12L29.6906 28.5618L29.6837 28.5723L30.5204 29.12ZM30.5204 78.08L29.6836 78.6277L29.6906 78.6382L30.5204 78.08ZM44.9204 104.728C36.7416 104.728 29.4899 102.709 23.1348 98.6908L22.0659 100.381C28.7669 104.619 36.3952 106.728 44.9204 106.728V104.728ZM23.1348 98.6908C16.7832 94.6744 11.7659 88.8738 8.09337 81.2462L6.29137 82.1138C10.1068 90.0382 15.3615 96.1416 22.0659 100.381L23.1348 98.6908ZM8.09968 81.2595C4.52603 73.548 2.72037 64.3381 2.72037 53.6H0.72037C0.72037 64.5579 2.56271 74.068 6.28506 82.1005L8.09968 81.2595ZM2.72037 53.6C2.72037 42.8614 4.5262 33.7016 8.0977 26.0887L6.28705 25.2393C2.56254 33.1783 0.72037 42.6426 0.72037 53.6H2.72037ZM8.09544 26.0935C11.769 18.3695 16.7864 12.5237 23.1348 8.50919L22.0659 6.8188C15.3584 11.0603 10.1037 17.2144 6.28931 25.2345L8.09544 26.0935ZM23.1348 8.50919C29.4899 4.49055 36.7416 2.472 44.9204 2.472V0.471998C36.3952 0.471998 28.7669 2.58144 22.0659 6.8188L23.1348 8.50919ZM44.9204 2.472C53.0992 2.472 60.3509 4.49055 66.7059 8.50919L67.7748 6.8188C61.0739 2.58144 53.4456 0.471998 44.9204 0.471998V2.472ZM66.7059 8.50919C73.0519 12.5221 78.0196 18.3647 81.5971 26.0845L83.4117 25.2435C79.6931 17.2193 74.4849 11.0619 67.7748 6.8188L66.7059 8.50919ZM81.6034 26.0978C85.2677 33.7083 87.1204 42.8647 87.1204 53.6H89.1204C89.1204 42.6393 87.2291 33.1717 83.4054 25.2302L81.6034 26.0978ZM87.1204 53.6C87.1204 64.3348 85.2678 73.5414 81.6013 81.2505L83.4074 82.1095C87.2289 74.0746 89.1204 64.5612 89.1204 53.6H87.1204ZM81.599 81.2553C78.0227 88.8786 73.055 94.6759 66.7059 98.6908L67.7748 100.381C74.4817 96.1401 79.6901 90.0334 83.4097 82.1047L81.599 81.2553ZM66.7059 98.6908C60.3509 102.709 53.0992 104.728 44.9204 104.728V106.728C53.4456 106.728 61.0739 104.619 67.7748 100.381L66.7059 98.6908ZM44.9204 87C51.4126 87 56.5224 84.1807 60.1571 78.6277L58.4837 77.5323C55.2064 82.5393 50.7161 85 44.9204 85V87ZM60.1501 78.6382C63.8681 73.1114 65.6484 64.7097 65.6484 53.6H63.6484C63.6484 64.5703 61.8766 72.4886 58.4906 77.5218L60.1501 78.6382ZM65.6484 53.6C65.6484 42.4903 63.8681 34.0886 60.1501 28.5618L58.4906 29.6782C61.8766 34.7114 63.6484 42.6297 63.6484 53.6H65.6484ZM60.1571 28.5723C56.5224 23.0193 51.4126 20.2 44.9204 20.2V22.2C50.7161 22.2 55.2064 24.6607 58.4837 29.6677L60.1571 28.5723ZM44.9204 20.2C38.5193 20.2 33.4169 23.0228 29.6906 28.5618L31.3501 29.6782C34.7279 24.6572 39.2254 22.2 44.9204 22.2V20.2ZM29.6837 28.5723C26.0678 34.0966 24.3364 42.4935 24.3364 53.6H26.3364C26.3364 42.6265 28.061 34.7034 31.3571 29.6677L29.6837 28.5723ZM24.3364 53.6C24.3364 64.7065 26.0678 73.1034 29.6837 78.6277L31.3571 77.5323C28.061 72.4966 26.3364 64.5735 26.3364 53.6H24.3364ZM29.6906 78.6382C33.4169 84.1772 38.5193 87 44.9204 87V85C39.2254 85 34.7279 82.5428 31.3501 77.5218L29.6906 78.6382ZM194.639 82.832V83.832H195.639V82.832H194.639ZM178.223 82.832V81.832H177.223V82.832H178.223ZM178.223 104V105H179.223V104H178.223ZM155.471 104H154.471V105H155.471V104ZM155.471 82.832H156.471V81.832H155.471V82.832ZM101.183 82.832H100.183V83.832H101.183V82.832ZM101.183 67.136L100.38 66.5395L100.183 66.8051V67.136H101.183ZM148.703 3.19999V2.19999H148.2L147.9 2.60347L148.703 3.19999ZM173.183 3.19999L173.992 3.78794L175.146 2.19999H173.183V3.19999ZM129.119 63.824L128.31 63.2361L127.156 64.824H129.119V63.824ZM156.191 63.824V64.824H157.191V63.824H156.191ZM156.191 44.96V43.96H155.191V44.96H156.191ZM178.223 44.96H179.223V43.96H178.223V44.96ZM178.223 63.824H177.223V64.824H178.223V63.824ZM194.639 63.824H195.639V62.824H194.639V63.824ZM194.639 81.832H178.223V83.832H194.639V81.832ZM177.223 82.832V104H179.223V82.832H177.223ZM178.223 103H155.471V105H178.223V103ZM156.471 104V82.832H154.471V104H156.471ZM155.471 81.832H101.183V83.832H155.471V81.832ZM102.183 82.832V67.136H100.183V82.832H102.183ZM101.985 67.7325L149.505 3.79652L147.9 2.60347L100.38 66.5395L101.985 67.7325ZM148.703 4.19999H173.183V2.19999H148.703V4.19999ZM172.374 2.61205L128.31 63.2361L129.928 64.4119L173.992 3.78794L172.374 2.61205ZM129.119 64.824H156.191V62.824H129.119V64.824ZM157.191 63.824V44.96H155.191V63.824H157.191ZM156.191 45.96H178.223V43.96H156.191V45.96ZM177.223 44.96V63.824H179.223V44.96H177.223ZM178.223 64.824H194.639V62.824H178.223V64.824ZM193.639 63.824V82.832H195.639V63.824H193.639Z" fill="url(#paint0_linear)"/>
</g>
<defs>
<linearGradient id="paint0_linear" x1="14" y1="-36" x2="14" y2="140" gradientUnits="userSpaceOnUse">
<stop stop-color="white" stop-opacity="0"/>
<stop offset="1" stop-color="white"/>
</linearGradient>
</defs>
</svg>
