<svg width="180" height="107" viewBox="0 0 180 107" fill="none" xmlns="http://www.w3.org/2000/svg">
<g opacity="0.2">
<path d="M22.241 99.536L22.7755 98.6908L22.7755 98.6908L22.241 99.536ZM6.833 81.68L5.92569 82.1005L5.92879 82.1072L5.93199 82.1138L6.833 81.68ZM6.833 25.664L5.92992 25.2345L5.92767 25.2393L6.833 25.664ZM22.241 7.664L22.7755 8.50919L22.7755 8.50919L22.241 7.664ZM66.881 7.664L66.3465 8.50919L66.3465 8.50919L66.881 7.664ZM82.145 25.664L81.2377 26.0845L81.2408 26.0912L81.244 26.0978L82.145 25.664ZM82.145 81.68L81.2419 81.2505L81.2397 81.2553L82.145 81.68ZM66.881 99.536L66.3465 98.6908L66.3465 98.6908L66.881 99.536ZM58.961 78.08L58.1312 77.5218L58.1243 77.5323L58.961 78.08ZM58.961 29.12L58.1242 29.6677L58.1313 29.6782L58.961 29.12ZM30.161 29.12L29.3312 28.5618L29.3243 28.5723L30.161 29.12ZM30.161 78.08L29.3242 78.6277L29.3313 78.6382L30.161 78.08ZM44.561 104.728C36.3822 104.728 29.1305 102.709 22.7755 98.6908L21.7065 100.381C28.4075 104.619 36.0358 106.728 44.561 106.728V104.728ZM22.7755 98.6908C16.4239 94.6744 11.4066 88.8738 7.734 81.2462L5.93199 82.1138C9.74742 90.0382 15.0021 96.1416 21.7065 100.381L22.7755 98.6908ZM7.74031 81.2595C4.16666 73.548 2.361 64.3381 2.361 53.6H0.360995C0.360995 64.5579 2.20333 74.068 5.92569 82.1005L7.74031 81.2595ZM2.361 53.6C2.361 42.8614 4.16682 33.7016 7.73832 26.0887L5.92767 25.2393C2.20317 33.1783 0.360995 42.6426 0.360995 53.6H2.361ZM7.73606 26.0935C11.4097 18.3695 16.427 12.5237 22.7755 8.50919L21.7065 6.8188C14.999 11.0603 9.74434 17.2144 5.92993 25.2345L7.73606 26.0935ZM22.7755 8.50919C29.1305 4.49055 36.3822 2.472 44.561 2.472V0.471998C36.0358 0.471998 28.4075 2.58144 21.7065 6.8188L22.7755 8.50919ZM44.561 2.472C52.7398 2.472 59.9915 4.49055 66.3465 8.50919L67.4155 6.8188C60.7145 2.58144 53.0862 0.471998 44.561 0.471998V2.472ZM66.3465 8.50919C72.6925 12.5221 77.6603 18.3647 81.2377 26.0845L83.0523 25.2435C79.3337 17.2193 74.1255 11.0619 67.4155 6.8188L66.3465 8.50919ZM81.244 26.0978C84.9083 33.7083 86.761 42.8647 86.761 53.6H88.761C88.761 42.6393 86.8697 33.1717 83.046 25.2302L81.244 26.0978ZM86.761 53.6C86.761 64.3348 84.9085 73.5414 81.2419 81.2505L83.0481 82.1095C86.8695 74.0746 88.761 64.5612 88.761 53.6H86.761ZM81.2397 81.2553C77.6633 88.8786 72.6956 94.6759 66.3465 98.6908L67.4155 100.381C74.1224 96.1401 79.3307 90.0334 83.0503 82.1047L81.2397 81.2553ZM66.3465 98.6908C59.9915 102.709 52.7398 104.728 44.561 104.728V106.728C53.0862 106.728 60.7145 104.619 67.4155 100.381L66.3465 98.6908ZM44.561 87C51.0532 87 56.163 84.1807 59.7977 78.6277L58.1243 77.5323C54.847 82.5393 50.3568 85 44.561 85V87ZM59.7907 78.6382C63.5088 73.1114 65.289 64.7097 65.289 53.6H63.289C63.289 64.5703 61.5172 72.4886 58.1313 77.5218L59.7907 78.6382ZM65.289 53.6C65.289 42.4903 63.5088 34.0886 59.7907 28.5618L58.1313 29.6782C61.5172 34.7114 63.289 42.6297 63.289 53.6H65.289ZM59.7977 28.5723C56.163 23.0193 51.0532 20.2 44.561 20.2V22.2C50.3568 22.2 54.847 24.6607 58.1243 29.6677L59.7977 28.5723ZM44.561 20.2C38.1599 20.2 33.0575 23.0228 29.3313 28.5618L30.9907 29.6782C34.3685 24.6572 38.8661 22.2 44.561 22.2V20.2ZM29.3243 28.5723C25.7084 34.0966 23.977 42.4935 23.977 53.6H25.977C25.977 42.6265 27.7016 34.7034 30.9977 29.6677L29.3243 28.5723ZM23.977 53.6C23.977 64.7065 25.7084 73.1034 29.3243 78.6277L30.9977 77.5323C27.7016 72.4966 25.977 64.5735 25.977 53.6H23.977ZM29.3313 78.6382C33.0575 84.1772 38.1599 87 44.561 87V85C38.8661 85 34.3685 82.5428 30.9907 77.5218L29.3313 78.6382ZM167.927 49.568L167.283 50.3326L167.288 50.3371L167.927 49.568ZM173.543 89.168L174.395 89.6921L174.399 89.6849L173.543 89.168ZM159.431 101.264L159.862 102.167L159.868 102.164L159.431 101.264ZM115.223 102.992L114.952 103.955L114.96 103.957L114.968 103.959L115.223 102.992ZM97.7994 94.928L96.9108 94.4694L96.5152 95.2357L97.2151 95.7395L97.7994 94.928ZM107.015 77.072L107.615 76.272L106.669 75.5624L106.127 76.6134L107.015 77.072ZM120.263 83.84L119.953 84.7905L119.961 84.7932L119.969 84.7958L120.263 83.84ZM149.495 82.688L150.061 83.5127L150.061 83.5127L149.495 82.688ZM149.207 63.248L148.669 64.0908L148.679 64.0973L149.207 63.248ZM105.287 59.936L104.292 59.845L104.192 60.936H105.287V59.936ZM110.471 3.19999V2.19999H109.559L109.476 3.109L110.471 3.19999ZM171.959 3.19999H172.959V2.19999H171.959V3.19999ZM171.959 21.92V22.92H172.959V21.92H171.959ZM129.911 21.92V20.92H128.991L128.915 21.8376L129.911 21.92ZM128.327 41.072L127.331 40.9896L127.241 42.072H128.327V41.072ZM136.535 42.072C150.644 42.072 160.825 44.8899 167.283 50.3326L168.572 48.8034C161.589 42.9181 150.843 40.072 136.535 40.072V42.072ZM167.288 50.3371C173.857 55.796 177.151 63.0887 177.151 72.32H179.151C179.151 62.5433 175.629 54.668 168.566 48.7989L167.288 50.3371ZM177.151 72.32C177.151 78.2883 175.662 83.7245 172.687 88.6511L174.399 89.6849C177.569 84.4355 179.151 78.6397 179.151 72.32H177.151ZM172.692 88.6439C169.738 93.4435 165.195 97.3584 158.995 100.364L159.868 102.164C166.34 99.0256 171.205 94.8764 174.395 89.6921L172.692 88.6439ZM159.001 100.361C152.932 103.256 145.362 104.728 136.247 104.728V106.728C145.565 106.728 153.45 105.224 159.862 102.167L159.001 100.361ZM136.247 104.728C129.23 104.728 122.308 103.827 115.479 102.025L114.968 103.959C121.963 105.805 129.057 106.728 136.247 106.728V104.728ZM115.495 102.029C108.769 100.135 103.072 97.4923 98.3837 94.1165L97.2151 95.7395C102.126 99.2757 108.045 102.009 114.952 103.955L115.495 102.029ZM98.688 95.3866L107.904 77.5306L106.127 76.6134L96.9108 94.4694L98.688 95.3866ZM106.415 77.872C110.351 80.8235 114.866 83.1277 119.953 84.7905L120.574 82.8895C115.676 81.2883 111.36 79.0805 107.615 76.272L106.415 77.872ZM119.969 84.7958C125.058 86.3614 130.293 87.144 135.671 87.144V85.144C130.49 85.144 125.453 84.3906 120.557 82.8842L119.969 84.7958ZM135.671 87.144C141.645 87.144 146.476 85.9708 150.061 83.5127L148.93 81.8633C145.795 84.0132 141.41 85.144 135.671 85.144V87.144ZM150.061 83.5127C153.697 81.0193 155.535 77.4925 155.535 73.04H153.535C153.535 76.8435 152.014 79.7487 148.93 81.8633L150.061 83.5127ZM155.535 73.04C155.535 68.3882 153.592 64.7964 149.735 62.3987L148.679 64.0973C151.926 66.1156 153.535 69.0518 153.535 73.04H155.535ZM149.746 62.4053C146.029 60.0309 139.725 58.936 131.063 58.936V60.936C139.682 60.936 145.473 62.0491 148.669 64.0907L149.746 62.4053ZM131.063 58.936H105.287V60.936H131.063V58.936ZM106.283 60.027L111.467 3.29098L109.476 3.109L104.292 59.845L106.283 60.027ZM110.471 4.19999H171.959V2.19999H110.471V4.19999ZM170.959 3.19999V21.92H172.959V3.19999H170.959ZM171.959 20.92H129.911V22.92H171.959V20.92ZM128.915 21.8376L127.331 40.9896L129.324 41.1544L130.908 22.0024L128.915 21.8376ZM128.327 42.072H136.535V40.072H128.327V42.072Z" fill="#2737A7"/>
<path d="M22.241 99.536L22.7755 98.6908L22.7755 98.6908L22.241 99.536ZM6.833 81.68L5.92569 82.1005L5.92879 82.1072L5.93199 82.1138L6.833 81.68ZM6.833 25.664L5.92992 25.2345L5.92767 25.2393L6.833 25.664ZM22.241 7.664L22.7755 8.50919L22.7755 8.50919L22.241 7.664ZM66.881 7.664L66.3465 8.50919L66.3465 8.50919L66.881 7.664ZM82.145 25.664L81.2377 26.0845L81.2408 26.0912L81.244 26.0978L82.145 25.664ZM82.145 81.68L81.2419 81.2505L81.2397 81.2553L82.145 81.68ZM66.881 99.536L66.3465 98.6908L66.3465 98.6908L66.881 99.536ZM58.961 78.08L58.1312 77.5218L58.1243 77.5323L58.961 78.08ZM58.961 29.12L58.1242 29.6677L58.1313 29.6782L58.961 29.12ZM30.161 29.12L29.3312 28.5618L29.3243 28.5723L30.161 29.12ZM30.161 78.08L29.3242 78.6277L29.3313 78.6382L30.161 78.08ZM44.561 104.728C36.3822 104.728 29.1305 102.709 22.7755 98.6908L21.7065 100.381C28.4075 104.619 36.0358 106.728 44.561 106.728V104.728ZM22.7755 98.6908C16.4239 94.6744 11.4066 88.8738 7.734 81.2462L5.93199 82.1138C9.74742 90.0382 15.0021 96.1416 21.7065 100.381L22.7755 98.6908ZM7.74031 81.2595C4.16666 73.548 2.361 64.3381 2.361 53.6H0.360995C0.360995 64.5579 2.20333 74.068 5.92569 82.1005L7.74031 81.2595ZM2.361 53.6C2.361 42.8614 4.16682 33.7016 7.73832 26.0887L5.92767 25.2393C2.20317 33.1783 0.360995 42.6426 0.360995 53.6H2.361ZM7.73606 26.0935C11.4097 18.3695 16.427 12.5237 22.7755 8.50919L21.7065 6.8188C14.999 11.0603 9.74434 17.2144 5.92993 25.2345L7.73606 26.0935ZM22.7755 8.50919C29.1305 4.49055 36.3822 2.472 44.561 2.472V0.471998C36.0358 0.471998 28.4075 2.58144 21.7065 6.8188L22.7755 8.50919ZM44.561 2.472C52.7398 2.472 59.9915 4.49055 66.3465 8.50919L67.4155 6.8188C60.7145 2.58144 53.0862 0.471998 44.561 0.471998V2.472ZM66.3465 8.50919C72.6925 12.5221 77.6603 18.3647 81.2377 26.0845L83.0523 25.2435C79.3337 17.2193 74.1255 11.0619 67.4155 6.8188L66.3465 8.50919ZM81.244 26.0978C84.9083 33.7083 86.761 42.8647 86.761 53.6H88.761C88.761 42.6393 86.8697 33.1717 83.046 25.2302L81.244 26.0978ZM86.761 53.6C86.761 64.3348 84.9085 73.5414 81.2419 81.2505L83.0481 82.1095C86.8695 74.0746 88.761 64.5612 88.761 53.6H86.761ZM81.2397 81.2553C77.6633 88.8786 72.6956 94.6759 66.3465 98.6908L67.4155 100.381C74.1224 96.1401 79.3307 90.0334 83.0503 82.1047L81.2397 81.2553ZM66.3465 98.6908C59.9915 102.709 52.7398 104.728 44.561 104.728V106.728C53.0862 106.728 60.7145 104.619 67.4155 100.381L66.3465 98.6908ZM44.561 87C51.0532 87 56.163 84.1807 59.7977 78.6277L58.1243 77.5323C54.847 82.5393 50.3568 85 44.561 85V87ZM59.7907 78.6382C63.5088 73.1114 65.289 64.7097 65.289 53.6H63.289C63.289 64.5703 61.5172 72.4886 58.1313 77.5218L59.7907 78.6382ZM65.289 53.6C65.289 42.4903 63.5088 34.0886 59.7907 28.5618L58.1313 29.6782C61.5172 34.7114 63.289 42.6297 63.289 53.6H65.289ZM59.7977 28.5723C56.163 23.0193 51.0532 20.2 44.561 20.2V22.2C50.3568 22.2 54.847 24.6607 58.1243 29.6677L59.7977 28.5723ZM44.561 20.2C38.1599 20.2 33.0575 23.0228 29.3313 28.5618L30.9907 29.6782C34.3685 24.6572 38.8661 22.2 44.561 22.2V20.2ZM29.3243 28.5723C25.7084 34.0966 23.977 42.4935 23.977 53.6H25.977C25.977 42.6265 27.7016 34.7034 30.9977 29.6677L29.3243 28.5723ZM23.977 53.6C23.977 64.7065 25.7084 73.1034 29.3243 78.6277L30.9977 77.5323C27.7016 72.4966 25.977 64.5735 25.977 53.6H23.977ZM29.3313 78.6382C33.0575 84.1772 38.1599 87 44.561 87V85C38.8661 85 34.3685 82.5428 30.9907 77.5218L29.3313 78.6382ZM167.927 49.568L167.283 50.3326L167.288 50.3371L167.927 49.568ZM173.543 89.168L174.395 89.6921L174.399 89.6849L173.543 89.168ZM159.431 101.264L159.862 102.167L159.868 102.164L159.431 101.264ZM115.223 102.992L114.952 103.955L114.96 103.957L114.968 103.959L115.223 102.992ZM97.7994 94.928L96.9108 94.4694L96.5152 95.2357L97.2151 95.7395L97.7994 94.928ZM107.015 77.072L107.615 76.272L106.669 75.5624L106.127 76.6134L107.015 77.072ZM120.263 83.84L119.953 84.7905L119.961 84.7932L119.969 84.7958L120.263 83.84ZM149.495 82.688L150.061 83.5127L150.061 83.5127L149.495 82.688ZM149.207 63.248L148.669 64.0908L148.679 64.0973L149.207 63.248ZM105.287 59.936L104.292 59.845L104.192 60.936H105.287V59.936ZM110.471 3.19999V2.19999H109.559L109.476 3.109L110.471 3.19999ZM171.959 3.19999H172.959V2.19999H171.959V3.19999ZM171.959 21.92V22.92H172.959V21.92H171.959ZM129.911 21.92V20.92H128.991L128.915 21.8376L129.911 21.92ZM128.327 41.072L127.331 40.9896L127.241 42.072H128.327V41.072ZM136.535 42.072C150.644 42.072 160.825 44.8899 167.283 50.3326L168.572 48.8034C161.589 42.9181 150.843 40.072 136.535 40.072V42.072ZM167.288 50.3371C173.857 55.796 177.151 63.0887 177.151 72.32H179.151C179.151 62.5433 175.629 54.668 168.566 48.7989L167.288 50.3371ZM177.151 72.32C177.151 78.2883 175.662 83.7245 172.687 88.6511L174.399 89.6849C177.569 84.4355 179.151 78.6397 179.151 72.32H177.151ZM172.692 88.6439C169.738 93.4435 165.195 97.3584 158.995 100.364L159.868 102.164C166.34 99.0256 171.205 94.8764 174.395 89.6921L172.692 88.6439ZM159.001 100.361C152.932 103.256 145.362 104.728 136.247 104.728V106.728C145.565 106.728 153.45 105.224 159.862 102.167L159.001 100.361ZM136.247 104.728C129.23 104.728 122.308 103.827 115.479 102.025L114.968 103.959C121.963 105.805 129.057 106.728 136.247 106.728V104.728ZM115.495 102.029C108.769 100.135 103.072 97.4923 98.3837 94.1165L97.2151 95.7395C102.126 99.2757 108.045 102.009 114.952 103.955L115.495 102.029ZM98.688 95.3866L107.904 77.5306L106.127 76.6134L96.9108 94.4694L98.688 95.3866ZM106.415 77.872C110.351 80.8235 114.866 83.1277 119.953 84.7905L120.574 82.8895C115.676 81.2883 111.36 79.0805 107.615 76.272L106.415 77.872ZM119.969 84.7958C125.058 86.3614 130.293 87.144 135.671 87.144V85.144C130.49 85.144 125.453 84.3906 120.557 82.8842L119.969 84.7958ZM135.671 87.144C141.645 87.144 146.476 85.9708 150.061 83.5127L148.93 81.8633C145.795 84.0132 141.41 85.144 135.671 85.144V87.144ZM150.061 83.5127C153.697 81.0193 155.535 77.4925 155.535 73.04H153.535C153.535 76.8435 152.014 79.7487 148.93 81.8633L150.061 83.5127ZM155.535 73.04C155.535 68.3882 153.592 64.7964 149.735 62.3987L148.679 64.0973C151.926 66.1156 153.535 69.0518 153.535 73.04H155.535ZM149.746 62.4053C146.029 60.0309 139.725 58.936 131.063 58.936V60.936C139.682 60.936 145.473 62.0491 148.669 64.0907L149.746 62.4053ZM131.063 58.936H105.287V60.936H131.063V58.936ZM106.283 60.027L111.467 3.29098L109.476 3.109L104.292 59.845L106.283 60.027ZM110.471 4.19999H171.959V2.19999H110.471V4.19999ZM170.959 3.19999V21.92H172.959V3.19999H170.959ZM171.959 20.92H129.911V22.92H171.959V20.92ZM128.915 21.8376L127.331 40.9896L129.324 41.1544L130.908 22.0024L128.915 21.8376ZM128.327 42.072H136.535V40.072H128.327V42.072Z" fill="url(#paint0_linear)"/>
</g>
<defs>
<linearGradient id="paint0_linear" x1="21" y1="-36" x2="21" y2="104" gradientUnits="userSpaceOnUse">
<stop stop-color="white" stop-opacity="0"/>
<stop offset="1" stop-color="white"/>
</linearGradient>
</defs>
</svg>
