<svg width="86" height="79" viewBox="0 0 86 79" fill="none" xmlns="http://www.w3.org/2000/svg">
<path d="M70.5714 69.1429H5.42857C2.43064 69.1429 0 66.7122 0 63.7143V20.2857C0 17.2878 2.43064 14.8572 5.42857 14.8572H70.5714C73.5694 14.8572 76 17.2878 76 20.2857V63.7143C76 66.7122 73.5694 69.1429 70.5714 69.1429Z" fill="#202D8A"/>
<path d="M24.4286 2.71429V10.8571H29.8572V5.42857H46.1429V10.8571H51.5714V2.71429C51.5714 1.21464 50.3568 0 48.8572 0H27.1429C25.6432 0 24.4286 1.21464 24.4286 2.71429Z" fill="#202D8A"/>
<path d="M70.5714 10.8572H5.42857C2.43064 10.8572 0 13.2878 0 16.2857V29.8572C0 37.3527 6.07593 43.4286 13.5714 43.4286H62.4286C69.9241 43.4286 76 37.3527 76 29.8572V16.2857C76 13.2878 73.5694 10.8572 70.5714 10.8572Z" fill="#2737A7"/>
<rect x="31" y="39" width="14" height="8" rx="2" fill="#3949BB"/>
<circle cx="66" cy="59" r="20" fill="#FF2535"/>
<path d="M73.6388 53.7381C72.6546 52.754 71.0601 52.754 70.076 53.7381L66.8184 56.9957L64.2989 59.5152L62.3009 57.5172C61.3168 56.5331 59.7222 56.5331 58.7381 57.5172C57.754 58.5014 57.754 60.0959 58.7381 61.08L62.5174 64.8593C63.0095 65.3514 63.6542 65.5975 64.2987 65.5975C64.9432 65.5975 65.588 65.3514 66.08 64.8593L66.8184 64.1212L73.6388 57.3009C74.6231 56.3166 74.6231 54.7222 73.6388 53.7381Z" fill="white"/>
</svg>
