<svg width="82" height="82" viewBox="0 0 82 82" fill="none" xmlns="http://www.w3.org/2000/svg">
<g clip-path="url(#clip0)">
<path d="M65.0234 4.96472H7.20703C3.21898 4.96472 0 8.1837 0 12.1718V50.6093C0 54.597 3.21898 57.8163 7.20703 57.8163H9.60938V69.828C9.60938 70.7889 10.1859 71.6538 11.0988 72.038C11.9637 72.4225 13.0209 72.2304 13.6932 71.5095L27.5949 57.8163H65.0234C69.0115 57.8163 72.2305 54.597 72.2305 50.6093V12.1718C72.2305 8.1837 69.0115 4.96472 65.0234 4.96472Z" fill="#2737A7"/>
<path d="M74.6328 33.7928H60.2187H45.8047C41.8306 33.7928 38.5977 37.0258 38.5977 40.9999V60.2186C38.5977 64.1928 41.8306 67.4257 45.8047 67.4257H59.224L60.2187 68.4204L68.1297 76.3313C68.8231 77.0248 69.8626 77.2216 70.7479 76.8521C71.6464 76.4815 72.2306 75.604 72.2306 74.6329V67.4258H74.633C78.6071 67.4258 82.0002 64.1929 82.0002 60.2188V41C82 37.0258 78.6069 33.7928 74.6328 33.7928Z" fill="#FF2535"/>
<path d="M31.3906 43.4022H16.9766C15.6487 43.4022 14.5742 42.3277 14.5742 40.9999C14.5742 39.672 15.6487 38.5975 16.9766 38.5975H31.3906C32.7185 38.5975 33.793 39.672 33.793 40.9999C33.793 42.3277 32.7185 43.4022 31.3906 43.4022Z" fill="white"/>
<path d="M38.5977 31.3905C38.5977 32.7357 37.5408 33.7929 36.1953 33.7929H16.9766C15.6311 33.7929 14.5742 32.7357 14.5742 31.3905C14.5742 30.045 15.6311 28.9882 16.9766 28.9882H36.1953C37.5408 28.9882 38.5977 30.045 38.5977 31.3905Z" fill="white"/>
<path d="M57.8164 21.7811C57.8164 23.1263 56.7595 24.1835 55.4141 24.1835H16.9766C15.6311 24.1835 14.5742 23.1263 14.5742 21.7811C14.5742 20.4357 15.6311 19.3788 16.9766 19.3788H55.4141C56.7595 19.3788 57.8164 20.4357 57.8164 21.7811Z" fill="white"/>
<path d="M66.7219 46.5085C65.7835 45.5701 64.2632 45.5701 63.3248 46.5085L60.2187 49.6145L57.8164 52.0169L55.9113 50.1118C54.973 49.1735 53.4526 49.1735 52.5143 50.1118C51.5759 51.0502 51.5759 52.5705 52.5143 53.5089L56.1178 57.1124C56.587 57.5817 57.2017 57.8163 57.8162 57.8163C58.4307 57.8163 59.0456 57.5817 59.5147 57.1124L60.2187 56.4087L66.7219 49.9055C67.6604 48.967 67.6604 47.4468 66.7219 46.5085Z" fill="white"/>
</g>
<defs>
<clipPath id="clip0">
<rect width="82" height="82" fill="white"/>
</clipPath>
</defs>
</svg>
