<svg width="86" height="19" viewBox="0 0 86 19" fill="none" xmlns="http://www.w3.org/2000/svg">
<path d="M6.75276 9.69654C7.12343 9.26274 7.79399 9.26274 8.16466 9.69654L12.6093 14.8981C13.1242 15.5007 12.696 16.4299 11.9033 16.4299H3.01412C2.22146 16.4299 1.79323 15.5007 2.30816 14.8981L6.75276 9.69654Z" fill="#1D634A"/>
<path d="M6.75276 5.26124C7.12343 4.82744 7.79399 4.82744 8.16466 5.26124L12.6093 10.4628C13.1242 11.0654 12.696 11.9946 11.9033 11.9946L3.01412 11.9946C2.22146 11.9946 1.79323 11.0654 2.30816 10.4628L6.75276 5.26124Z" fill="#278362"/>
<path d="M6.75294 0.826179C7.12361 0.392379 7.79417 0.392379 8.16484 0.826179L12.6094 6.02771C13.1244 6.63033 12.6961 7.5595 11.9035 7.5595L3.0143 7.5595C2.22164 7.5595 1.79342 6.63033 2.30834 6.02771L6.75294 0.826179Z" fill="#3EA47F"/>
<path d="M25.7719 4.56757V6.21597H22.1597V7.99672H24.8626V9.59698H22.1597V13.0141H20V4.56757H25.7719Z" fill="#202020"/>
<path d="M29.7018 13.1104C29.0114 13.1104 28.3883 12.97 27.8326 12.6892C27.2853 12.4085 26.8517 12.0074 26.5317 11.486C26.2202 10.9646 26.0644 10.355 26.0644 9.65714C26.0644 8.9673 26.2244 8.36169 26.5443 7.8403C26.8643 7.31089 27.3021 6.90581 27.8579 6.62506C28.4136 6.34431 29.0367 6.20393 29.7271 6.20393C30.4176 6.20393 31.0406 6.34431 31.5964 6.62506C32.1521 6.90581 32.5899 7.31089 32.9099 7.8403C33.2298 8.36169 33.3898 8.9673 33.3898 9.65714C33.3898 10.347 33.2256 10.9566 32.8973 11.486C32.5773 12.0074 32.1352 12.4085 31.5711 12.6892C31.0154 12.97 30.3923 13.1104 29.7018 13.1104ZM29.7018 11.3296C30.1144 11.3296 30.4639 11.1852 30.7501 10.8964C31.0448 10.6077 31.1922 10.1946 31.1922 9.65714C31.1922 9.11971 31.0491 8.70661 30.7628 8.41784C30.4849 8.12907 30.1397 7.98468 29.7271 7.98468C29.3061 7.98468 28.9567 8.12907 28.6788 8.41784C28.401 8.69859 28.262 9.11169 28.262 9.65714C28.262 10.1946 28.3967 10.6077 28.6662 10.8964C28.944 11.1852 29.2893 11.3296 29.7018 11.3296Z" fill="#202020"/>
<path d="M36.6954 7.41917C36.948 7.05019 37.2637 6.76142 37.6426 6.55287C38.0215 6.33629 38.4425 6.228 38.9056 6.228V8.40581H38.312C37.7731 8.40581 37.369 8.51811 37.0995 8.7427C36.8301 8.95928 36.6954 9.34431 36.6954 9.89778V13.0141H34.5356V6.30019H36.6954V7.41917Z" fill="#202020"/>
<path d="M46.5813 9.54885C46.5813 9.74137 46.5687 9.9419 46.5435 10.1505H41.6556C41.6893 10.5676 41.8282 10.8884 42.0724 11.113C42.325 11.3296 42.6323 11.4379 42.9944 11.4379C43.5333 11.4379 43.908 11.2213 44.1185 10.7882H46.4172C46.2993 11.2293 46.0846 11.6264 45.773 11.9793C45.4699 12.3323 45.0868 12.609 44.6237 12.8095C44.1606 13.0101 43.6427 13.1104 43.0702 13.1104C42.3797 13.1104 41.7651 12.97 41.2262 12.6892C40.6873 12.4085 40.2663 12.0074 39.9632 11.486C39.6601 10.9646 39.5085 10.355 39.5085 9.65714C39.5085 8.95928 39.6559 8.34966 39.9506 7.82827C40.2537 7.30688 40.6747 6.90581 41.2136 6.62506C41.7524 6.34431 42.3713 6.20393 43.0702 6.20393C43.7522 6.20393 44.3584 6.3403 44.8889 6.61303C45.4194 6.88575 45.832 7.27479 46.1267 7.78014C46.4298 8.28549 46.5813 8.87506 46.5813 9.54885ZM44.3711 9.00741C44.3711 8.65447 44.2448 8.37372 43.9922 8.16516C43.7396 7.95661 43.4238 7.85233 43.0449 7.85233C42.6829 7.85233 42.3755 7.9526 42.1229 8.15313C41.8787 8.35367 41.7272 8.63843 41.6682 9.00741H44.3711Z" fill="#202020"/>
<path d="M50.5877 13.1104C49.9731 13.1104 49.4258 13.0101 48.9458 12.8095C48.4659 12.609 48.087 12.3363 47.8091 11.9914C47.5313 11.6384 47.3755 11.2454 47.3418 10.8122H49.4763C49.5015 11.0448 49.6152 11.2333 49.8173 11.3777C50.0194 11.5221 50.2678 11.5943 50.5625 11.5943C50.8319 11.5943 51.0382 11.5462 51.1813 11.4499C51.3329 11.3456 51.4087 11.2133 51.4087 11.0529C51.4087 10.8604 51.3034 10.72 51.0929 10.6317C50.8824 10.5355 50.5414 10.4312 50.0699 10.3189C49.5647 10.2066 49.1437 10.0903 48.8069 9.96998C48.4701 9.84163 48.1796 9.64511 47.9354 9.3804C47.6912 9.10768 47.5691 8.7427 47.5691 8.28549C47.5691 7.90046 47.6786 7.55153 47.8975 7.23869C48.1249 6.91784 48.4533 6.66516 48.8827 6.48067C49.3205 6.29618 49.8384 6.20393 50.4362 6.20393C51.3203 6.20393 52.0149 6.41249 52.5201 6.8296C53.0338 7.24672 53.3285 7.80019 53.4042 8.49003H51.4087C51.375 8.25741 51.2655 8.07292 51.0803 7.93655C50.9035 7.80019 50.6677 7.73201 50.373 7.73201C50.1204 7.73201 49.9268 7.78014 49.792 7.87639C49.6573 7.96463 49.59 8.08896 49.59 8.24939C49.59 8.4419 49.6952 8.58629 49.9057 8.68254C50.1246 8.7788 50.4614 8.87506 50.9161 8.97131C51.4382 9.09966 51.8634 9.228 52.1918 9.35634C52.5201 9.47666 52.8064 9.6772 53.0506 9.95795C53.3032 10.2307 53.4337 10.5997 53.4421 11.0649C53.4421 11.4579 53.3242 11.8109 53.0885 12.1237C52.8611 12.4285 52.5286 12.6692 52.0907 12.8456C51.6613 13.0221 51.1603 13.1104 50.5877 13.1104Z" fill="#202020"/>
<path d="M58.6914 11.2694V13.0141H57.5926C56.8095 13.0141 56.1991 12.8336 55.7612 12.4727C55.3234 12.1037 55.1045 11.5061 55.1045 10.6799V8.00875H54.2456V6.30019H55.1045V4.66383H57.2642V6.30019H58.6788V8.00875H57.2642V10.7039C57.2642 10.9045 57.3147 11.0489 57.4158 11.1371C57.5168 11.2253 57.6852 11.2694 57.921 11.2694H58.6914Z" fill="#202020"/>
<path d="M70.8684 6.44458L68.7087 13.0141H67.8246L65.9174 7.5034L64.0103 13.0141H63.1136L60.9538 6.44458H61.8506L63.5682 12.1598L65.5006 6.44458H66.3847L68.2919 12.1718L69.9969 6.44458H70.8684Z" fill="#202020"/>
<path d="M77.8997 9.39244C77.8997 9.68121 77.8913 9.9018 77.8744 10.0542H72.153C72.1783 10.5515 72.3046 10.9767 72.5319 11.3296C72.7593 11.6825 73.0582 11.9513 73.4287 12.1358C73.7991 12.3122 74.2033 12.4005 74.6411 12.4005C75.2137 12.4005 75.6936 12.2681 76.081 12.0034C76.4767 11.7387 76.7377 11.3817 76.864 10.9325H77.7987C77.6303 11.5743 77.2682 12.0997 76.7125 12.5087C76.1652 12.9098 75.4747 13.1104 74.6411 13.1104C73.9928 13.1104 73.4118 12.974 72.8982 12.7013C72.3846 12.4205 71.9804 12.0275 71.6857 11.5221C71.3994 11.0087 71.2563 10.4112 71.2563 9.72934C71.2563 9.04752 71.3994 8.44992 71.6857 7.93655C71.972 7.42319 72.3719 7.03014 72.8856 6.75741C73.3992 6.48468 73.9844 6.34832 74.6411 6.34832C75.2979 6.34832 75.8705 6.48468 76.3588 6.75741C76.8556 7.03014 77.2345 7.39912 77.4955 7.86436C77.765 8.32158 77.8997 8.83094 77.8997 9.39244ZM77.003 9.36837C77.0114 8.87907 76.9061 8.46196 76.6872 8.11704C76.4767 7.77212 76.1862 7.51142 75.8157 7.33495C75.4453 7.15848 75.0411 7.07024 74.6033 7.07024C73.9465 7.07024 73.3866 7.27078 72.9235 7.67185C72.4604 8.07292 72.2035 8.63843 72.153 9.36837H77.003Z" fill="#202020"/>
<path d="M79.9755 7.90046C80.2028 7.44324 80.5522 7.07024 81.0238 6.78147C81.5037 6.4927 82.0678 6.34832 82.7162 6.34832C83.3477 6.34832 83.9118 6.48869 84.4086 6.76944C84.9054 7.04217 85.2927 7.43522 85.5706 7.94859C85.8569 8.45393 86 9.04351 86 9.7173C86 10.3911 85.8569 10.9847 85.5706 11.4981C85.2927 12.0114 84.9012 12.4085 84.396 12.6892C83.8992 12.97 83.3393 13.1104 82.7162 13.1104C82.0594 13.1104 81.4911 12.97 81.0111 12.6892C80.5396 12.4005 80.1944 12.0275 79.9755 11.5702V13.0141H79.104V4.11035H79.9755V7.90046ZM85.1033 9.7173C85.1033 9.17185 84.9896 8.7026 84.7623 8.30955C84.5433 7.90848 84.2402 7.60367 83.8529 7.39511C83.4656 7.18655 83.0277 7.08228 82.5394 7.08228C82.0678 7.08228 81.6342 7.19057 81.2385 7.40714C80.8511 7.62372 80.5438 7.93254 80.3165 8.33361C80.0891 8.73468 79.9755 9.19992 79.9755 9.72934C79.9755 10.2587 80.0891 10.724 80.3165 11.1251C80.5438 11.5261 80.8511 11.835 81.2385 12.0515C81.6342 12.2681 82.0678 12.3764 82.5394 12.3764C83.0277 12.3764 83.4656 12.2721 83.8529 12.0636C84.2402 11.847 84.5433 11.5382 84.7623 11.1371C84.9896 10.728 85.1033 10.2547 85.1033 9.7173Z" fill="#202020"/>
</svg>
