<svg width="86" height="86" viewBox="0 0 86 86" fill="none" xmlns="http://www.w3.org/2000/svg">
<g clip-path="url(#clip0)">
<path fill-rule="evenodd" clip-rule="evenodd" d="M30.4924 21.4698L15.1172 25.9628L11.6868 39.5703C12.2802 44.5684 13.2171 49.2472 16.3073 51.8667L41.8081 72.5917L44.8934 74.9654C49.5384 78.5382 53.9381 73.545 50.4066 69.8543C50.3575 69.8002 50.3036 69.7461 50.2497 69.692C51.4416 70.6946 52.7807 70.9796 53.9529 70.788C56.5329 70.3703 58.2988 67.6377 55.9247 65.087C60.5648 68.7925 64.5281 62.8901 60.8934 59.6513C64.945 60.9291 69.3593 55.6753 65.1509 51.2129C65.1215 51.1785 65.0871 51.1392 65.0528 51.1047L54.5022 35.3977L40.3513 26.3302L30.4924 21.4698Z" fill="#FFBC85"/>
<path fill-rule="evenodd" clip-rule="evenodd" d="M41.4255 73.0339C45.3494 68.8515 39.6253 64.0402 36.4616 66.8758L33.0724 70.0998C33.0331 70.1391 32.9988 70.1736 32.9595 70.203C30.1146 73.0633 35.2845 79.58 39.5615 75.0193L41.4255 73.0339Z" fill="#FFE5C1"/>
<path fill-rule="evenodd" clip-rule="evenodd" d="M30.5512 61.0423L26.9706 64.7971L26.9558 64.8167C25.1606 66.7237 26.4064 69.6478 28.5303 70.788C29.8449 71.4957 31.493 71.5252 32.9595 70.2031L36.7952 70.1442L36.4617 66.876L36.9521 66.4141C40.7879 62.7675 35.2501 56.467 30.9288 60.6444L30.5512 61.0423Z" fill="#FFE5C1"/>
<path fill-rule="evenodd" clip-rule="evenodd" d="M24.1551 55.8968L20.8001 59.4599L20.3293 59.9661C17.0184 63.48 22.9486 69.0139 26.3672 65.4263L26.9558 64.8169C27.0048 64.7628 30.6002 64.3893 30.9926 64.3451L30.9288 60.6444L32.0765 59.4404C36.0249 55.2974 29.8546 49.8422 26.0973 53.8378L24.1551 55.8968Z" fill="#FFE5C1"/>
<path fill-rule="evenodd" clip-rule="evenodd" d="M16.3072 51.8668L15.1693 53.1003C11.6671 56.9043 16.8861 62.9688 20.8001 59.4598L24.0128 58.9634L24.1551 55.8967C27.3285 52.3041 21.7958 45.9102 17.4402 50.6381L16.3072 51.8668Z" fill="#FFE5C1"/>
<path fill-rule="evenodd" clip-rule="evenodd" d="M21.1142 10.7952L5.54094 25.7898L1.1116 30.0507C-0.330409 31.4366 -0.374585 33.7513 1.00864 35.1962L7.61569 42.0865C7.99832 42.4845 8.6408 42.4993 9.04309 42.116L11.6869 39.5703L30.4925 21.4698L32.8273 19.2189C33.2296 18.8355 33.2442 18.1917 32.8567 17.7888L26.2496 10.8985C24.8664 9.45349 22.5562 9.40931 21.1142 10.7952Z" fill="#2737A7"/>
<path fill-rule="evenodd" clip-rule="evenodd" d="M50.7303 36.8623L46.002 37.9435L47.856 39.8258L62.1785 54.0684L62.2766 54.1765C64.0032 56.0047 64.2778 57.9609 63.7285 59.553C66.5586 58.4718 68.3588 54.6139 65.1509 51.2129L65.0528 51.1047L60.756 46.8339L50.7303 36.8623Z" fill="#F5A96C"/>
<path fill-rule="evenodd" clip-rule="evenodd" d="M30.4924 21.4698L27.4807 24.3645L36.8933 29.0088L40.3513 26.3304L30.4924 21.4698Z" fill="#F5A96C"/>
<path fill-rule="evenodd" clip-rule="evenodd" d="M40.3513 26.3304L36.8933 29.0088L33.6364 31.5251C25.4108 37.8945 32.2335 44.1851 37.114 42.0277L42.6028 38.7202L46.0019 37.9437L50.7303 36.8625L60.756 46.8343L65.0528 51.1051C67.7554 50.0927 71.5763 47.1734 75.7015 40.5288L69.4311 27.4096L54.7867 20.3937L51.0296 23.3965C50.4116 23.8879 50.5979 23.7945 49.818 23.77C46.9977 23.6815 43.4122 23.9617 41.3079 25.5884L40.3513 26.3304Z" fill="#FFE5C1"/>
<path fill-rule="evenodd" clip-rule="evenodd" d="M40.3366 36.5331L34.8479 39.8406C33.352 40.5041 31.6695 40.3714 30.2961 39.6834C31.488 41.9736 34.5684 43.1531 37.114 42.0277L42.6027 38.7203L46.0019 37.9437L50.6714 36.8773C48.5083 35.0244 48.1208 34.7542 43.731 35.7617L40.3366 36.5331Z" fill="#FED1A3"/>
<path fill-rule="evenodd" clip-rule="evenodd" d="M72.2875 37.2408C68.6137 43.1532 65.1851 46.1167 62.5709 47.414C62.2766 47.5615 61.992 47.6843 61.7174 47.7876L65.0528 51.105C67.7554 50.0926 71.5763 47.1733 75.7015 40.5287L72.2875 37.2408Z" fill="#FED1A3"/>
<path fill-rule="evenodd" clip-rule="evenodd" d="M14.0167 56.0098C14.0509 59.2289 17.8082 62.1432 20.8003 59.4599L22.9044 57.2286L24.1551 55.8968C25.4647 54.4126 25.2882 52.4566 24.3316 50.9969C24.3268 51.8521 24.0422 52.7072 23.3898 53.4493L21.1629 55.8133L20.0397 57.0124C17.8573 58.9634 15.2722 57.9462 14.0167 56.0098Z" fill="#FED1A3"/>
<path fill-rule="evenodd" clip-rule="evenodd" d="M19.5103 63.3129C20.295 65.9471 23.9591 67.9572 26.3674 65.4261L26.956 64.8167C26.9608 64.8068 26.9657 64.8019 26.9708 64.797L30.5513 61.0423C30.6788 60.8997 30.8015 60.767 30.9291 60.6442L32.0768 59.4402C34.2055 57.2089 33.3962 54.5944 31.606 53.2821C31.9297 54.4861 31.6698 55.8771 30.4632 57.14L29.3154 58.344C29.1879 58.4668 29.0653 58.5995 28.9377 58.7372V58.7421L25.3571 62.4969C25.3522 62.5017 25.3473 62.5068 25.3374 62.5117L24.7537 63.1259C23.1545 64.8069 21.0062 64.4875 19.5103 63.3129Z" fill="#FED1A3"/>
<path fill-rule="evenodd" clip-rule="evenodd" d="M33.0724 70.1L35.6866 67.6181L36.4616 66.876L36.9521 66.4141C38.9926 64.4728 38.3795 61.7796 36.702 60.3149C37.0601 61.5977 36.7952 63.0475 35.5591 64.2221L35.0735 64.684L33.6903 65.9961L31.6792 67.9128L31.5663 68.0111C30.0998 69.3332 28.4517 69.3036 27.1372 68.6008C26.8135 68.424 26.5093 68.2076 26.2347 67.957C26.5584 69.1217 27.4266 70.1981 28.5301 70.7878C29.8447 71.4954 31.4928 71.525 32.9593 70.2029L33.0724 70.1Z" fill="#FED1A3"/>
<path fill-rule="evenodd" clip-rule="evenodd" d="M41.4254 73.0339C43.3875 70.9403 42.9361 68.6942 41.602 67.3231C41.5726 68.252 41.1802 69.2497 40.2777 70.208L38.4137 72.1984C36.1231 74.6361 33.5774 73.9038 32.1451 72.2574C32.1648 75.2405 36.1477 78.6612 39.5615 75.0194L41.4254 73.0339Z" fill="#FED1A3"/>
<path d="M60.8928 60.9503C60.5764 60.9503 60.2589 60.835 60.0088 60.6022L54.7801 55.7318C54.2556 55.243 54.2262 54.4213 54.7145 53.8963C55.2027 53.3714 56.0239 53.3418 56.5488 53.8304L61.7775 58.7008C62.3021 59.1896 62.3315 60.0113 61.8432 60.5364C61.5876 60.8114 61.2407 60.9503 60.8928 60.9503Z" fill="#F5A96C"/>
<path d="M55.9242 66.3858C55.6077 66.3858 55.2903 66.2706 55.0402 66.0376L49.8066 61.1624C49.282 60.6736 49.2526 59.852 49.7411 59.327C50.229 58.8021 51.0504 58.7723 51.5753 59.2613L56.8089 64.1366C57.3334 64.6254 57.3628 65.4469 56.8744 65.972C56.6187 66.2468 56.2719 66.3858 55.9242 66.3858Z" fill="#F5A96C"/>
<path d="M50.4209 71.1628C50.1047 71.1628 49.7876 71.0477 49.5377 70.8154L46.8744 68.3385C46.3493 67.8501 46.3192 67.0285 46.8072 66.5031C47.295 65.9777 48.1163 65.9477 48.6414 66.4358L51.3047 68.9126C51.8298 69.4011 51.8599 70.2226 51.3719 70.748C51.1163 71.0233 50.7691 71.1628 50.4209 71.1628Z" fill="#F5A96C"/>
<path fill-rule="evenodd" clip-rule="evenodd" d="M54.7865 20.3935L72.2874 37.2408L75.7012 40.5286L76.9569 41.7377C77.3592 42.121 78.0017 42.1062 78.3843 41.7081L81.8325 38.1105L84.9914 34.8177C86.3746 33.3728 86.3304 31.058 84.8884 29.6721L81.8325 26.7332L64.886 10.4167C63.444 9.03079 61.1337 9.07497 59.7505 10.5198L53.1435 17.4101C52.756 17.813 52.7707 18.4569 53.1729 18.8402L54.7865 20.3935Z" fill="#FF2535"/>
</g>
<defs>
<clipPath id="clip0">
<rect width="86" height="86" fill="white"/>
</clipPath>
</defs>
</svg>
