<svg width="22" height="22" viewBox="0 0 22 22" fill="none" xmlns="http://www.w3.org/2000/svg">
<mask id="mask0" mask-type="alpha" maskUnits="userSpaceOnUse" x="0" y="0" width="22" height="22">
<circle cx="11" cy="11" r="11" fill="#C4C4C4"/>
</mask>
<g mask="url(#mask0)">
<circle cx="11" cy="11" r="11" fill="#C4C4C4"/>
<path d="M27.4999 0.000244141H-5.49951V22.0001H27.4999V0.000244141Z" fill="#F0F0F0"/>
<path d="M13.0626 0H8.93771V8.93728H-5.49951V13.0622H8.93771V21.9995H13.0626V13.0622H27.4999V8.93728H13.0626V0Z" fill="#D80027"/>
<path d="M19.8804 14.8257L27.4995 19.0586V14.8257H19.8804Z" fill="#0052B4"/>
<path d="M14.5869 14.8257L27.4997 21.9994V19.9709L18.2384 14.8257H14.5869Z" fill="#0052B4"/>
<path d="M24.0602 21.9995L14.5869 16.7361V21.9995H24.0602Z" fill="#0052B4"/>
<path d="M14.5869 14.8257L27.4997 21.9994V19.9709L18.2384 14.8257H14.5869Z" fill="#F0F0F0"/>
<path d="M14.5869 14.8257L27.4997 21.9994V19.9709L18.2384 14.8257H14.5869Z" fill="#D80027"/>
<path d="M0.323135 14.8257L-5.49951 18.0605V14.8257H0.323135Z" fill="#0052B4"/>
<path d="M7.41342 15.7378V21.9994H-3.85645L7.41342 15.7378Z" fill="#0052B4"/>
<path d="M3.76177 14.8257L-5.49951 19.9709V21.9994L7.41329 14.8257H3.76177Z" fill="#D80027"/>
<path d="M2.11967 7.17362L-5.49951 2.94067V7.17362H2.11967Z" fill="#0052B4"/>
<path d="M7.41329 7.17424L-5.49951 0.000488281V2.02905L3.76177 7.17424H7.41329Z" fill="#0052B4"/>
<path d="M-2.06006 0L7.41321 5.2634V0H-2.06006Z" fill="#0052B4"/>
<path d="M7.41329 7.17375L-5.49951 0V2.02856L3.76177 7.17375H7.41329Z" fill="#F0F0F0"/>
<path d="M7.41329 7.17375L-5.49951 0V2.02856L3.76177 7.17375H7.41329Z" fill="#D80027"/>
<path d="M21.6772 7.17405L27.4999 3.93921V7.17405H21.6772Z" fill="#0052B4"/>
<path d="M14.5869 6.26156V0H25.8568L14.5869 6.26156Z" fill="#0052B4"/>
<path d="M18.2384 7.17375L27.4997 2.02856V0L14.5869 7.17375H18.2384Z" fill="#D80027"/>
</g>
</svg>
