<svg width="22" height="22" viewBox="0 0 22 22" fill="none" xmlns="http://www.w3.org/2000/svg">
<mask id="mask0" mask-type="alpha" maskUnits="userSpaceOnUse" x="0" y="0" width="22" height="22">
<circle cx="11" cy="11" r="11" fill="#C4C4C4"/>
</mask>
<g mask="url(#mask0)">
<circle cx="11" cy="11" r="11" fill="#D72B2B"/>
<path d="M7.36111 7.13989L8.50275 9.45325L11.0557 9.82429L9.20842 11.6246L9.64438 14.167L7.36111 12.9668L5.07784 14.167L5.51381 11.6246L3.6665 9.82429L6.21948 9.45325L7.36111 7.13989Z" fill="#EFBC2E"/>
<path d="M13.1669 3.5498L13.6055 4.43862L14.5866 4.58113L13.8767 5.27308L14.0446 6.25004L13.1669 5.78874L12.2891 6.25004L12.457 5.27308L11.7471 4.58113L12.7283 4.43862L13.1669 3.5498Z" fill="#EFBC2E"/>
<path d="M13.1669 15.7505L13.6055 16.6398L14.5866 16.7818L13.8767 17.4743L14.0446 18.4507L13.1669 17.9894L12.2891 18.4507L12.457 17.4743L11.7471 16.7818L12.7283 16.6398L13.1669 15.7505Z" fill="#EFBC2E"/>
<path d="M15.6424 7.30542L16.0816 8.19477L17.0622 8.33674L16.3523 9.02922L16.5202 10.0057L15.6424 9.54435L14.7647 10.0057L14.9325 9.02922L14.2227 8.33674L15.2038 8.19477L15.6424 7.30542Z" fill="#EFBC2E"/>
<path d="M15.6424 11.5889L16.0816 12.4782L17.0622 12.6207L16.3523 13.3127L16.5202 14.2896L15.6424 13.8283L14.7647 14.2896L14.9325 13.3127L14.2227 12.6207L15.2038 12.4782L15.6424 11.5889Z" fill="#EFBC2E"/>
</g>
</svg>
