<svg width="240" height="51" viewBox="0 0 240 51" fill="none" xmlns="http://www.w3.org/2000/svg">
<rect width="240" height="51" fill="#1A288C"/>
<path d="M50.486 16.8V35H46.326V20.232H40.086L39.956 24.028C39.8693 26.6107 39.6613 28.708 39.332 30.32C39.0027 31.9147 38.448 33.1453 37.668 34.012C36.9053 34.8613 35.8307 35.286 34.444 35.286C33.872 35.286 33.1787 35.1907 32.364 35L32.624 31.438C32.8493 31.5073 33.1007 31.542 33.378 31.542C34.3833 31.542 35.0853 30.9527 35.484 29.774C35.8827 28.578 36.134 26.7147 36.238 24.184L36.498 16.8H50.486ZM69.4355 35.312C67.5462 35.312 65.8389 34.9047 64.3135 34.09C62.8055 33.2753 61.6182 32.1573 60.7515 30.736C59.9022 29.2973 59.4775 27.6853 59.4775 25.9C59.4775 24.1147 59.9022 22.5113 60.7515 21.09C61.6182 19.6513 62.8055 18.5247 64.3135 17.71C65.8389 16.8953 67.5462 16.488 69.4355 16.488C71.3249 16.488 73.0235 16.8953 74.5315 17.71C76.0395 18.5247 77.2269 19.6513 78.0935 21.09C78.9602 22.5113 79.3935 24.1147 79.3935 25.9C79.3935 27.6853 78.9602 29.2973 78.0935 30.736C77.2269 32.1573 76.0395 33.2753 74.5315 34.09C73.0235 34.9047 71.3249 35.312 69.4355 35.312ZM69.4355 31.724C70.5102 31.724 71.4809 31.4813 72.3475 30.996C73.2142 30.4933 73.8902 29.8 74.3755 28.916C74.8782 28.032 75.1295 27.0267 75.1295 25.9C75.1295 24.7733 74.8782 23.768 74.3755 22.884C73.8902 22 73.2142 21.3153 72.3475 20.83C71.4809 20.3273 70.5102 20.076 69.4355 20.076C68.3609 20.076 67.3902 20.3273 66.5235 20.83C65.6569 21.3153 64.9722 22 64.4695 22.884C63.9842 23.768 63.7415 24.7733 63.7415 25.9C63.7415 27.0267 63.9842 28.032 64.4695 28.916C64.9722 29.8 65.6569 30.4933 66.5235 30.996C67.3902 31.4813 68.3609 31.724 69.4355 31.724ZM101.176 20.232H92.5182L92.5442 35H88.3582V16.8H101.202L101.176 20.232ZM116.321 35.312C114.432 35.312 112.724 34.9047 111.199 34.09C109.691 33.2753 108.504 32.1573 107.637 30.736C106.788 29.2973 106.363 27.6853 106.363 25.9C106.363 24.1147 106.788 22.5113 107.637 21.09C108.504 19.6513 109.691 18.5247 111.199 17.71C112.724 16.8953 114.432 16.488 116.321 16.488C118.21 16.488 119.909 16.8953 121.417 17.71C122.925 18.5247 124.112 19.6513 124.979 21.09C125.846 22.5113 126.279 24.1147 126.279 25.9C126.279 27.6853 125.846 29.2973 124.979 30.736C124.112 32.1573 122.925 33.2753 121.417 34.09C119.909 34.9047 118.21 35.312 116.321 35.312ZM116.321 31.724C117.396 31.724 118.366 31.4813 119.233 30.996C120.1 30.4933 120.776 29.8 121.261 28.916C121.764 28.032 122.015 27.0267 122.015 25.9C122.015 24.7733 121.764 23.768 121.261 22.884C120.776 22 120.1 21.3153 119.233 20.83C118.366 20.3273 117.396 20.076 116.321 20.076C115.246 20.076 114.276 20.3273 113.409 20.83C112.542 21.3153 111.858 22 111.355 22.884C110.87 23.768 110.627 24.7733 110.627 25.9C110.627 27.0267 110.87 28.032 111.355 28.916C111.858 29.8 112.542 30.4933 113.409 30.996C114.276 31.4813 115.246 31.724 116.321 31.724ZM148.9 20.232H143.076V35H138.916V20.232H133.118V16.8H148.9V20.232ZM157.264 16.8H161.45V28.656L170.134 16.8H174.086V35H169.926V23.17L161.242 35H157.264V16.8ZM200.926 16.8V35H196.74V20.232H188.524V35H184.338V16.8H200.926Z" fill="white"/>
</svg>
