<svg width="100" height="110" viewBox="0 0 100 110" fill="none" xmlns="http://www.w3.org/2000/svg">
<g filter="url(#filter0_d)">
<path d="M58 56.1034H42V74.7218C46.6608 76.3635 50 80.7931 50 86C50 80.7931 53.3392 76.3635 58 74.7218V56.1034Z" fill="#FF2535"/>
<path d="M80 45.8966C80 62.408 66.5685 75.7931 50 75.7931C33.4315 75.7931 20 62.408 20 45.8966C20 29.3851 33.4315 16 50 16C66.5685 16 80 29.3851 80 45.8966Z" fill="#FF2535"/>
</g>
<path d="M49.6168 35.6628C49.9928 34.9549 51.0072 34.9549 51.3832 35.6628L54.1063 40.7899C54.2508 41.0621 54.5127 41.2524 54.8162 41.3057L60.5338 42.3112C61.3233 42.45 61.6367 43.4147 61.0797 43.9911L57.045 48.1652C56.8309 48.3868 56.7308 48.6947 56.7738 48.9999L57.5844 54.7483C57.6963 55.5421 56.8757 56.1383 56.1554 55.7866L50.9388 53.2393C50.6619 53.104 50.3381 53.104 50.0612 53.2393L44.8446 55.7866C44.1243 56.1383 43.3037 55.5421 43.4156 54.7483L44.2262 48.9999C44.2692 48.6947 44.1691 48.3868 43.955 48.1652L39.9203 43.9911C39.3633 43.4147 39.6767 42.45 40.4662 42.3112L46.1838 41.3057C46.4873 41.2524 46.7492 41.0621 46.8937 40.7899L49.6168 35.6628Z" fill="white"/>
<defs>
<filter id="filter0_d" x="0" y="0" width="100" height="110" filterUnits="userSpaceOnUse" color-interpolation-filters="sRGB">
<feFlood flood-opacity="0" result="BackgroundImageFix"/>
<feColorMatrix in="SourceAlpha" type="matrix" values="0 0 0 0 0 0 0 0 0 0 0 0 0 0 0 0 0 0 127 0"/>
<feOffset dy="4"/>
<feGaussianBlur stdDeviation="10"/>
<feColorMatrix type="matrix" values="0 0 0 0 0 0 0 0 0 0 0 0 0 0 0 0 0 0 0.25 0"/>
<feBlend mode="normal" in2="BackgroundImageFix" result="effect1_dropShadow"/>
<feBlend mode="normal" in="SourceGraphic" in2="effect1_dropShadow" result="shape"/>
</filter>
</defs>
</svg>
