<svg width="84" height="84" viewBox="0 0 84 84" fill="none" xmlns="http://www.w3.org/2000/svg">
<path d="M76.125 26.2505H73.5V18.3755C73.5 16.9212 72.324 15.7505 70.875 15.7505H7.875C3.53325 15.7505 0 19.2837 0 23.6255V70.8755C0 75.2172 3.53325 78.7505 7.875 78.7505H76.125C77.574 78.7505 78.75 77.5745 78.75 76.1255V28.8755C78.75 27.4212 77.574 26.2505 76.125 26.2505Z" fill="#2737A7"/>
<path d="M7.875 21.0005H68.25V26.2505H7.875C6.426 26.2505 5.25 25.0745 5.25 23.6255C5.25 22.1765 6.426 21.0005 7.875 21.0005Z" fill="#131A48"/>
<path d="M81.375 57.75H65.625C61.278 57.75 57.75 54.222 57.75 49.875C57.75 45.5228 61.278 42 65.625 42H81.375C82.824 42 84 43.176 84 44.625V55.125C84 56.574 82.824 57.75 81.375 57.75Z" fill="#202D8A"/>
<path d="M67.2472 26.2505L57.4717 6.69949C56.8207 5.40273 55.2457 4.88298 53.949 5.52348L12.5055 26.2505H67.2472Z" fill="#D9222F"/>
<path d="M5.25 26.2506H56.7472L46.9717 6.69956C46.3207 5.40281 44.7458 4.88306 43.449 5.52881L5.25 24.6283V26.2506Z" fill="#FF2535"/>
<circle cx="66" cy="50" r="3" fill="white"/>
</svg>
